<?xml version="1.0" encoding="UTF-8" standalone="no"?>
<!-- Created with Inkscape (http://www.inkscape.org/) -->

<svg
   width="2048"
   height="2896.4561"
   viewBox="0 0 541.86665 766.35399"
   version="1.1"
   id="svg1"
   xml:space="preserve"
   xmlns="http://www.w3.org/2000/svg"
   xmlns:svg="http://www.w3.org/2000/svg"><defs
     id="defs1" /><g
     id="layer1"
     transform="matrix(0.42786804,0,0,0.42786804,-2.353343,170.10568)"
     style="display:inline"><g
       id="layer1-8"
       style="display:inline"
       transform="matrix(2.5803163,0,0,2.5803163,-60.376784,27.378671)"><g
         id="g9"
         style="display:inline;fill:none;fill-opacity:1;stroke:#ffffff;stroke-width:3.175;stroke-dasharray:none;stroke-opacity:1"
         transform="matrix(1.006058,0,0,1.006058,0.26986327,-11.67905)"><path
           id="path28"
           style="opacity:0.900783;fill:none;fill-opacity:1;stroke:#eae4bf;stroke-width:2.89605;stroke-dasharray:none;stroke-opacity:1"
           d="m 285.52117,48.999539 c 114.04997,-17.552847 227.1761,-17.552847 339.3784,0 V 331.73639 c 0,108.22472 -169.6892,169.94413 -169.6892,169.94413 0,0 -169.6892,-61.71941 -169.6892,-169.94413 z"
           transform="matrix(1.0963202,0,0,1.0963202,-228.16677,-13.818711)" /></g><g
         id="g10"
         style="display:inline;fill:#ffffff;fill-opacity:1"
         transform="translate(1.9109059,1.0319402e-5)"><path
           style="font-size:143.854px;line-height:0.8;font-family:'Rushford Clean';-inkscape-font-specification:'Rushford Clean';letter-spacing:0px;fill:#eae4bf;fill-opacity:1;stroke-width:8.92895;stroke-opacity:0.4"
           d="m 256.3511,284.44225 c 24.49365,-3.31923 32.71378,-20.14143 35.48359,-38.53081 l 5.3845,-35.74898 c 2.85845,-18.97785 -2.84566,-31.75143 -25.35716,-28.70081 l -25.05999,3.39598 c -1.41582,0.19186 -2.20373,1.73976 -2.381,2.91669 l -14.71322,97.68445 c -0.17727,1.17691 0.16747,2.57132 1.58329,2.37946 z m 13.49409,-35.2627 c -1.15224,7.64998 -3.97151,11.63485 -9.21004,12.34473 l -4.6722,0.63316 c -0.8495,0.11511 -1.11913,-0.85714 -1.00834,-1.59271 l 8.13216,-53.99125 c 0.13295,-0.88268 0.81007,-1.69501 1.65956,-1.81013 l 4.67221,-0.63315 c 4.38903,-0.59478 6.83045,2.53307 5.81115,9.30037 z m 22.58349,27.77967 c -0.22158,1.47115 0.59222,2.51376 2.00804,2.3219 l 16.98982,-2.30236 c 1.55739,-0.21105 2.72574,-1.52227 2.94732,-2.99342 l 14.71323,-97.68446 c 0.22159,-1.47115 -0.59223,-2.51377 -2.14962,-2.30272 l -16.98982,2.30236 c -1.41582,0.19187 -2.58416,1.50309 -2.80575,2.97424 z m 46.4919,-5.72386 c 0.22532,1.26648 1.1056,1.86775 2.37983,1.69507 l 19.39671,-2.62852 c 1.13265,-0.1535 2.23452,-1.02337 2.6728,-2.09156 l 35.99481,-100.85663 c 0.66849,-1.67582 -0.22042,-3.14059 -1.9194,-2.91036 l -18.26405,2.47503 c -1.27424,0.17269 -2.42042,1.33679 -2.73927,2.5329 l -13.23915,41.85732 -2.90907,9.18508 c -0.71281,1.97005 -2.29236,2.32822 -2.40689,0.32616 l -0.18358,-8.91009 -0.7996,-39.81076 c -0.1059,-1.13854 -0.94186,-2.03405 -2.07452,-1.88056 l -18.83038,2.55178 c -1.55741,0.21105 -3.07538,2.002 -2.89438,3.56271 z m 49.92556,-7.34206 c -0.22158,1.47115 0.87539,2.4754 2.14963,2.30272 l 40.63398,-5.50648 c 1.27424,-0.17267 2.72575,-1.52227 2.94733,-2.99342 l 2.63686,-17.5067 c 0.22159,-1.47116 -0.87539,-2.4754 -2.14962,-2.30272 l -19.67987,2.66689 c -0.8495,0.11513 -1.5131,-0.0832 -1.26935,-1.70144 l 2.0829,-13.82882 c 0.13295,-0.8827 0.95165,-1.71421 1.80114,-1.82932 l 18.54722,-2.51341 c 1.41582,-0.19187 2.72574,-1.52228 2.94732,-2.99343 l 2.63686,-17.50668 c 0.24374,-1.61828 -0.7338,-2.4946 -2.14961,-2.30273 l -18.83039,2.55177 c -0.84949,0.11512 -1.22992,-0.12154 -1.11913,-0.85711 l 2.14937,-14.27017 c 0.17727,-1.17693 0.85439,-1.98925 1.84547,-2.12355 l 19.82146,-2.68609 c 1.41581,-0.19186 2.562,-1.35597 2.78359,-2.82712 l 2.65901,-17.65382 c 0.22159,-1.47115 -0.59223,-2.51377 -2.00804,-2.32191 l -40.77557,5.52566 c -1.27423,0.17267 -2.72574,1.52228 -2.94733,2.99343 z m 56.91038,-55.55745 c -3.94911,28.06061 3.26949,52.8785 34.93577,46.13738 3.13696,-0.56922 6.10155,-1.83564 8.4998,-3.02531 1.0354,-0.42853 1.779,-1.68221 1.91194,-2.5649 l 2.72549,-18.09515 c 0.28806,-1.9125 -1.51681,-2.82081 -3.46817,-1.83581 -6.82298,2.94217 -13.80481,4.17654 -18.40074,0.62008 -5.38759,-4.74617 -5.02209,-15.46001 -3.69259,-24.28691 1.2852,-8.53269 3.84953,-19.11216 11.35941,-26.61491 5.85897,-4.82912 12.77433,-5.62214 18.95472,-4.29799 1.72976,0.48616 3.88918,-0.95937 4.15508,-2.72475 l 2.72549,-18.09516 c 0.17727,-1.17691 -0.23395,-2.12998 -1.18071,-2.2899 -2.1102,-0.72283 -4.87536,-0.78045 -7.92368,-0.7997 -29.94399,1.75203 -46.05933,27.71443 -50.60181,57.87303 z m 50.55035,40.99502 c -0.22159,1.47115 0.7338,2.49458 2.14962,2.30271 l 41.62506,-5.64077 c 1.27423,-0.17268 2.72574,-1.52227 2.94732,-2.99342 l 2.68118,-17.80094 c 0.19942,-1.32403 -0.91971,-2.18116 -2.19393,-2.00849 l -19.82147,2.68609 c -1.5574,0.21105 -2.31825,-0.2623 -2.00803,-2.32191 l 11.27866,-74.8816 c 0.22158,-1.47115 -0.7338,-2.49458 -2.00804,-2.32191 l -16.98982,2.30236 c -1.41582,0.19186 -2.72574,1.52228 -2.94732,2.99343 z m 53.72425,-36.24697 c -4.05499,26.92207 10.58835,30.99041 24.18022,29.14852 15.71558,-2.12968 30.62715,-9.05022 34.83725,-37.00211 l 10.28153,-68.26141 c 0.22158,-1.47115 -0.73379,-2.49459 -2.14962,-2.30272 l -16.98982,2.30236 c -1.41581,0.19186 -2.58415,1.50309 -2.80574,2.97424 l -10.41448,69.14411 c -1.39598,9.26826 -6.96199,10.31075 -8.94414,10.57936 -2.2653,0.30698 -7.62326,0.88895 -6.20511,-8.52642 l 10.41448,-69.14412 c 0.22157,-1.47115 -0.7338,-2.49458 -2.00803,-2.32191 l -16.98983,2.30236 c -1.41582,0.19186 -2.72575,1.52228 -2.94733,2.99343 z m 91.13977,19.20989 c 19.53829,-2.64771 27.41252,-16.25255 29.60621,-30.81695 l 1.08576,-7.20864 c 1.04145,-6.91441 0.10939,-12.69672 -4.96425,-16.76487 -2.52142,-1.67588 -1.3666,-1.97649 0.88144,-4.01048 4.16861,-3.73537 7.5197,-11.251 8.49467,-17.72407 l 0.70907,-4.70768 c 1.55109,-10.29806 -1.18842,-24.33806 -20.86831,-21.67116 l -28.17478,3.81807 c -2.12373,0.2878 -3.07538,2.002 -3.23049,3.03181 l -14.69107,97.53733 c -0.24374,1.61828 0.42849,2.68007 1.84431,2.48821 z m 7.56982,-34.604 c -0.55887,5.55202 -2.01153,11.51337 -6.40057,12.10814 l -4.81378,0.65234 c -1.41582,0.19186 -2.54847,0.34535 -2.32688,-1.1258 l 2.45958,-16.32979 c 0.17727,-1.17692 1.23481,-1.75257 2.22588,-1.88686 l 3.82272,-0.51804 c 1.27424,-0.17268 5.76917,0.3711 5.03305,7.10001 z m 4.73443,-36.95788 c -0.50964,3.38365 -4.29782,7.35568 -8.12054,7.87372 l -2.54846,0.34535 c -0.84949,0.11512 -1.53524,0.064 -1.38013,-0.96587 l 2.01642,-13.38747 c 0.13294,-0.8827 0.74359,-1.25367 1.59308,-1.36878 l 4.10587,-0.55641 c 2.97322,-0.40291 5.35306,1.29215 4.93204,4.08735 z"
           id="text1"
           aria-label="DiveClub"
           transform="matrix(1.0963202,0,0,1.0963202,-228.16677,-13.818711)" /><path
           style="font-size:79.3012px;line-height:0.8;font-family:'Rushford Clean';-inkscape-font-specification:'Rushford Clean';letter-spacing:0px;fill:#eae4bf;fill-opacity:1;stroke-width:4.92221;stroke-opacity:0.4"
           d="m 306.12351,173.13007 c -0.0933,0.64817 0.41444,1.37356 1.195,1.26755 l 9.28871,-1.26147 c 0.78056,-0.10601 1.52167,-1.00102 1.61501,-1.64918 l 6.03186,-41.88752 c 0.0933,-0.64816 0.50694,-0.86322 0.81918,-0.90562 l 7.25922,-0.98586 c 0.78057,-0.10601 1.49835,-0.83897 1.61502,-1.64918 l 1.38837,-9.64142 c 0.11668,-0.81019 -0.41444,-1.37355 -1.195,-1.26755 l -27.78802,3.77384 c -0.78056,0.10601 -1.49835,0.83897 -1.61503,1.64918 l -1.38836,9.64141 c -0.11668,0.8102 0.41444,1.37356 1.195,1.26756 l 7.10312,-0.96466 c 0.39028,-0.053 0.58945,0.15826 0.51944,0.64438 z m 24.43163,-3.31801 c -0.11667,0.81021 0.33639,1.38416 1.11695,1.27816 l 9.36676,-1.27208 c 0.85861,-0.11662 1.49835,-0.83898 1.61501,-1.64918 l 2.77676,-19.28285 c 0.15166,-1.05326 0.58861,-1.43035 1.29113,-1.52575 l 6.71283,-0.91166 c 0.78056,-0.10601 1.04613,0.17567 0.94112,0.90485 l -2.82343,19.60693 c -0.11666,0.8102 0.41445,1.37357 1.11696,1.27815 l 9.36674,-1.27207 c 0.78056,-0.10601 1.57641,-0.84958 1.69307,-1.65979 l 7.74692,-53.79751 c 0.11666,-0.81019 -0.49251,-1.36296 -1.27307,-1.25695 l -9.36674,1.27208 c -0.70251,0.0954 -1.4203,0.82837 -1.53697,1.63858 l -2.85842,19.84998 c -0.07,0.48612 -0.41723,0.77159 -0.80751,0.82459 l -7.57145,1.02826 c -0.39029,0.053 -0.58946,-0.15826 -0.51945,-0.64438 l 2.85842,-19.84998 c 0.11667,-0.8102 -0.33639,-1.38415 -1.195,-1.26755 l -9.36676,1.27208 c -0.78056,0.10601 -1.42029,0.82837 -1.53696,1.63858 z m 36.14,-4.9081 c -0.11668,0.8102 0.49249,1.36296 1.195,1.26755 l 22.40215,-3.04239 c 0.70251,-0.0954 1.49835,-0.83897 1.61502,-1.64918 l 1.38837,-9.64143 c 0.11667,-0.81019 -0.4925,-1.36296 -1.195,-1.26755 l -10.84982,1.47349 c -0.46834,0.0636 -0.83528,-0.0454 -0.70695,-0.93665 l 1.09671,-7.61591 c 0.07,-0.48612 0.51861,-0.94423 0.98695,-1.00784 l 10.22537,-1.38869 c 0.78056,-0.10599 1.49835,-0.83897 1.61502,-1.64917 l 1.38837,-9.64141 c 0.12834,-0.89124 -0.41444,-1.37358 -1.195,-1.26757 l -10.38148,1.40989 c -0.46834,0.0636 -0.67918,-0.0666 -0.62084,-0.47173 l 1.13171,-7.85898 c 0.0933,-0.64816 0.46389,-1.09566 1.01028,-1.16988 l 10.92787,-1.48409 c 0.78057,-0.10601 1.40863,-0.74734 1.5253,-1.55756 l 1.40005,-9.72243 c 0.11666,-0.8102 -0.3364,-1.38416 -1.11695,-1.27815 l -22.48021,3.05299 c -0.70251,0.0954 -1.49834,0.83897 -1.61502,1.64918 z"
           id="text2"
           aria-label="the"
           transform="matrix(1.0963202,0,0,1.0963202,-228.16677,-13.818711)" /></g><g
         id="g26"
         transform="matrix(0.94372154,0,0,0.94372154,-539.97825,403.25415)"
         style="display:inline"><g
           id="g8"
           transform="matrix(1.1376672,0,0,1.1376672,1148.5214,-555.30822)"
           style="display:inline"><path
             id="path3"
             style="display:inline;fill:#eae4bf;fill-opacity:1;stroke:none;stroke-width:0.490064;stroke-linecap:square;stroke-linejoin:miter;stroke-dasharray:none;stroke-opacity:1;paint-order:normal"
             d="m -134.23414,376.67876 c -3.91844,0.12942 -8.13495,0.46382 -12.63735,1.00508 -36.01911,4.33 -188.46258,26.9462 -215.81015,32.0131 -5.49844,1.01873 -10.482,2.14678 -14.77628,3.40437 v 25.39628 c 4.29427,-1.25763 9.27791,-2.38613 14.77628,-3.40484 27.34757,-5.0669 179.79104,-27.6831 215.81015,-32.0131 22.49431,-2.70415 37.85231,-0.23955 44.56099,7.10765 0.95373,-2.63172 1.76132,-4.9593 2.391713,-6.90998 5.938592,-18.37633 -6.886333,-27.50448 -34.315353,-26.59856 z m -244.86767,36.92104 c -1.98943,0.62498 -3.81198,1.281 -5.44828,1.97005 v 5.44509 l 5.44828,-2.27419 z m -7.37183,2.83714 c -9.23944,4.47562 -10.74687,10.30259 0,17.98639 z m 7.37183,3.89331 -5.44828,2.28757 v 9.38758 l 5.44828,-2.27467 z m 0,10.99046 -5.44828,2.28757 v 2.1725 c 1.37564,0.89162 3.09244,1.94399 5.34659,3.24729 0.0339,-0.0107 0.0678,-0.0213 0.10169,-0.032 z m -6.13951,4.01554 c 0.0701,0.0468 0.1131,0.0896 0.18421,0.13656 0.0426,0.0281 0.13339,0.0789 0.177,0.10743 z" /><path
             id="path6"
             style="display:inline;fill:#eae4bf;fill-opacity:1;stroke-width:1.85121"
             d="m -126.76203,370.29613 c -4.43003,0.14699 -9.19726,0.52645 -14.28749,1.14121 -40.72188,4.91806 -213.06892,30.60578 -243.98709,36.3608 -4.35958,0.81148 -8.43289,1.684 -12.15187,2.6256 l 19.45156,2.46868 c 4.3089,-1.26772 9.30942,-2.40486 14.82657,-3.4318 27.44065,-5.10772 180.40296,-27.90614 216.54466,-32.27103 4.51772,-0.54562 8.74859,-0.88272 12.68036,-1.01318 3.70675,-0.12299 7.0963,-0.0293 10.26125,0.21275 2.4707,0.18894 4.77026,0.4903 6.89971,0.89958 1.07723,0.20704 2.12466,0.43196 3.11269,0.69503 0.0861,0.0226 0.17725,0.0422 0.26232,0.0655 2.0871,0.57047 3.95715,1.27442 5.63048,2.09711 0.32177,0.1582 0.66894,0.30132 0.97515,0.4688 1.42069,0.77703 2.68357,1.64747 3.76392,2.62319 0.11555,0.10436 0.2205,0.21489 0.33211,0.32152 0.64424,0.61549 1.2227,1.2688 1.73419,1.95946 0.0648,0.0887 0.13077,0.17663 0.19397,0.26616 0.18208,0.2579 0.35406,0.52133 0.5179,0.78937 0.07927,0.12875 0.158363,0.25757 0.232963,0.3889 0.139818,0.24613 0.268844,0.49795 0.393719,0.75231 0.06744,0.13737 0.135447,0.27437 0.199748,0.41345 0.0107,0.0232 0.02284,0.0455 0.03321,0.0688 0.124173,0.27922 0.233557,0.56657 0.340292,0.8553 0.05529,0.14956 0.11739,0.29552 0.167981,0.44763 0.139238,0.41864 0.261369,0.84626 0.36484,1.28416 0.01146,0.0485 0.02267,0.0971 0.03369,0.14584 0.0996,0.44051 0.180571,0.89131 0.244029,1.35106 0.01831,0.13263 0.02898,0.26932 0.04187,0.40479 0.0032,0.0333 0.0065,0.0665 0.01011,0.0996 0.03224,0.29853 0.06065,0.59898 0.07797,0.90536 0.04248,0.75147 0.02154,1.53632 -0.02647,2.33488 -0.05513,0.91695 -0.181694,1.87017 -0.35762,2.84893 -0.02267,0.16851 -0.04021,0.33444 -0.07509,0.50924 -0.231726,1.16159 -0.531925,2.35791 -0.932797,3.60412 -0.632536,1.96639 -1.442875,4.31273 -2.399855,6.96565 -9.3462,25.90918 -35.01011,77.04068 -42.43746,93.31052 -8.18788,17.93572 -42.85886,27.06028 -68.29778,16.79756 -23.58483,-9.51471 -134.89852,-62.35576 -166.99764,-80.97574 l -4.8e-4,-4.8e-4 c -0.0339,-0.0197 -0.0678,-0.0391 -0.10156,-0.0587 h -4.8e-4 c -2.19219,-1.27335 -3.9989,-2.36643 -5.36479,-3.25083 h -4.8e-4 c -0.17684,-0.11451 -0.34633,-0.22561 -0.50827,-0.33307 -0.49531,-0.32867 -0.9688,-0.65403 -1.42085,-0.97612 l -4.9e-4,-4.8e-4 c -10.94276,-7.79713 -9.31215,-13.68089 0,-18.21265 l -20.19038,-2.88021 c -15.1799,5.54486 -19.34094,13.09597 -3.3601,23.70017 22.13945,14.69078 168.903,88.31916 197.56576,99.88245 28.66276,11.56329 67.72737,1.28272 76.95287,-18.92597 9.2255,-20.20869 40.175828,-93.67106 47.848926,-117.52473 6.713961,-20.87196 -7.785526,-31.23944 -38.795786,-30.2105 z m -272.42104,40.64888 c -2.14971,0.57937 -4.1678,1.18394 -6.03959,1.81553 l 20.36943,2.62031 c 1.64188,-0.6946 3.4706,-1.35591 5.46683,-1.98593 v -0.0578 z" /></g><g
           id="g15"
           transform="matrix(-1,0,0,1,736.55454,-516.58664)"
           style="stroke:#ffffff;stroke-opacity:1"><path
             id="path12"
             style="fill:#eae4bf;fill-opacity:1;stroke:none;stroke-linecap:round;stroke-linejoin:round"
             d="m 29.641396,403.77971 c 3.022558,0.0221 6.054281,0.9286 8.760754,2.7286 7.248008,0.17013 14.497844,5.42847 17.133821,15.88862 0.898763,3.56673 0.796731,7.5276 0.796731,7.5276 -0.01275,0.58395 -0.495864,1.04693 -1.079831,1.03493 -0.584721,-0.0117 -1.049159,-0.49512 -1.037119,-1.07983 0,0 0.06385,-3.80427 -0.732663,-6.96524 -2.058679,-8.16929 -6.874247,-12.59605 -12.08074,-13.88995 2.485706,2.58586 4.483031,6.13177 5.620922,10.64717 0.898763,3.56674 0.796731,7.52761 0.796731,7.52761 -0.01276,0.58395 -0.495866,1.04692 -1.07983,1.03492 -0.583948,-0.0128 -1.046969,-0.49587 -1.034929,-1.07983 0,0 0.06221,-3.80371 -0.734307,-6.96468 -1.380356,-5.47757 -4.000499,-9.27305 -7.146484,-11.5693 -0.268608,0.005 -0.536864,0.0179 -0.804397,0.0383 -6.69084,0.51193 -13.08448,5.89293 -14.153883,15.97678 l -0.127039,34.35519 -2.117218,1.25567 c 0,0 0.0068,-1.97466 0.01779,-4.99613 l -6.378775,-2.40279 -0.0345,11.03314 -2.116949,1.1656 0.128681,-43.21813 c 10e-5,-0.0359 0.0022,-0.0716 0.006,-0.10733 1.144583,-10.9233 8.365198,-17.30454 16.103272,-17.8966 0.430441,-0.0329 0.862141,-0.0475 1.293935,-0.0443 z m 0.418352,2.12188 c -0.51838,-0.0185 -1.036373,-0.008 -1.551845,0.0318 -6.690838,0.51193 -13.082836,5.89292 -14.15224,15.97678 l -0.04709,15.3717 6.388084,2.39622 c 0.02925,-7.96885 0.05633,-15.21601 0.05804,-15.23207 1.035932,-9.88639 7.049108,-16.05201 13.918423,-17.57244 -1.500287,-0.59751 -3.058232,-0.91653 -4.613373,-0.97195 z m -15.757201,33.30225 -0.03559,11.71989 6.379871,2.37157 c 0.01216,-3.3503 0.02758,-7.53184 0.04271,-11.66239 z" /></g></g></g></g></svg>
