<?xml version="1.0" encoding="UTF-8" standalone="no"?>
<!-- Created with Inkscape (http://www.inkscape.org/) -->

<svg
   width="2048"
   height="2896.4561"
   viewBox="0 0 541.86665 766.35399"
   version="1.1"
   id="svg1"
   xml:space="preserve"
   sodipodi:docname="icon_TDC_Logo_Diver_alt.svg"
   inkscape:version="1.4.2 (f4327f4, 2025-05-13)"
   xmlns:inkscape="http://www.inkscape.org/namespaces/inkscape"
   xmlns:sodipodi="http://sodipodi.sourceforge.net/DTD/sodipodi-0.dtd"
   xmlns="http://www.w3.org/2000/svg"
   xmlns:svg="http://www.w3.org/2000/svg"><sodipodi:namedview
     id="namedview1"
     pagecolor="#ffffff"
     bordercolor="#000000"
     borderopacity="0.25"
     inkscape:showpageshadow="2"
     inkscape:pageopacity="0.0"
     inkscape:pagecheckerboard="0"
     inkscape:deskcolor="#d1d1d1"
     inkscape:zoom="0.14244884"
     inkscape:cx="-407.16372"
     inkscape:cy="1927.0076"
     inkscape:window-width="2560"
     inkscape:window-height="1369"
     inkscape:window-x="1912"
     inkscape:window-y="-8"
     inkscape:window-maximized="1"
     inkscape:current-layer="svg1" /><defs
     id="defs1" /><g
     id="g21"
     transform="matrix(1.5003278,0,0,1.5003278,725.78203,-19.849754)"
     style="display:inline"><path
       id="path16"
       style="display:inline;fill:#eae4bf;fill-opacity:1;stroke:none;stroke-width:2.11667;stroke-linecap:round;stroke-linejoin:bevel"
       d="m -316.75383,134.86227 -0.14335,0.063 c 0,2.3e-4 -1e-5,4.6e-4 0,6.9e-4 0.004,0.2739 0.0123,0.54886 0.0242,0.8248 0.22822,2.39582 1.16727,9.8179 4.53467,18.04657 0.29663,0.6682 0.51176,1.08714 0.59695,1.19254 0.002,0.0747 0.003,0.1491 0.003,0.22368 0.0174,0.0397 0.0351,0.0794 0.0526,0.11912 0.73547,5.55163 -2.3678,17.86148 -5.30892,24.59026 5.39572,-0.36 10.3338,0.99416 12.62893,7.44813 2.05443,4.6602 2.50556,11.18261 0.73547,18.41777 -0.0789,0.62333 -0.16549,1.26061 -0.26039,1.91276 0.91541,-2.9566 2.19218,-5.36997 3.65377,-7.28885 2.76823,-4.52751 7.10187,-6.29002 10.41007,-5.99729 5.82035,0.0619 8.30617,6.58789 -4.48273,16.3014 0.67368,-0.20398 1.33014,-0.46661 1.96747,-0.78186 2.56573,-2.08025 6.41999,-5.42444 7.87958,-7.79855 0.10596,-0.17625 0.20074,-0.35814 0.30263,-0.53671 1.95739,-3.52937 2.94852,-7.03466 3.35391,-10.49387 0.15031,-1.89735 0.0397,-2.86089 -0.98408,-4.36777 -1.01829,-1.49885 -2.34103,-2.48083 -4.13508,-2.73548 -1.64267,-0.23316 -4.26937,1.88892 -4.96265,0.38158 -0.67677,-1.47145 2.68106,-2.51379 3.43563,-3.43563 -2.11941,-0.5054 -3.13135,-0.23287 -4.58107,0.25416 -2.37535,0.79798 -3.74061,4.4329 -6.23552,4.19949 -4.86769,-0.45539 -8.93214,-5.65444 -10.43431,-10.30689 -2.43184,-7.53176 3.24838,-15.53042 3.94464,-23.41435 0.40301,-4.56341 1.19416,-8.52381 -0.14266,-14.12479 -4.51782,-0.31334 -7.10991,-0.96548 -11.8533,-2.69393 z"
       transform="translate(7.4485447e-6)" /><path
       id="path18"
       style="display:inline;fill:#eae4bf;fill-opacity:1"
       d="m -303.20661,13.231611 c -0.0319,-0.0019 -0.0677,-0.0016 -0.10803,6.92e-4 -0.32292,0.01852 -0.84704,0.379758 -1.27079,0.56995 -0.42375,0.190192 -0.83893,0.366893 -1.27148,0.570643 -0.43255,0.20375 -0.88175,0.435363 -1.32273,0.653053 -0.44098,0.21769 -1.00236,0.434284 -1.32342,0.653053 -0.32106,0.218769 -0.4219,0.383653 -0.63297,0.575491 -0.21107,0.191838 -0.22309,0.02725 -0.63297,0.57549 -0.40988,0.548239 -0.94464,1.951111 -1.41691,2.926621 -0.47227,0.97551 -1.12909,1.984948 -1.41691,2.92662 -0.2878,0.941672 -0.25106,1.752954 -0.37673,2.629527 -0.12567,0.876573 -0.22018,1.995893 -0.37743,2.630219 -0.15725,0.634326 -0.28393,0.793579 -0.42591,1.190454 -0.14198,0.396875 -0.15617,0.606586 -0.4259,1.190455 -0.26973,0.583869 -0.86246,1.499676 -1.29364,2.249329 -0.43118,0.749653 -1.02687,1.66416 -1.29364,2.248636 -0.26677,0.584476 -0.27554,0.79358 -0.41344,1.190455 -0.1379,0.396875 -0.35864,0.866766 -0.41344,1.191147 -0.0547,0.324381 0,0.475515 0,0.713303 0,0.237788 -0.12476,0.218963 0,0.713303 0.12476,0.49434 0.74186,1.376171 1.11289,2.064424 0.37103,0.688253 0.91627,1.279473 1.11289,2.065117 0.19662,0.785644 -0.007,1.675335 -0.01,2.513182 -0.003,0.837847 0.0884,1.40538 -0.0104,2.513874 -0.0988,1.108494 -0.47957,2.734132 -0.71954,4.101147 -0.23997,1.367015 -0.47328,2.75617 -0.72023,4.101147 -0.24695,1.344977 -0.50677,2.645265 -0.76039,3.968182 -0.25362,1.322917 -0.58715,2.831606 -0.76109,3.968874 -0.17394,1.137268 -0.21755,1.895748 -0.32618,2.843518 -0.10863,0.94777 -0.27639,1.606206 -0.32549,2.843517 -0.0491,1.237311 0.10569,3.042775 0.15859,4.564448 0.053,1.521673 0.0233,3.473894 0.15928,4.565141 0.13602,1.091247 0.28614,1.323325 0.42937,1.984783 0.14323,0.661458 0.23018,1.166961 0.43006,1.984091 0.19988,0.81713 0.52943,1.940552 0.79433,2.910692 0.2649,0.97014 0.4932,1.961221 0.79502,2.91 0.30182,0.948779 0.67436,1.852378 1.01178,2.77842 0.33742,0.926042 0.77819,1.957261 1.01248,2.777728 0.23429,0.820467 0.2965,1.4115 0.4446,2.117056 0.1481,0.705556 0.37081,1.184772 0.44391,2.116363 0.0731,0.931591 -0.11543,2.293254 -0.17313,3.439784 -0.0577,1.14653 -0.084,1.96225 -0.17313,3.43978 -0.0891,1.47753 -0.25376,3.6159 -0.38089,5.42388 -0.12713,1.80799 -0.26508,4.03515 -0.38159,5.42387 -0.11651,1.38872 -0.18933,1.94055 -0.28393,2.91069 -0.0946,0.97014 -0.11321,1.73867 -0.28394,2.91 -0.17073,1.17133 -0.53235,2.73414 -0.79848,4.10115 -0.26613,1.36701 -0.66182,3.03689 -0.79779,4.10115 -0.1357,1.06426 -0.0933,1.50317 -0.13989,2.25487 -0.0466,0.7517 -0.32447,1.8407 -0.13989,2.25556 0.18458,0.41486 0.24293,0.19228 0.36426,0.28878 0.12133,0.0965 0.0298,0.11064 0.36358,0.28948 0.33379,0.17884 1.14697,0.36977 1.72024,0.55471 0.57327,0.18494 1.12009,0.39231 1.71954,0.55541 0.59945,0.1631 1.24988,0.27837 1.87468,0.4176 0.6248,0.13923 1.27778,0.31279 1.87398,0.41759 0.5962,0.1048 1.13155,0.14623 1.69738,0.21953 0.56583,0.0733 1.08363,0.17612 1.69808,0.22022 0.61445,0.0441 1.32264,0.0184 1.98409,0.0284 0.66145,0.01 1.35068,0.0908 1.98409,0.0291 0.63341,-0.0617 1.19634,-0.25348 1.79434,-0.38019 0.598,-0.12671 1.26864,-0.1864 1.79364,-0.3802 0.525,-0.1938 0.89249,-0.4857 1.33866,-0.72854 0.44617,-0.24284 0.88607,-0.37411 1.33865,-0.72854 0.29912,-0.23425 0.58109,-0.57272 0.86289,-0.91206 -2.09042,1.84765 -5.34011,3.09709 -11.00426,2.90239 -3.51731,-0.54581 -5.10934,-1.23321 -10.73763,-3.16832 1.73391,-9.65112 3.24202,-21.63642 3.35529,-31.48021 1.19393,-6.482149 -2.23173,-12.267607 -3.70987,-18.365138 -3.97275,-12.511645 0.25917,-25.317158 2.10252,-37.778753 1.0102,-3.542196 -2.13083,-6.104595 -2.24933,-9.380283 1.42683,-4.540615 5.06334,-8.394733 4.7168,-13.493896 1.95158,-5.405306 1.74711,-6.213886 6.66073,-8.995931 0.57869,-0.004 1.13426,-0.693551 2.45016,-0.729231 0.0425,-0.0011 0.0694,-0.01413 0.11358,-0.01385 1.96204,1.318622 0.73868,4.903206 0.93352,7.382342 0.11269,3.32938 -0.70035,7.723769 0.91345,9.721007 0.98484,3.227099 1.06918,7.267625 1.39267,11.499417 -0.15032,2.898682 0.45862,13.699022 0.48892,13.928803 0.21533,3.777374 1.2774,8.287001 1.94808,12.021583 0.50797,1.999609 1.27073,5.614961 1.59143,7.044388 0.58092,1.989103 0.42059,2.769485 1.07134,4.398934 0.2342,2.217668 1.01501,4.729794 1.45569,7.009762 0.7453,2.014372 1.00978,3.290806 1.92869,5.127473 0.48699,1.790792 1.20212,3.406512 2.11636,5.159329 0.86086,2.258497 1.68233,3.730264 2.51388,5.687724 0.51007,1.12118 1.43013,3.33693 1.9093,4.6614 0.79186,1.86207 1.66894,4.32555 2.1039,6.36295 0.59285,1.97381 1.38199,4.58038 1.59004,6.08246 1.01687,3.41241 1.94101,6.72864 2.63783,10.61783 -0.0141,-0.11467 -0.0289,-0.22802 -0.0443,-0.33934 -0.13896,-1.00081 -0.32546,-1.85238 -0.48823,-2.77842 -0.16277,-0.92604 -0.25446,-1.6514 -0.48823,-2.77772 -0.23377,-1.12632 -0.63436,-2.64596 -0.95153,-3.96888 -0.31717,-1.32292 -0.69366,-3.00074 -0.95154,-3.96887 -0.25788,-0.96813 -0.36255,-1.23446 -0.54363,-1.85182 -0.18108,-0.61736 -0.34108,-1.19086 -0.54294,-1.85251 -0.20186,-0.66165 -0.44744,-1.4108 -0.67106,-2.11636 -0.22362,-0.70556 -0.32728,-1.16586 -0.67106,-2.11637 -0.34378,-0.95051 -0.96772,-2.37373 -1.45154,-3.56028 -0.48382,-1.18655 -1.05294,-2.68205 -1.45084,-3.55959 -0.3979,-0.87754 -0.57862,-1.15467 -0.86774,-1.73201 -0.28912,-0.577337 -0.48273,-0.895514 -0.86704,-1.732013 -0.38431,-0.836499 -0.92486,-2.204387 -1.38713,-3.306818 -0.46227,-1.102431 -1.0088,-2.31315 -1.38644,-3.307511 -0.37764,-0.994361 -0.60211,-1.764202 -0.90306,-2.646147 -0.30095,-0.881945 -0.66402,-1.766098 -0.90306,-2.645454 -0.23904,-0.879356 -0.35731,-1.745204 -0.53601,-2.617754 -0.1787,-0.87255 -0.31613,-1.603094 -0.53602,-2.617753 -0.21989,-1.014659 -0.52861,-2.311563 -0.79294,-3.467485 -0.26433,-1.155922 -0.45942,-1.942823 -0.79295,-3.468177 -0.33353,-1.525354 -0.79131,-3.792238 -1.18699,-5.68842 -0.39568,-1.896182 -0.93679,-4.340833 -1.18699,-5.688419 -0.2502,-1.347586 -0.25854,-1.587852 -0.38782,-2.381602 -0.12928,-0.79375 -0.18232,-0.356247 -0.38781,-2.380909 -0.20549,-2.024662 -0.26701,-6.526374 -0.40028,-9.789567 -0.13327,-3.263193 -0.22419,-7.629997 -0.39959,-9.789567 -0.1754,-2.15957 -0.258,-2.119091 -0.38712,-3.178701 -0.12912,-1.05961 -0.19445,-2.386469 -0.38782,-3.1787 -0.19337,-0.792231 -0.3942,-1.05592 -0.59142,-1.58381 -0.19722,-0.52789 -0.3321,-0.155065 -0.59141,-1.583811 -0.25931,-1.428746 -0.007,-4.681577 -0.0111,-7.022227 -0.004,-2.34065 0.36383,-5.767212 -0.0111,-7.021535 -0.3749,-1.254323 -0.30368,-0.465027 -0.45568,-0.697375 -0.152,-0.232348 -0.27315,-0.557568 -0.45637,-0.696683 -0.18322,-0.13912 -0.34758,-0.110324 -0.52148,-0.165514 -0.15216,-0.04829 -0.19066,-0.153185 -0.41413,-0.166206 z m -0.10596,1.1399 c -0.84691,0.361278 -1.69402,0.722419 -2.54088,1.083805 -5.75088,1.901398 -3.46916,8.700015 -4.34422,13.21827 0.13492,3.411718 -2.02341,5.947582 -3.27012,8.489693 6.1088,8.486557 -3.62914,30.74229 7.3678,63.274841 7.22076,30.7539 -3.43469,37.13663 4.02843,36.20602 5.55079,-0.69215 10.33376,-6.45205 12.41009,-12.00773 0.0954,-8.96805 -1.14114,-18.4235 -4.58799,-26.498866 -1.90054,-4.018832 -3.47572,-7.727413 -5.39063,-11.728643 -2.00605,-3.425938 -2.59921,-7.157645 -3.00211,-11.047197 -0.9046,-8.678993 -2.61084,-17.278723 -2.7708,-26.006481 0.0749,-8.535076 3.18308,-16.689065 3.18008,-25.18168 -0.40947,-3.149466 1.45136,-7.563722 -1.07965,-9.802032 z m -7.1912,10.240402 c -0.53,0.742496 -0.48075,1.593653 -0.52355,2.459165 0.20204,1.53417 -0.4703,3.767596 -0.5374,4.351842 0.23571,0.761319 1.05295,-5.01298 1.06095,-6.811007 z m 8.77155,6.637875 c -0.82726,2.905034 -1.21306,5.907632 -1.73824,8.876123 -1.95997,9.176973 -0.34719,18.434166 0.76316,27.599986 0.66693,2.966468 0.52378,5.966632 1.17592,8.790943 0.0527,6.561966 4.48286,11.738921 6.30476,17.691996 4.46172,8.299384 6.13325,17.764234 6.54647,27.093744 -0.7991,5.27371 1.94199,12.20991 6.71682,12.75982 1.48204,0.17068 3.47931,-0.0657 2.93008,-3.38299 -1.42311,-8.45915 -3.30926,-17.01974 -6.65242,-24.94969 -4.24987,-9.226618 -8.46341,-18.568672 -9.85051,-28.728111 -3.13285,-11.301005 -4.51213,-22.962108 -4.52843,-34.679001 -0.36943,-3.561663 0.30678,-8.312549 -1.66761,-11.07282 z m 12.59084,94.496742 c -0.083,0.009 -0.22664,0.22201 -0.50901,0.67937 0.083,-0.0227 0.0436,0.0741 0.10319,0.0741 0.0801,0 0.10585,-0.0927 0.24031,0 0.13446,0.0927 0.17487,0.4607 0.26247,0.69114 0.0876,0.23044 0.0217,0.23267 0.26316,0.69184 0.0404,0.0768 0.0922,0.16413 0.15305,0.2597 -0.0489,-0.14052 -0.0895,-0.27606 -0.1212,-0.40652 -0.29998,-1.23487 -0.22794,-2.00832 -0.39197,-1.98963 z m -1.09835,1.7978 c -0.84968,1.75816 -1.58049,3.71649 -2.86706,5.42111 0.12406,-0.13827 0.24112,-0.27872 0.34626,-0.42175 0.36145,-0.49171 0.5827,-0.99983 0.87397,-1.50002 0.29127,-0.50019 0.62594,-0.99522 0.87328,-1.5007 0.24734,-0.50548 0.40869,-1.01436 0.61289,-1.52148 0.0566,-0.14068 0.10901,-0.30667 0.16066,-0.47716 z m -24.4199,52.53582 c -0.78971,0.0117 -1.62704,0.089 -2.51456,0.23823 -0.11658,0.17643 -0.27393,0.48434 -0.39059,0.81857 -0.11666,0.33423 -0.81506,3.08684 -1.22231,4.63024 -0.40725,1.5434 -0.88772,3.17936 -1.22162,4.62954 -0.3339,1.45018 -0.53364,2.7084 -0.80056,4.06237 -0.26692,1.35397 -0.48734,2.98342 -0.80056,4.06167 -0.31322,1.07825 -0.62752,1.61359 -0.94115,2.42038 -0.31363,0.80679 -0.66791,1.66346 -0.94045,2.42039 -0.27254,0.75693 -0.46874,1.4115 -0.70291,2.11705 -0.23417,0.70555 -0.4872,0.81419 -0.70223,2.11637 -0.21503,1.30218 -0.0265,3.79224 -0.0395,5.68842 -0.013,1.89618 -0.002,3.63774 -0.0388,5.68842 -0.0372,2.05068 -0.1298,4.41016 -0.1946,6.61502 -0.0648,2.20486 -0.21911,4.63136 -0.19391,6.61433 0.0252,1.98297 0.19228,3.51579 0.28878,5.27359 0.0965,1.7578 0.32048,3.61562 0.28948,5.2736 -0.031,1.65798 -0.28612,3.09875 -0.42937,4.64824 -0.14325,1.54949 -0.35656,3.14438 -0.43006,4.64825 -0.0735,1.50387 -0.0155,2.91048 -0.0235,4.36569 -0.008,1.45521 -0.15609,3.08122 -0.0242,4.36569 0.13185,1.28447 0.46992,2.20508 0.70499,3.30751 0.23507,1.10243 0.52025,2.31373 0.705,3.30682 0.18475,0.99309 0.28073,1.76421 0.42105,2.64615 0.14032,0.88194 0.30469,1.89571 0.42106,2.64545 0.11637,0.74974 0.18707,1.23515 0.28047,1.85251 0.0935,0.61736 0.17266,1.23429 0.28048,1.85182 0.10782,0.61753 0.24411,1.23515 0.36634,1.85251 0.12223,0.61736 0.23729,1.14641 0.36704,1.85182 0.12975,0.70541 0.26952,1.58785 0.40444,2.3816 0.13492,0.79375 0.34673,1.69101 0.40513,2.38091 0.0584,0.6899 4.2e-4,1.15934 6.9e-4,1.73894 2.7e-4,0.5796 -0.0825,1.23767 6.9e-4,1.73893 0.0832,0.50126 0.28161,0.82635 0.42244,1.23963 0.14083,0.41328 0.50525,0.82248 0.42245,1.23962 -0.0829,0.41714 -0.54614,0.62247 -0.81926,0.93353 -0.27312,0.31106 -0.73306,0.70389 -0.81926,0.93283 -0.0862,0.22906 0,0.15116 0,0.22646 0,0.0754 -0.0538,0.0763 0,0.22576 0.0538,0.14941 0.30897,0.37358 0.4633,0.56026 0.15433,0.18668 0.0118,0.28749 0.46261,0.55956 0.45083,0.27207 1.58785,0.33208 2.3816,0.49793 0.79375,0.16585 1.86454,0.47883 2.38091,0.49723 0.51637,0.0184 0.44209,-0.0595 0.66136,-0.0893 0.21927,-0.0299 0.29815,-0.0479 0.65444,-0.0893 0.35629,-0.0414 0.98975,-0.0951 1.48478,-0.14266 0.49503,-0.0476 0.99339,-0.013 1.48547,-0.14335 0.49208,-0.13034 0.95012,-0.42664 1.42522,-0.6399 0.4751,-0.21326 0.98292,-0.50884 1.42522,-0.6392 0.4423,-0.13034 0.79359,-0.12164 1.19046,-0.18214 0.39687,-0.0605 0.58953,0.12524 1.19045,-0.18144 0.60092,-0.30668 1.33109,-1.34999 1.99656,-2.02495 0.66547,-0.67496 1.45842,-1.27934 1.99655,-2.02495 0.53813,-0.74561 0.81019,-1.58716 1.21539,-2.38091 0.4052,-0.79375 0.79756,-1.4161 1.21608,-2.3816 0.41852,-0.9655 0.82251,-2.28236 1.23408,-3.42385 0.41157,-1.14149 0.87122,-2.48516 1.23478,-3.42455 0.36356,-0.93939 0.61324,-1.4807 0.91967,-2.22094 0.30643,-0.74024 0.61621,-1.5576 0.91899,-2.22093 0.30278,-0.66333 0.5882,-1.17547 0.88228,-1.76318 0.29408,-0.58771 0.56733,-1.03033 0.88228,-1.76317 0.31495,-0.73284 0.63937,-1.76352 0.95915,-2.64546 0.31978,-0.88194 0.67078,-1.76367 0.95984,-2.64614 0.28906,-0.88247 0.51703,-1.76352 0.77563,-2.64546 0.2586,-0.88194 0.55829,-1.82962 0.77563,-2.64615 0.21734,-0.81653 0.35926,-1.49898 0.53879,-2.24863 0.17953,-0.74965 0.37878,-1.47737 0.53878,-2.24933 0.16,-0.77196 0.27832,-1.58716 0.4176,-2.38091 0.13928,-0.79375 0.27579,-1.3678 0.41759,-2.3816 0.1418,-1.0138 0.2587,-2.46892 0.38782,-3.70364 0.12912,-1.23472 0.23047,-2.05099 0.38712,-3.70433 0.15665,-1.65334 0.35233,-4.14563 0.5284,-6.2182 0.17607,-2.07257 0.4689,-4.83289 0.5277,-6.21751 0.0588,-1.38462 5.8e-4,-1.38311 7e-4,-2.07481 1.2e-4,-0.6917 0.0844,-1.27609 0,-2.07551 -0.0844,-0.79942 -0.38271,-1.7912 -0.57411,-2.687 -0.1914,-0.8958 -0.46563,-1.66215 -0.5741,-2.6877 -0.10847,-1.02555 -4.2e-4,-2.29326 -7e-4,-3.43979 -2.8e-4,-1.14653 -0.0907,-2.48845 -6.9e-4,-3.43909 0.09,-0.95064 0.28663,-1.49968 0.43006,-2.24933 0.14343,-0.74965 0.30179,-1.62196 0.43006,-2.24863 0.12827,-0.62667 0.22039,-1.00826 0.33034,-1.51248 0.10995,-0.50422 0.31354,-1.06893 0.32964,-1.51317 0.0161,-0.44424 -0.0202,-0.61675 -0.0132,-0.85597 -0.34581,-0.0148 -1.26613,1.22611 -1.7334,1.61982 -0.46727,0.39371 -0.81112,0.78276 -1.40167,1.25417 -0.59055,0.47141 -1.43625,1.08535 -2.15445,1.62813 -0.7182,0.54278 -1.81584,1.54163 -2.15446,1.62813 -0.33905,0.0864 -0.066,-0.27826 -0.3421,-0.7313 22.91369,-13.64177 -1.38217,-26.97494 -8.77294,-3.36984 -0.108,1.19763 -0.19102,0.35087 -0.45776,0.49377 -0.0387,-0.0176 -0.0735,-0.0207 -0.10388,-0.0138 0.19436,-0.53756 0.56236,-1.98692 1.10943,-5.50698 1.17402,-7.55419 0.0513,-22.13357 -11.79444,-21.95866 z m -0.8982,0.60666 h 6.9e-4 c 2.16942,0.29574 5.94845,0.74166 6.7563,2.03741 0.20349,0.11378 2.76002,2.17417 2.52218,2.51595 3.90558,5.77577 3.41684,13.15716 2.05334,19.67678 -1.5221,3.02476 0.95967,4.87409 2.03534,1.2334 0.55114,-6.22194 8.02882,-13.38725 14.58047,-10.8339 4.58815,2.95009 0.22848,8.8335 -3.25834,11.19955 -1.18234,1.35022 -4.39005,2.97084 -4.35115,4.38647 -0.0792,3.27745 4.15094,-1.83063 5.71058,-2.49241 3.02841,-1.45749 0.42854,2.32338 1.1212,3.82483 -0.50601,0.84964 -0.4133,5.42138 -0.509,6.51322 0.003,0.01 0.0467,0.30487 0.0547,0.34557 0.10813,0.53823 0.59325,3.34613 0.71953,4.57068 5.6e-4,-10e-4 10e-4,-0.003 0.002,-0.003 3.4e-4,-3e-4 0.002,-0.001 0.002,-0.001 7.5e-4,-7e-5 0.003,-4.6e-4 0.003,0 0.10841,0.0882 0.80839,4.12724 0.44876,5.68288 -0.0736,1.8508 -0.23771,4.71807 -0.4266,5.74035 -0.48491,5.72282 -1.01571,13.02953 -1.76387,17.02302 -0.74816,3.99349 -1.13836,5.71104 -1.83589,7.92044 -0.69753,2.2094 -1.16435,3.64529 -1.76317,5.46819 -0.59882,1.8229 -1.36974,3.57104 -1.95708,4.93911 -0.58734,1.36807 -1.25399,2.75732 -1.87537,4.01666 -0.62138,1.25934 -1.19026,2.81704 -1.71816,4.26804 -0.5279,1.451 -0.97052,3.44696 -1.59281,4.94465 -0.62229,1.49769 -1.19945,2.09296 -1.48963,2.64545 -0.29018,0.55249 -0.47532,1.24153 -1.02424,2.25002 -0.54892,1.00849 -1.00238,2.1558 -3.41209,3.36499 -2.40971,1.20919 -6.27709,2.73104 -9.77848,2.49033 -3.32237,0.002 -6.09193,-1.16383 -3.7078,-4.21333 -1.22907,-9.5401 -2.69631,-19.13259 -4.67455,-28.6 -0.80879,-9.56807 1.06034,-19.13264 0.41136,-28.73296 0.38514,-9.07554 -1.0302,-18.32204 0.81856,-27.25857 2.40295,-5.39899 3.46377,-11.1901 4.73066,-16.93991 1.01982,-2.49903 0.7645,-6.87188 3.16693,-7.98207 z m 6.13579,2.19323 c -3.25358,5.92386 -0.18066,13.00515 -4.28467,18.63037 -4.06308,3.32874 -6.94789,8.08346 -6.91419,13.45581 1.68931,5.97602 1.32856,12.2155 0.71815,18.36444 0.4021,5.26418 -3.54063,11.18475 -0.0838,15.84295 0.8222,5.43052 -0.1608,11.27752 0.85735,16.8208 0.99739,5.8903 0.56297,12.31963 2.4377,17.87621 1.09754,2.40145 6.36866,3.33048 5.347,5.75005 0.13416,3.75506 3.26599,2.35151 6.20574,0.38089 2.93975,-1.97062 2.09428,-4.77152 6.60186,-13.60678 4.50758,-8.83526 9.43545,-28.02751 10.23694,-42.73794 0.80303,-4.89958 -0.30218,-9.63639 -0.66344,-14.44681 -0.116,-1.54553 -0.15832,-3.09844 -0.0319,-4.66694 0.63193,-3.58636 -0.78334,-2.61172 -1.68215,-0.7971 0.7299,-1.85856 1.29242,-2.68448 -0.7417,-0.10458 -1.36982,1.31782 0.0785,7.26347 0.1579,6.02569 -0.57975,-1.11472 -0.40525,-2.59122 -0.0464,-3.96195 0.084,-0.66368 0.3273,-1.34907 0.6295,-1.95916 -0.22683,0.57757 -0.44303,1.24689 -0.6295,1.95916 -0.0439,0.3433 -0.057,0.67987 -0.002,0.98061 0.51963,1.37524 0.69046,2.76798 0.63366,4.14963 -0.10953,2.66196 -1.11643,5.28112 -2.46955,7.64342 -0.69368,6.14076 -2.3191,12.25745 -2.80197,18.3409 -0.22451,2.74721 1.74489,7.18304 -0.23476,8.81933 -1.21489,-4.03838 -4.51485,-2.80712 -4.24312,1.13783 -0.24791,6.2702 -0.76816,12.52923 -3.00626,18.44269 -1.59576,3.14134 -2.00426,7.12892 -3.85045,10.0001 -2.79266,3.05512 -5.18019,-1.50033 -7.56863,-2.74864 -0.96029,-7.12958 -1.80347,-14.32776 -1.49309,-21.53414 -0.29497,-10.46959 0.69952,-21.78353 2.6129,-32.57441 0.003,-0.0428 0.0319,-0.37308 0.0339,-0.40236 0.03,-0.51293 0.10734,-0.67126 0.18144,-0.87051 0.14656,-0.79298 0.31375,-1.56993 0.47023,-2.35597 0.0456,-0.44774 0.074,-0.7295 0.18767,-1.83589 0.0871,-0.84753 0.17911,-0.67786 0.2874,-0.5007 0.47569,-2.2285 0.97709,-4.43277 1.52771,-6.57763 1.92568,-3.36217 -2.09121,-3.57418 -3.74934,-4.91625 1.04147,-3.73809 5.02431,-6.10907 6.68912,-9.65729 2.93082,-3.32703 -0.0686,-7.0104 -0.0886,-10.65315 0.2899,-2.9083 3.05987,-6.54666 -1.23062,-7.71268 z m -3.14823,39.517 c -0.16509,0.7734 -0.31952,1.55523 -0.47507,2.33659 -0.0227,0.22293 -0.0339,0.46133 -0.0935,0.91413 -0.11169,0.84941 -0.254,1.11178 -0.37673,1.44184 -0.0779,0.42127 -0.14038,0.84988 -0.21538,1.27287 -0.13113,1.93173 -1.42274,16.90037 -1.73547,18.65599 -0.23096,1.29658 -0.31568,4.14419 -0.36288,4.20572 l -7e-4,6.9e-4 -6.9e-4,7e-4 -6.9e-4,-7e-4 c -0.0165,-0.0221 -0.029,-0.42223 -0.0415,-1.40583 -0.16222,6.56245 -0.22499,13.13558 -0.0256,19.69271 0.23001,1.66061 0.37735,4.8036 0.6856,7.53609 0.61306,1.50651 -0.40462,4.79736 1.6496,5.9405 1.24802,0.7291 1.2137,0.99106 2.38161,2.06234 0.60165,0.71358 2.38361,1.35408 3.52288,-0.38781 2.36105,-6.98713 4.44357,-14.56434 4.72996,-22.10409 -0.31157,-6.36809 4.00004,-11.85809 3.24242,-18.20239 0.14959,-2.91307 0.75868,-8.58247 -3.0866,-4.37539 -5.30612,2.40242 -9.01284,-3.623 -8.89482,-8.27293 -0.55405,-3.08495 0.20084,-8.54195 -0.5284,-9.72239 l 0.26316,-0.0845 c -0.13162,-0.21321 -0.1723,-0.35091 -0.2223,-0.49377 0.003,0.16607 0.007,0.33784 -0.0499,0.6205 -0.14362,0.7148 -0.26149,0.53838 -0.36496,0.36912 z m 0.1946,-27.45456 c -0.0378,0.003 -0.0775,0.011 -0.11912,0.0242 -1.35108,0.42956 -4.63627,6.4131 -6.68219,12.62616 2.55287,-4.29817 6.55708,-7.76176 7.27846,-11.85399 -0.0424,-0.56641 -0.21254,-0.81419 -0.47715,-0.79641 z m 18.47178,7.96545 c -1.23783,0.17355 -2.36749,0.39652 -3.37745,1.18699 -2.93444,1.10774 -4.77284,4.07667 -7.5998,4.98205 -2.89327,2.85635 -5.80427,6.83919 -5.28883,11.08667 -0.28883,3.51298 0.0587,7.15947 3.39408,9.13651 1.70388,-0.0819 3.85458,1.41502 5.61085,1.49032 0.65415,0.0281 1.25797,-0.12661 1.75764,-0.65444 -0.0573,-0.28725 -0.0623,-0.61129 -0.10527,-0.91413 -0.43116,-3.0346 -0.0751,-6.64432 3.46264,-7.27154 4.22605,0.90411 5.65506,-0.71742 1.96331,-3.5866 -1.49349,-2.97782 -2.45329,-7.01401 -0.60111,-9.80203 0.15116,-1.2224 4.01714,-5.21937 0.78394,-5.6538 z m -11.40177,5.61501 c -2.20255,1.7829 -3.45,4.11272 -4.68287,6.60672 1.24168,-2.32756 2.72642,-4.98271 4.68287,-6.60672 z m -15.47522,9.54303 c 0.077,0.4835 0.17539,0.94696 0.33172,1.35251 0.87006,7.82605 -0.10893,15.88169 -1.61012,23.60202 -0.44958,1.39535 -0.23605,2.61216 0.14889,3.79367 -0.19367,-0.66508 -0.29367,-1.35359 -0.17174,-2.09697 1.20611,-8.30282 2.7678,-16.86508 1.72785,-25.27171 -0.18217,-0.47558 -0.29815,-0.9251 -0.4266,-1.37952 z m 26.75372,4.21542 c 0.28899,0.23774 0.85393,0.30277 1.34143,0.46053 0.0456,0.0148 0.0787,0.0409 0.12257,0.0575 -0.034,-0.0267 -0.0562,-0.0588 -0.0942,-0.0838 -0.31884,-0.20958 -0.73039,-0.3758 -1.36982,-0.43421 z m 1.95154,2.09905 c -0.65857,1.19507 -1.12035,2.47407 -1.48962,3.79228 0.46254,-1.17665 1.2763,-2.59941 1.48962,-3.79228 z m -4.23342,1.60389 c -0.0327,0.10126 -0.0128,0.1406 -0.0367,0.232 -0.9333,3.56651 4.41224,-0.13142 0.2223,-0.21122 -0.0774,-0.001 -0.1015,-0.0218 -0.1856,-0.0208 z m -8.25838,7.40797 c -0.0756,3.50753 4.51578,1.53432 0,0 z m -8.74524,5.58869 c 0.27561,-0.007 0.70894,0.35241 1.05541,0.5097 0.36957,0.16778 0.79763,0.43477 1.10874,0.50347 0.31111,0.0687 0.46259,0.004 0.69391,0.006 0.23132,0.002 0.35506,-0.0669 0.69391,0.006 0.33885,0.0731 0.84552,0.37337 1.26802,0.56026 0.4225,0.18689 0.70178,0.45843 1.26733,0.56095 0.56555,0.10252 1.37248,-0.0794 2.05888,-0.11912 0.6864,-0.0397 1.53107,0.0567 2.05958,-0.11911 0.52851,-0.17586 0.71086,-0.47104 1.06649,-0.70638 0.35563,-0.23534 0.81986,-0.63129 1.06718,-0.70569 0.2473,-0.0744 0.17999,0 0.27009,0 0.0901,0 -0.32311,-0.59389 0.27078,0 0.59389,0.59389 0,3.17905 0,4.76875 0,1.5897 0.18179,3.74519 0,4.76943 -0.18179,1.02424 -0.33801,0.92147 -0.50693,1.38229 -0.16892,0.46082 -0.33236,0.91477 -0.50693,1.38228 -0.17457,0.46751 -0.36055,0.94831 -0.54087,1.42245 -0.18032,0.47414 -0.37537,0.84928 -0.54086,1.42245 -0.16549,0.57317 -0.27112,1.34496 -0.40652,2.01734 -0.1354,0.67239 -0.22116,0.77909 -0.40582,2.01664 -0.18466,1.23755 -0.35426,3.61658 -0.53116,5.42456 -0.1769,1.80799 -0.34539,4.23673 -0.53048,5.42388 -0.18509,1.18715 -0.24654,1.14628 -0.36981,1.71954 -0.12327,0.57326 -0.23867,1.1242 -0.36981,1.71955 -0.13114,0.59535 -0.27836,1.23515 -0.41759,1.85251 -0.13923,0.61736 -0.25571,1.23404 -0.4176,1.85182 -0.16189,0.61778 -0.36927,1.23515 -0.55402,1.85251 -0.18475,0.61736 -0.40494,1.26083 -0.55471,1.85182 -0.14977,0.59099 -0.23444,1.12557 -0.35181,1.68838 -0.11737,0.56281 -0.17568,1.29496 -0.35249,1.68838 -0.17681,0.39342 -0.34292,0.46228 -0.51455,0.69322 -0.17163,0.23094 -0.29186,0.56297 -0.51524,0.69253 -0.22338,0.1296 -0.45363,0.0545 -0.68145,0.0817 -0.22782,0.0272 -0.26899,0.21125 -0.6856,0.0817 -0.41661,-0.12954 -0.96486,-0.84872 -1.44738,-1.27286 -0.48252,-0.42414 -1.08982,-0.96586 -1.44739,-1.27217 -0.35757,-0.30631 -0.45933,-0.38373 -0.68906,-0.57549 -0.22973,-0.19176 -0.53548,-0.24723 -0.68907,-0.5755 -0.15359,-0.32827 0,-0.85072 0,-1.27632 0,-0.4256 0.0451,-0.5514 0,-1.27702 -0.0451,-0.72562 -0.25495,-2.04115 -0.38227,-3.06167 -0.12732,-1.02052 -0.24649,-1.49685 -0.38158,-3.06166 -0.13509,-1.56481 -0.20374,-4.22071 -0.30541,-6.33109 -0.10167,-2.11038 -0.30571,-4.28127 -0.30471,-6.33108 10e-4,-2.04981 0.19622,-3.96859 0.29432,-5.95297 0.0981,-1.98438 0.12286,-4.23783 0.29433,-5.95296 0.17147,-1.71513 0.43636,-2.88826 0.65444,-4.33245 0.21808,-1.44419 0.32534,-3.59808 0.65443,-4.33245 0.14913,-0.33277 0.20213,-0.41117 0.22438,-0.4079 3.7e-4,1e-4 0.002,5.4e-4 0.002,6.9e-4 3.3e-4,1.9e-4 0.002,4.6e-4 0.002,6.9e-4 0.0132,0.0122 0.0128,0.0636 0.0256,0.0769 l 6.9e-4,7e-4 c 3.3e-4,2.2e-4 0.002,0.001 0.002,0.001 3.6e-4,1.4e-4 0.002,6e-4 0.002,6.9e-4 0.006,6e-4 0.0145,-0.004 0.0256,-0.0173 0.0951,-0.1146 0.015,-0.28129 0.28532,-0.34349 0.0169,-0.004 0.035,-0.006 0.0533,-0.007 z m 17.80696,0.28324 c -0.55067,1.57093 -0.80079,3.17699 -0.93699,4.79506 0.33759,-1.58151 0.63512,-3.18985 0.93699,-4.79506 z m -1.03256,6.40796 c -0.0627,2.90668 0.26322,5.84799 0.61635,8.75493 0.0135,-1.92165 -0.62535,-5.75166 -0.61635,-8.75493 z m -25.06257,2.03603 c 0.45295,1.15152 0.99902,2.29428 1.27564,3.54366 -0.41581,7.44337 0.77325,14.8131 0.94945,22.22528 0.97256,2.72124 0.56119,6.05832 1.40514,8.80688 -1.32574,-9.52714 -2.36145,-19.11051 -2.2611,-28.75513 0.64023,-2.24597 -0.60465,-3.97905 -1.36913,-5.82069 z m 5.50005,13.81592 -0.005,0.29571 c -0.12624,5.7038 0.0653,4.90803 0.005,-0.29571 z m -0.35457,23.37834 c 0.17878,0.18598 0.31992,0.3889 0.53325,0.55887 3.32665,2.35113 6.0054,11.02074 4.0028,3.65447 -0.95743,-1.57436 -3.03368,-2.68266 -4.53605,-4.21334 z"
       transform="translate(7.4485447e-6)" /><path
       style="fill:#eae4bf;fill-opacity:1;stroke:none;stroke-width:2.11667;stroke-linecap:round;stroke-linejoin:bevel"
       d="m -312.1118,221.61567 c 0,0 -2.37999,10.82101 -2.06234,16.91325 1.99549,2.90398 11.57076,1.91127 11.57076,1.91127 0,0 -5.56391,0.90317 -7.90236,-3.72937 -1.59974,-1.97443 -1.60606,-15.09515 -1.60606,-15.09515 z"
       id="path21" /></g></svg>
