<?xml version="1.0" encoding="UTF-8" standalone="no"?>
<!-- Created with Inkscape (http://www.inkscape.org/) -->

<svg
   width="2048"
   height="4095.9998"
   viewBox="0 0 541.86665 1083.7333"
   version="1.1"
   id="svg1"
   xml:space="preserve"
   sodipodi:docname="Mask_rect.svg"
   inkscape:version="1.4.2 (f4327f4, 2025-05-13)"
   xmlns:inkscape="http://www.inkscape.org/namespaces/inkscape"
   xmlns:sodipodi="http://sodipodi.sourceforge.net/DTD/sodipodi-0.dtd"
   xmlns="http://www.w3.org/2000/svg"
   xmlns:svg="http://www.w3.org/2000/svg"><sodipodi:namedview
     id="namedview1"
     pagecolor="#ffffff"
     bordercolor="#000000"
     borderopacity="0.25"
     inkscape:showpageshadow="2"
     inkscape:pageopacity="0.0"
     inkscape:pagecheckerboard="0"
     inkscape:deskcolor="#d1d1d1"
     inkscape:zoom="0.050365825"
     inkscape:cx="-953.02718"
     inkscape:cy="-6006.0567"
     inkscape:window-width="2560"
     inkscape:window-height="1369"
     inkscape:window-x="1912"
     inkscape:window-y="-8"
     inkscape:window-maximized="1"
     inkscape:current-layer="svg1" /><defs
     id="defs1" /><g
     id="g11"
     transform="matrix(2.5803163,0,0,2.5803163,0,317.37946)"
     style="display:inline"><rect
       style="fill:#ffffff;fill-opacity:1;stroke:none;stroke-width:3.18772;stroke-linecap:round;stroke-linejoin:round;stroke-opacity:1"
       id="rect8"
       width="210.00009"
       height="2050.7822"
       x="7.3913575e-06"
       y="-1753.7822" /><path
       id="path8"
       style="fill:#000000;fill-opacity:1;stroke:none;stroke-width:1.21311;stroke-linecap:round;stroke-linejoin:round;stroke-opacity:1"
       d="m 0,210.0156 v 86.98436 H 210.0001 V 210.0156 h -36.00762 c -4.93714,12.47876 -15.23643,33.04585 -18.38802,39.9495 -3.76133,8.23926 -19.68827,12.43078 -31.37432,7.71633 -10.83432,-4.37084 -61.969106,-28.64466 -76.714694,-37.19825 h -5.17e-4 c -0.01557,-0.009 -0.031,-0.0179 -0.04651,-0.0269 -1.007041,-0.58495 -1.836991,-1.08718 -2.464449,-1.49345 h -5.16e-4 c -0.08124,-0.0526 -0.159188,-0.10356 -0.233578,-0.15296 -0.227534,-0.15098 -0.445012,-0.30059 -0.652673,-0.44855 -5.010148,-3.56992 -4.282565,-6.26676 -0.04237,-8.34575 z" /></g></svg>
