<?xml version="1.0" encoding="UTF-8" standalone="no"?>
<!-- Created with Inkscape (http://www.inkscape.org/) -->

<svg
   width="512"
   height="512"
   viewBox="0 0 135.46666 135.46667"
   version="1.1"
   id="svg1"
   xml:space="preserve"
   inkscape:version="1.4.2 (f4327f4, 2025-05-13)"
   sodipodi:docname="icon_player.svg"
   xmlns:inkscape="http://www.inkscape.org/namespaces/inkscape"
   xmlns:sodipodi="http://sodipodi.sourceforge.net/DTD/sodipodi-0.dtd"
   xmlns="http://www.w3.org/2000/svg"
   xmlns:svg="http://www.w3.org/2000/svg"><sodipodi:namedview
     id="namedview1"
     pagecolor="#ffffff"
     bordercolor="#000000"
     borderopacity="0.25"
     inkscape:showpageshadow="2"
     inkscape:pageopacity="0.0"
     inkscape:pagecheckerboard="true"
     inkscape:deskcolor="#d1d1d1"
     inkscape:document-units="mm"
     inkscape:zoom="1.4702524"
     inkscape:cx="138.75169"
     inkscape:cy="301.64889"
     inkscape:window-width="2560"
     inkscape:window-height="1369"
     inkscape:window-x="1912"
     inkscape:window-y="-8"
     inkscape:window-maximized="1"
     inkscape:current-layer="layer1" /><defs
     id="defs1" /><g
     inkscape:label="Layer 1"
     inkscape:groupmode="layer"
     id="layer1"><path
       id="rect1"
       style="fill:#eae4bf;fill-opacity:1;stroke-width:4.23333;stroke-linejoin:round;paint-order:markers fill stroke"
       d="M 30.419849 0.00051676432 C 30.396036 0.0012395058 30.372832 0.0030324276 30.350085 0.0056844076 C 29.73776 0.077071248 29.392828 0.36561092 29.321208 0.86713053 C 29.238645 1.4448546 30.256625 2.4971897 33.669263 5.3619466 C 36.119907 7.4191635 38.347257 9.3056357 38.619348 9.5539388 C 39.030779 9.9293972 38.306443 11.574441 34.314701 19.327502 C 29.233088 29.197422 28.838352 30.40367 30.075684 32.292086 C 31.30232 34.164178 31.825789 34.289194 40.117448 34.692456 C 44.401973 34.900831 49.246208 35.168252 50.882166 35.286735 L 53.856661 35.502226 L 46.987313 49.237821 L 40.117448 62.9729 L 40.117448 71.670561 C 40.117448 76.454305 40.259281 80.368221 40.432157 80.368221 C 40.877468 80.368221 52.160708 75.610061 52.708411 75.191276 C 52.957509 75.000812 53.161613 74.452696 53.161613 73.973779 C 53.161613 73.121656 53.184944 73.115228 54.255603 73.668888 C 55.317059 74.217791 55.478764 74.180267 59.687313 72.41005 C 64.199026 70.51232 64.626203 70.399755 65.410994 70.897481 C 65.720279 71.093632 61.085416 73.20037 52.072274 76.960677 C 36.803236 83.330949 36.170842 83.70717 35.409208 86.882035 C 34.650751 90.04362 36.549829 93.580635 39.485962 94.47537 C 40.132345 94.672344 41.313492 94.780822 42.110608 94.716182 C 42.971841 94.64634 51.866276 91.124903 64.031234 86.038159 C 86.309079 76.722739 86.354709 76.698182 87.220516 73.482853 C 87.715016 71.646391 87.436327 70.116559 86.281038 68.328129 C 85.155958 66.586489 83.465885 65.767514 79.430294 65.008952 C 77.63677 64.671828 75.317719 64.229095 74.27712 64.025033 L 72.385246 63.653996 L 76.390686 55.65035 L 80.39561 47.646187 L 82.136072 49.42334 C 83.093164 50.400967 89.19906 56.907605 95.704753 63.882406 C 102.21046 70.857209 108.0415 76.930876 108.66262 77.379256 C 110.44286 78.664415 112.35801 78.492355 113.94602 76.90435 C 115.21161 75.638751 115.22312 75.601373 114.54391 74.952014 C 114.16307 74.587899 103.66081 65.749697 91.205802 55.311869 L 62.946545 31.629594 L 57.332935 26.924972 L 49.293632 26.557035 C 44.871836 26.354675 41.152542 26.087898 41.02902 25.964307 C 40.787097 25.722376 45.577637 15.873966 45.937248 15.873966 C 46.133528 15.873966 64.804989 31.484015 104.54762 64.87511 C 112.58306 71.626347 119.39037 77.239596 119.67487 77.348767 C 121.81034 78.168224 117.35858 74.079572 97.297937 56.7955 C 42.79109 9.8329192 46.896459 13.456576 46.757353 12.185819 C 46.506091 9.8906647 44.34381 8.0410354 42.267704 8.3457438 C 41.402089 8.4727896 40.518718 7.8627733 36.261869 4.1966431 C 32.440427 0.90550135 31.158025 -0.021888221 30.419849 0.00051676432 z M 77.782332 14.261145 C 75.41584 14.25418 74.723343 14.412981 72.63846 15.439368 C 68.393539 17.529133 65.843009 21.475242 65.843009 25.952938 L 65.843009 28.032914 L 71.730505 33.154565 C 76.971752 37.713851 77.76742 38.279612 78.973474 38.307222 C 82.183903 38.380726 86.426816 35.716132 88.287634 32.457967 C 92.961364 24.274552 87.1964 14.288845 77.782332 14.261145 z M 83.067798 38.833289 C 83.01074 38.833858 82.956686 38.84126 82.903467 38.853442 C 82.388042 38.971426 81.430593 39.170719 80.775431 39.296309 C 80.120257 39.421895 79.630779 39.640174 79.688159 39.781551 C 79.745483 39.922927 85.743855 45.188465 93.017578 51.482646 C 100.2913 57.776825 106.30329 62.937963 106.37749 62.951713 C 106.68578 63.008843 105.00463 61.173144 94.679492 50.179366 C 85.446583 40.348532 83.923664 38.824743 83.067798 38.833289 z M 82.642501 79.643717 L 72.340287 83.938029 L 62.03859 88.23234 L 61.939889 94.363232 C 61.844071 100.30975 61.816779 100.50462 61.034001 100.84811 C 59.869961 101.35889 59.752157 103.01427 60.839181 103.58696 C 61.2995 103.82948 61.780249 104.18753 61.907332 104.38226 C 62.034346 104.57698 62.257284 108.30935 62.402909 112.67633 C 62.644982 119.9355 62.613771 120.67579 62.037557 121.31249 C 61.347791 122.07469 61.530901 123.12323 62.353817 123.12323 C 62.773656 123.12323 62.923238 124.30033 63.136198 129.28255 L 63.399231 135.44238 L 67.119417 135.44238 C 71.457281 135.44238 71.278337 135.61206 71.278337 131.48138 C 71.278337 126.86805 71.690787 123.12323 72.198694 123.12323 C 73.029799 123.12323 73.177597 121.8962 72.420386 121.28304 C 71.738151 120.7306 71.720478 120.44025 72.02041 114.75785 C 72.193053 111.48705 72.341906 107.71074 72.350106 106.3656 C 72.361582 104.56617 72.49436 103.91976 72.852917 103.91976 C 73.120955 103.91976 73.635307 103.59381 73.996 103.19525 C 74.646834 102.4756 75.111954 102.47023 135.46667 102.47023 L 135.46667 79.643717 L 82.642501 79.643717 z M 53.19727 92.233647 L 52.364246 92.420715 C 51.906009 92.523386 49.7375 93.355785 47.545418 94.270732 C 44.736697 95.443055 43.05165 95.936531 41.83879 95.941431 L 40.117448 95.948665 L 40.117448 113.39876 L 41.038322 132.41982 C 41.088213 133.45087 42.540573 134.30646 43.302783 134.72046 C 45.274278 135.7913 48.637079 135.5769 50.349382 134.27087 C 53.038964 132.21946 52.967417 132.81688 53.088749 111.39217 L 53.19727 92.233647 z " /></g></svg>
