<?xml version="1.0" encoding="UTF-8" standalone="no"?>
<!-- Created with Inkscape (http://www.inkscape.org/) -->

<svg
   width="256"
   height="256"
   viewBox="0 0 67.733332 67.733333"
   version="1.1"
   id="svg1"
   xml:space="preserve"
   sodipodi:docname="icon_menu.svg"
   inkscape:version="1.4.2 (f4327f4, 2025-05-13)"
   xmlns:inkscape="http://www.inkscape.org/namespaces/inkscape"
   xmlns:sodipodi="http://sodipodi.sourceforge.net/DTD/sodipodi-0.dtd"
   xmlns="http://www.w3.org/2000/svg"
   xmlns:svg="http://www.w3.org/2000/svg"><sodipodi:namedview
     id="namedview1"
     pagecolor="#ffffff"
     bordercolor="#000000"
     borderopacity="0.25"
     inkscape:showpageshadow="2"
     inkscape:pageopacity="0.0"
     inkscape:pagecheckerboard="true"
     inkscape:deskcolor="#d1d1d1"
     inkscape:document-units="mm"
     inkscape:zoom="2.9405047"
     inkscape:cx="119.70734"
     inkscape:cy="144.36297"
     inkscape:window-width="2560"
     inkscape:window-height="1369"
     inkscape:window-x="1912"
     inkscape:window-y="-8"
     inkscape:window-maximized="1"
     inkscape:current-layer="svg1" /><defs
     id="defs1" /><path
     id="rect1"
     style="fill:#ffffff;fill-opacity:1;stroke-width:0.229009"
     d="M 5.2916667 0 C 2.3600834 6.2665922e-16 0 2.3600834 0 5.2916667 C 6.2665922e-16 8.2232499 2.3600834 10.583333 5.2916667 10.583333 L 62.441667 10.583333 C 65.37325 10.583333 67.733333 8.2232499 67.733333 5.2916667 C 67.733333 2.3600834 65.37325 0 62.441667 0 L 5.2916667 0 z M 5.2916667 28.575 C 2.3600834 28.575 0 30.935083 0 33.866667 C 6.2665922e-16 36.79825 2.3600834 39.158333 5.2916667 39.158333 L 62.441667 39.158333 C 65.37325 39.158333 67.733333 36.79825 67.733333 33.866667 C 67.733333 30.935083 65.37325 28.575 62.441667 28.575 L 5.2916667 28.575 z M 5.2916667 57.15 C 2.3600834 57.15 0 59.510083 0 62.441667 C 6.2665922e-16 65.37325 2.3600834 67.733333 5.2916667 67.733333 L 62.441667 67.733333 C 65.37325 67.733333 67.733333 65.37325 67.733333 62.441667 C 67.733333 59.510083 65.37325 57.15 62.441667 57.15 L 5.2916667 57.15 z "
     inkscape:label="icon_menu" /></svg>
