<?xml version="1.0" encoding="UTF-8" standalone="no"?>
<!-- Created with Inkscape (http://www.inkscape.org/) -->

<svg
   width="2048"
   height="350"
   viewBox="0 0 541.86666 92.604169"
   version="1.1"
   id="svg1"
   inkscape:version="1.4 (86a8ad7, 2024-10-11)"
   sodipodi:docname="drawing_logo_theDiveClub.svg"
   xmlns:inkscape="http://www.inkscape.org/namespaces/inkscape"
   xmlns:sodipodi="http://sodipodi.sourceforge.net/DTD/sodipodi-0.dtd"
   xmlns="http://www.w3.org/2000/svg"
   xmlns:svg="http://www.w3.org/2000/svg">
  <sodipodi:namedview
     id="namedview1"
     pagecolor="#ffffff"
     bordercolor="#000000"
     borderopacity="0.25"
     inkscape:showpageshadow="2"
     inkscape:pageopacity="0.0"
     inkscape:pagecheckerboard="true"
     inkscape:deskcolor="#d1d1d1"
     inkscape:document-units="mm"
     inkscape:zoom="0.51981271"
     inkscape:cx="625.22519"
     inkscape:cy="197.18641"
     inkscape:window-width="2560"
     inkscape:window-height="1369"
     inkscape:window-x="-8"
     inkscape:window-y="-8"
     inkscape:window-maximized="1"
     inkscape:current-layer="svg1" />
  <defs
     id="defs1" />
  <path
     style="font-size:122.352px;line-height:0.8;font-family:'Million Astteroids';-inkscape-font-specification:'Million Astteroids';letter-spacing:0px;stroke-width:7.64819;stroke-opacity:0.4"
     d="m 21.798435,81.220329 q -2.263512,-1.19905 -3.266798,-4.392437 -0.452703,-1.419283 -0.599525,-4.661611 -0.159058,-3.242328 0.03671,-7.023004 0.195763,-3.792912 0.697406,-6.594773 1.039992,-5.823955 2.72845,-12.369787 1.700692,-6.558067 3.7195,-12.626726 -8.515699,0.697406 -15.061531,1.541635 -4.8940795,0.623995 -6.704889,0.770818 -1.8108096,0.146822 -2.0677488,-0.06118 -0.90540478,-0.721877 -1.21128477,-2.104455 -0.1712928,-0.746347 0.0856464,-1.052227 0.37929119,-0.440467 2.21457117,-0.721877 1.1868144,-0.183528 4.3067903,-0.489408 11.1707377,-1.088933 19.6497307,-1.419283 1.908691,-5.322312 3.707266,-9.127459 1.137873,-2.385864 2.031043,-3.413621 0.905405,-1.039992 1.85975,-1.027756 0.868699,0 1.969867,0.587289 1.101168,0.58729 1.370343,1.174579 0.122352,0.244704 0.146822,0.477173 0.02447,0.232469 -0.07341,0.709642 -0.09788,0.464937 -0.293645,1.015521 -0.195763,0.538349 -0.648466,1.602811 -0.452702,1.064463 -1.003286,2.275748 -0.550584,1.211284 -1.480459,3.217857 -0.538349,1.174579 -1.064462,2.336923 4.319025,-0.04894 9.396633,0.02447 3.413621,0.04894 5.995248,0.134587 2.593862,0.07341 4.61267,0.207998 2.031043,0.134587 3.38915,0.30588 1.358108,0.171293 2.214572,0.415997 0.856464,0.244704 1.199049,0.550584 0.342586,0.293645 0.269175,0.685171 -0.04894,0.30588 -2.177866,0.403762 -2.128925,0.09788 -11.390971,0.220233 -8.968401,0.110117 -14.939179,0.342586 -4.955256,11.635675 -7.683705,21.962184 -2.716215,10.326508 -2.716215,17.545276 0,4.00091 0.770818,5.83619 0.770818,1.83528 2.312453,1.50493 2.202336,-0.464938 5.138784,-3.119976 2.936448,-2.655038 6.178775,-7.096416 3.254564,-4.441377 6.362304,-10.069569 1.737399,-3.156682 2.214571,-3.695031 0.367056,-0.403761 0.636231,-0.171292 0.04894,0.04894 0.122352,0.122352 0.183528,0.232468 -0.03671,0.868699 -0.207998,0.63623 -1.052227,2.300217 -3.132211,6.276658 -6.44795,11.121797 -3.315739,4.832904 -6.631478,7.97735 -2.544922,2.410334 -4.771728,3.181152 -2.226807,0.758582 -4.013146,-0.183528 z m 18.218141,-0.61176 q -0.30588,-0.134587 -0.477173,-0.220234 -0.183528,-0.08565 -0.367056,-0.232468 -0.195763,-0.159058 -0.293645,-0.25694 -0.09788,-0.09788 -0.183528,-0.35482 -0.08565,-0.25694 -0.09788,-0.440468 -0.02447,-0.195763 -0.01224,-0.623995 0,-0.428232 0.04894,-0.783053 0.04894,-0.35482 0.159058,-1.027756 0.09788,-0.672936 0.207998,-1.247991 0.09788,-0.587289 0.28141,-1.566105 2.814096,-15.367411 7.218768,-30.63694 2.410334,-8.368877 5.065372,-16.040347 2.655039,-7.67147 4.294556,-11.03615 1.162343,-2.373629 2.410334,-2.973154 1.260225,-0.599525 2.483745,0.623995 0.501644,0.513879 0.599525,0.856464 0.159058,0.61176 -0.440467,2.239042 -0.415997,1.113403 -1.994338,4.820668 -5.236665,12.2352 -8.58911,22.63512 -3.352444,10.387685 -5.542545,21.142425 -0.807523,3.988675 -0.575055,3.97644 0.04894,0 0.122352,-0.08565 0.07341,-0.09788 1.78634,-3.083271 2.031043,-3.523737 4.673846,-7.328884 2.655038,-3.817383 5.077608,-6.717125 2.434804,-2.911978 3.841852,-3.939734 0.440468,-0.318115 0.978816,-0.538349 0.550584,-0.232469 0.880935,-0.232469 0.819758,0 1.774104,0.440467 0.954345,0.428232 1.541635,1.064463 0.501643,0.538348 0.61176,1.370342 0.110117,0.819758 -0.122352,2.336923 -0.232469,1.517165 -0.91764,4.453613 -1.382578,5.970777 -1.309166,9.1764 0.08565,3.193387 1.627281,3.829617 0.929875,0.391527 3.009859,0.159058 2.079984,-0.232469 4.245615,-0.954346 3.682795,-1.235755 8.564639,-4.074321 4.881845,-2.838567 9.347693,-6.350069 3.071035,-2.398099 3.780677,-2.863037 0.709641,-0.477172 1.076697,-0.342585 0.660701,0.256939 0.30588,0.929875 -0.501643,0.929875 -3.523737,3.548208 -0.783053,0.685171 -1.83528,1.566105 -3.707266,3.119976 -8.662522,6.031954 -4.94302,2.899742 -8.638051,4.123262 -2.079984,0.685171 -4.257849,0.844229 -2.177866,0.159058 -3.633854,-0.28141 -2.14116,-0.63623 -3.719501,-2.153395 -1.566106,-1.517165 -2.153395,-3.523737 -0.477173,-1.590576 -0.403762,-4.355731 0.07341,-2.765156 0.672936,-5.383488 0.672936,-2.948683 0.562819,-3.046565 -0.110117,-0.110117 -0.929875,0.783053 -0.819758,0.893169 -2.043278,2.44704 -1.22352,1.541635 -2.593863,3.36468 -1.370342,1.823044 -2.728449,3.756206 -1.345872,1.933162 -2.275747,3.401385 -1.920927,3.022095 -3.719501,6.435716 -1.798574,3.401385 -2.214571,4.808433 -0.415997,1.407048 -1.076698,1.749634 -0.660701,0.33035 -1.920926,-0.220234 z M 102.3671,53.678894 q 1.63952,-0.807523 2.71622,-1.823044 1.08893,-1.027757 1.08893,-1.737399 0,-1.186814 -1.65175,-0.146822 -1.38258,0.893169 -3.0221,2.642803 -0.4527,0.477173 -0.77081,0.880934 -0.783056,1.003287 -0.36706,1.003287 0.37929,0 2.00657,-0.819759 z m -9.690275,5.579251 q -0.0367,-1.55387 0.56282,-3.279033 0.587289,-1.725163 1.590576,-3.242328 1.003286,-1.5294 2.385863,-2.814096 1.394813,-1.296931 2.899746,-2.031043 1.46822,-0.721877 3.10774,-0.868699 1.65175,-0.146823 2.97315,0.30588 1.3214,0.440467 1.88422,1.358107 0.48941,0.795288 0.48941,1.333637 0,0.538348 -0.48941,1.480459 -0.81976,1.578341 -2.61833,2.789625 -1.78634,1.211285 -4.25785,1.847516 -2.09222,0.538348 -2.324688,0.685171 -0.428232,0.269174 -0.929876,2.018808 -0.489408,1.737398 -0.501643,3.071035 -0.06118,3.939734 6.288897,3.584913 4.11102,-0.232468 9.15193,-2.1901 5.05313,-1.957632 11.29308,-5.713839 1.29694,-0.783052 2.07999,-1.199049 0.78305,-0.428232 1.30917,-0.61176 0.52611,-0.195763 0.75858,-0.122352 0.23247,0.07341 0.34258,0.354821 0.0367,0.08565 0.0367,0.171292 0,0.07341 -0.0367,0.171293 -0.0367,0.09788 -0.11011,0.195763 -0.0612,0.08565 -0.208,0.232469 -0.14682,0.146823 -0.33035,0.293645 -0.1713,0.134587 -0.46494,0.354821 -0.28141,0.207998 -0.61176,0.440467 -0.31812,0.220233 -0.79529,0.538349 -0.47717,0.30588 -0.97881,0.63623 -0.50165,0.33035 -1.18682,0.770818 -12.73684,8.234289 -21.04454,8.185348 -1.13788,-0.01224 -2.14116,-0.122352 Q 99.797712,67.773844 98.745484,67.50467 97.705492,67.22326 96.836793,66.795029 95.980329,66.366797 95.197277,65.681625 94.426459,64.996454 93.88811,64.11552 93.349761,63.22235 93.031646,61.986595 92.701296,60.75084 92.676825,59.258145 Z M 164.54638,78.82223 q -0.55058,-0.342586 -0.83199,-0.61176 -0.26917,-0.269175 -0.39153,-0.685171 -0.12235,-0.428232 -0.0612,-0.929876 0.0612,-0.513878 0.26917,-1.394812 2.22681,-9.323222 7.69594,-26.892969 5.48137,-17.581982 9.97169,-29.829417 1.79858,-4.89408 2.38587,-6.105365 0.63623,-1.296931 1.27246,-1.639517 0.42823,-0.232468 1.48046,-0.256939 0.0367,0 0.0734,0 1.10116,-0.02447 2.42257,0.550584 1.33363,0.562819 2.23904,1.407048 0.91764,0.844229 0.91764,1.55387 0,0.269175 -0.35482,1.076698 -0.34259,0.795288 -0.84423,1.639517 -3.14445,5.371252 -7.09642,14.718945 -3.95197,9.347693 -7.78159,20.383843 -3.81738,11.03615 -6.59477,21.191366 -0.57505,2.116689 -1.10117,3.805147 -0.52611,1.688457 -0.68517,1.933161 -0.36705,0.575055 -1.23575,0.599525 -0.85647,0.02447 -1.74964,-0.513878 z m 15.11048,9.372163 q 4.46584,-2.055514 10.00839,-7.353355 5.54254,-5.310077 10.4611,-12.2352 1.28469,-1.798574 2.54492,-3.756206 1.26022,-1.957632 1.9821,-3.266799 0.72188,-1.309166 0.57505,-1.358107 -0.36705,-0.122352 -3.76844,1.296931 -3.40138,1.419284 -5.68937,2.642804 -4.29455,2.300217 -8.05076,5.151019 -3.7562,2.838566 -6.47242,5.762779 -2.71621,2.924212 -4.35573,5.897366 -1.62728,2.973154 -1.82304,5.518075 -0.0489,0.562819 -0.0734,0.91764 -0.0122,0.354821 -0.0122,0.685171 0.0122,0.342586 0.0367,0.526114 0.0367,0.183528 0.12235,0.342585 0.0856,0.159058 0.18353,0.220234 0.0979,0.06118 0.2814,0.08565 0.19577,0.03671 0.39153,0.01224 0.208,-0.01224 0.52611,-0.04894 0.52612,-0.07341 1.44376,-0.379291 0.91764,-0.30588 1.68846,-0.660701 z m -2.91198,4.771728 q -1.34587,-0.367056 -1.50493,-0.379291 -0.13459,0 -1.41928,-0.856464 -4.83291,-3.205623 -1.24799,-10.632389 1.82304,-3.780677 5.23666,-7.463472 3.42586,-3.69503 8.0997,-6.937358 4.67385,-3.254563 10.15522,-5.738309 2.21457,-1.003286 5.28561,-2.116689 3.07103,-1.113404 4.67384,-1.50493 0.46494,-0.110117 0.75858,-0.269174 0.29365,-0.159058 0.624,-0.562819 0.33035,-0.415997 0.63623,-1.003287 0.31811,-0.587289 0.83199,-1.688457 5.31008,-11.415442 6.58254,-20.714194 0.33035,-2.373628 0.28141,-6.496891 -0.0367,-4.135497 -0.416,-6.093129 -1.00328,-5.334547 -3.65832,-9.127459 -2.65504,-3.8051472 -6.76607,-5.81172 -2.61833,-1.2724608 -5.72607,-1.8475151 -3.10774,-0.5872896 -6.50913,-0.4771728 -3.38915,0.097882 -7.05971,0.9910511 -3.65832,0.8931696 -7.29218,2.4715104 -3.62162,1.5783408 -7.31665,4.0376164 -3.69503,2.447039 -7.04747,5.603721 -2.87527,2.691744 -5.28561,5.823955 -2.41033,3.119976 -4.19667,6.374539 -1.7741,3.254563 -2.97315,6.692654 -1.19905,3.425856 -1.72517,6.717125 -0.51388,3.291269 -0.31811,6.496891 0.19576,3.205622 1.13787,6.007483 0.18353,0.550584 0.28141,0.91764 0.11012,0.354821 0.15906,0.648466 0.0612,0.293645 0.0489,0.464937 0,0.159058 -0.0857,0.269175 -0.0734,0.110117 -0.208,0.146822 -0.13458,0.03671 -0.35482,0.03671 -0.52611,0 -1.18681,-0.880935 -0.6607,-0.893169 -1.26023,-2.361393 -0.59952,-1.468224 -0.95434,-3.107741 -0.42823,-2.031043 -0.44047,-5.677133 -0.0122,-3.646089 0.416,-5.958542 0.80752,-4.367966 2.59386,-8.638051 1.78634,-4.270085 4.31903,-8.075232 2.54492,-3.805147 5.84842,-7.218768 3.30351,-3.425856 7.07195,-6.1543051 3.78067,-2.7406847 8.0997,-4.7961983 4.31902,-2.0555135 8.82158,-3.18115189 2.66727,-0.67293598 7.231,-0.84422878 4.56373,-0.18352799 7.21877,0.2814096 3.60938,0.62399518 7.42677,2.53268637 3.81738,1.8964559 6.42347,4.3679663 5.04091,4.7839628 7.25548,11.5622638 2.2268,6.766065 1.51716,15.159412 -0.70964,8.381112 -4.33126,17.924568 -0.4527,1.211285 -0.73411,2.11669 -0.26917,0.893169 -0.208,0.954345 0.0612,0.07341 1.15011,0.02447 1.10117,-0.04894 2.55716,-0.183528 1.72516,-0.159058 5.23666,-0.195764 3.52374,-0.0367 6.93736,0.03671 3.41362,0.07341 6.06866,0.232469 2.66727,0.159057 2.83857,0.354821 0.17129,0.207998 0.15905,0.379291 -0.0122,0.171293 -0.19576,0.391526 -0.208,0.256939 -1.33364,0.342586 -1.1134,0.07341 -4.61267,0.07341 -4.14773,0 -9.43333,0.342586 -5.28561,0.33035 -8.63806,0.807523 l -2.30021,0.33035 -1.7007,3.230093 q -4.5882,8.748168 -10.71803,16.125993 -6.12984,7.36559 -12.54108,11.868144 -3.40139,2.373629 -6.7416,3.425856 -3.34021,1.052227 -5.54254,0.428232 z m 69.71614,-53.284295 q -0.75858,-0.758583 -0.88094,-1.468224 -0.11011,-0.721877 0.36706,-1.651752 0.59952,-1.162344 1.55387,-1.480459 0.95435,-0.330351 2.06775,0.244704 0.79529,0.415997 1.10117,1.235755 0.31811,0.807523 0.0122,1.712928 -0.62399,1.884221 -1.79857,2.275747 -1.16235,0.391526 -2.42257,-0.868699 z m -3.5115,30.979526 q -0.3793,-0.146823 -0.61176,-0.244704 -0.23247,-0.110117 -0.70965,-0.367056 -0.46493,-0.25694 -0.78305,-0.489408 -0.31811,-0.244704 -0.78305,-0.648466 -0.4527,-0.415997 -0.77082,-0.844229 -0.30588,-0.440467 -0.64846,-1.076697 -0.34259,-0.636231 -0.55059,-1.333637 -0.208,-0.697406 -0.33035,-1.615046 -0.13459,-0.91764 -0.12235,-1.945397 0.0367,-2.361394 0.64846,-4.722787 0.59953,-2.373629 1.85976,-5.016432 1.3214,-2.789626 2.52045,-3.731736 1.19905,-0.954346 2.75292,-0.440467 0.77081,0.256939 1.54163,1.052227 0.77082,0.795288 0.78305,1.333637 0,0.195763 -0.68517,1.676222 -0.67293,1.468224 -1.62728,3.36468 -1.96987,3.890793 -2.70398,6.166541 -2.27575,6.961828 2.98539,6.876182 0.17129,0 0.35482,-0.01224 3.84185,-0.220234 9.15193,-2.703979 5.31008,-2.483746 13.7646,-8.001821 3.11998,-2.043278 3.96421,-2.251277 0.59952,-0.159057 0.67293,0.379291 0.0122,0.09788 0.0122,0.220234 0,0.94211 -9.3477,7.194297 -3.16891,2.11669 -6.96182,4.111027 -3.78068,1.994338 -6.0809,2.75292 -1.84751,0.61176 -4.49032,0.709642 -2.63057,0.09788 -3.80514,-0.391526 z m 31.35877,1.871985 q -3.20563,-1.504929 -3.03433,-8.858284 0.0612,-2.569392 0.59952,-8.503464 0.55058,-5.946307 0.73411,-6.264423 0.25694,-0.415996 0.88094,-0.477172 0.63623,-0.07341 1.33363,0.171292 0.70965,0.232469 1.41929,0.746348 0.72187,0.501643 1.13787,1.150108 0.48941,0.758583 0.6607,1.725164 0.17129,0.954345 0.0734,2.557156 -0.0856,1.602812 -0.47717,4.367967 -0.25694,1.847515 -0.4527,3.41362 -0.19577,1.553871 -0.31812,2.740685 -0.12235,1.186815 -0.18353,2.006573 -0.0489,0.819758 -0.0245,1.235755 0.0367,0.415997 0.13459,0.403762 0.12235,-0.02447 2.3981,-2.850802 2.28798,-2.826331 5.38349,-6.778301 2.6061,-3.340209 4.66161,-5.83619 2.05551,-2.508216 3.41362,-4.049851 1.37034,-1.55387 2.50822,-2.667273 1.13787,-1.113404 1.82304,-1.663988 0.68517,-0.562819 1.46822,-1.101168 1.11341,-0.746347 1.9454,-0.795288 0.83199,-0.06118 1.01552,0.599525 0.11012,0.379291 -0.35482,0.991051 -0.4527,0.599525 -1.94539,2.031044 -1.34588,1.284696 -2.1534,2.116689 -0.79529,0.831994 -2.20234,2.44704 -1.40704,1.602811 -3.29126,3.988675 -1.88423,2.385864 -4.74726,6.14207 -3.27904,4.294556 -5.78725,7.475707 -2.50822,3.168917 -2.75292,3.327975 -0.70964,0.477173 -1.87199,0.550584 -1.15011,0.06118 -1.99433,-0.342586 z m 34.94367,-18.854443 q 1.63952,-0.807523 2.71622,-1.823044 1.08893,-1.027757 1.08893,-1.737399 0,-1.186814 -1.65175,-0.146822 -1.38258,0.893169 -3.0221,2.642803 -0.4527,0.477173 -0.77082,0.880934 -0.78305,1.003287 -0.36705,1.003287 0.37929,0 2.00657,-0.819759 z m -9.69028,5.579251 q -0.0367,-1.55387 0.56282,-3.279033 0.58729,-1.725163 1.59058,-3.242328 1.00328,-1.5294 2.38586,-2.814096 1.39481,-1.296931 2.89974,-2.031043 1.46823,-0.721877 3.10774,-0.868699 1.65176,-0.146823 2.97316,0.30588 1.3214,0.440467 1.88422,1.358107 0.48941,0.795288 0.48941,1.333637 0,0.538348 -0.48941,1.480459 -0.81976,1.578341 -2.61833,2.789625 -1.78634,1.211285 -4.25785,1.847516 -2.09222,0.538348 -2.32469,0.685171 -0.42823,0.269174 -0.92988,2.018808 -0.4894,1.737398 -0.50164,3.071035 -0.0612,3.939734 6.28889,3.584913 4.11103,-0.232468 9.15193,-2.1901 5.05314,-1.957632 11.29309,-5.713839 1.29693,-0.783052 2.07999,-1.199049 0.78305,-0.428232 1.30916,-0.61176 0.52612,-0.195763 0.75858,-0.122352 0.23247,0.07341 0.34259,0.354821 0.0367,0.08565 0.0367,0.171292 0,0.07341 -0.0367,0.171293 -0.0367,0.09788 -0.11012,0.195763 -0.0612,0.08565 -0.20799,0.232469 -0.14683,0.146823 -0.33036,0.293645 -0.17129,0.134587 -0.46493,0.354821 -0.28141,0.207998 -0.61176,0.440467 -0.31812,0.220233 -0.79529,0.538349 -0.47717,0.30588 -0.97882,0.63623 -0.50164,0.33035 -1.18681,0.770818 -12.73684,8.234289 -21.04454,8.185348 -1.13788,-0.01224 -2.14116,-0.122352 -1.00329,-0.110117 -2.05552,-0.379291 -1.03999,-0.28141 -1.90869,-0.709641 -0.85646,-0.428232 -1.63952,-1.113404 -0.77081,-0.685171 -1.30916,-1.566105 -0.53835,-0.89317 -0.85647,-2.128925 -0.33035,-1.235755 -0.35482,-2.72845 z m 72.92178,30.012945 q -0.17129,-0.0367 -0.99105,-0.183528 -0.81976,-0.146822 -1.30917,-0.232468 -3.82961,-0.685172 -7.04747,-2.740685 -3.20562,-2.043278 -5.46914,-5.19996 -2.25127,-3.168917 -3.27903,-7.120886 -0.88093,-3.376915 -0.91764,-7.695941 -0.0245,-4.331261 0.79529,-8.809344 1.08893,-5.86066 3.60938,-12.088377 2.53269,-6.239952 6.09313,-12.088377 3.57268,-5.860661 8.14865,-11.29309 4.57596,-5.432428 9.67804,-9.714748 6.9863,-5.8973666 13.56883,-8.9684017 6.58254,-3.07103517 12.34532,-3.13221117 2.65504,-0.0244704 4.41691,0.3303504 1.7741,0.34258559 3.60938,1.27246077 4.29456,2.1656304 5.2489,6.2399519 0.96658,4.0620858 -1.30916,10.5345068 -0.78306,2.214571 -2.12893,4.86961 -1.34587,2.655038 -2.78962,4.906315 -1.43152,2.239041 -2.86304,3.939734 -1.41928,1.688458 -2.33692,2.128925 -0.59953,0.281409 -1.41929,0.318115 -0.80752,0.02447 -1.60281,-0.183528 -0.79529,-0.220234 -1.48046,-0.562819 -0.68517,-0.342586 -1.1134,-0.831994 -0.416,-0.501643 -0.416,-1.003286 0,-0.122352 0.77082,-1.039992 0.77082,-0.91764 1.84752,-2.092219 4.49031,-4.881845 6.93735,-9.470045 2.44704,-4.5882 2.76516,-8.760403 0.23247,-2.9364478 -0.77082,-4.8818446 -0.99105,-1.9576319 -2.93645,-2.3736287 -1.82304,-0.3915264 -4.72278,0.2569392 -2.89975,0.6484655 -6.30113,2.1901007 -3.38915,1.5294 -6.63148,3.6705599 -5.61596,3.7195005 -11.14627,9.0540475 -5.53031,5.334547 -9.93498,11.305325 -5.10208,6.900653 -8.80934,14.767886 -3.69503,7.854998 -5.07761,14.743416 -0.63623,3.119976 -0.75858,7.487942 -0.12235,4.367966 0.35482,6.717125 0.72187,3.535972 2.25127,6.337833 1.54164,2.801861 3.58492,4.30679 2.21457,1.615047 5.44466,2.300218 3.24233,0.685171 6.88842,0.281409 10.05733,-1.088932 21.90101,-8.062996 11.84367,-6.986299 24.34804,-19.172558 1.74964,-1.688458 3.09551,-2.899742 1.35811,-1.211285 1.50493,-1.211285 0.34259,0 0.68517,0.318115 0.34259,0.318115 0.34259,0.63623 0,0.220234 -2.55716,2.911978 -2.54492,2.691744 -5.75054,5.872896 -3.20563,3.168916 -4.86961,4.63714 -8.61358,7.573589 -17.22717,12.382023 -8.61358,4.808433 -16.55422,6.47242 -1.82305,0.379291 -5.22443,0.58729 -3.40139,0.220233 -4.49032,0.0367 z m 57.46869,-8.197583 q -2.26351,-1.19905 -3.2668,-4.392437 -0.4527,-1.419283 -0.59952,-4.661611 -0.15906,-3.242328 0.0367,-7.023005 0.19577,-3.792912 0.69741,-6.594773 1.68846,-9.482279 4.90632,-20.151373 3.23009,-10.68133 6.46018,-17.508571 1.13788,-2.385864 2.03104,-3.413621 0.90541,-1.039992 1.85976,-1.027757 0.86869,0 1.96986,0.58729 1.10117,0.587289 1.37034,1.174579 0.12236,0.244704 0.14683,0.477173 0.0245,0.232469 -0.0734,0.709641 -0.0979,0.464938 -0.29365,1.015522 -0.19576,0.538349 -0.64846,1.602811 -0.45271,1.064462 -1.00329,2.275747 -0.55058,1.211285 -1.48046,3.217858 -6.08089,13.165075 -9.49452,25.094394 -3.40138,11.92932 -3.40138,20.041258 0,4.00091 0.77082,5.83619 0.77081,1.83528 2.31245,1.504929 2.20234,-0.464937 5.13878,-3.119976 2.93645,-2.655038 6.17878,-7.096415 3.25456,-4.441378 6.3623,-10.06957 1.7374,-3.156681 2.21457,-3.69503 0.36706,-0.403762 0.63623,-0.171293 0.0489,0.04894 0.12236,0.122352 0.18352,0.232469 -0.0367,0.868699 -0.208,0.636231 -1.05223,2.300218 -3.13221,6.276657 -6.44795,11.121796 -3.31574,4.832904 -6.63147,7.977351 -2.54493,2.410334 -4.77173,3.181152 -2.22681,0.758582 -4.01315,-0.183528 z m 21.3993,-11.464383 q -2.0188,-0.91764 -2.3981,-3.499267 -0.19576,-1.260225 0.40377,-4.00091 0.59952,-2.75292 1.63951,-5.689368 1.04,-2.948683 2.09222,-4.91855 0.92988,-1.725163 1.9821,-2.789626 1.05223,-1.064462 2.00658,-1.064462 0.91764,0 2.06775,0.623995 1.1501,0.623995 1.51716,1.309166 0.39153,0.770818 -0.0489,1.969868 -0.44047,1.199049 -2.1534,4.159968 -2.26351,3.939734 -3.90302,7.500177 -1.62729,3.548208 -1.2847,3.890793 0.19576,0.195764 1.55387,-0.917639 1.35811,-1.113404 3.24233,-2.948684 1.88422,-1.847515 3.81738,-3.866323 1.93316,-2.018808 3.49927,-3.829617 1.5661,-1.823045 2.06775,-2.679509 1.05222,-1.798574 1.76187,-2.42257 0.72187,-0.63623 1.71292,-0.63623 0.90541,0 1.78634,0.538349 0.88094,0.526113 1.10117,1.199049 0.17129,0.56282 -0.70964,2.214572 -3.11998,5.83619 -3.53597,7.793822 -0.14683,0.721877 -0.18353,1.321401 -0.0245,0.58729 0.0489,1.027757 0.0856,0.428232 0.25694,0.770818 0.17129,0.33035 0.42823,0.538349 0.25694,0.207998 0.57505,0.367056 0.33036,0.159057 0.69741,0.220233 0.37929,0.06118 0.79529,0.110117 0.416,0.03671 0.85646,0.03671 0.45271,-0.01224 0.90541,-0.01224 3.9275,-0.02447 9.4211,-2.092219 5.50584,-2.067749 13.43425,-6.484656 0.8687,-0.477172 1.48046,-0.795288 0.61176,-0.318115 1.10117,-0.526113 0.48941,-0.220234 0.79529,-0.293645 0.30588,-0.08565 0.51387,-0.04894 0.22024,0.03671 0.31812,0.183528 0.0979,0.134587 0.13459,0.391527 0.0367,0.232468 -0.29365,0.550584 -0.31811,0.318115 -1.16234,0.868699 -0.84423,0.550584 -2.59386,1.590576 -8.12418,4.845139 -13.40978,6.937358 -5.27337,2.079984 -9.47005,2.092219 -1.54163,0.01223 -2.8508,-0.256939 -1.30917,-0.269175 -2.23904,-0.721877 -0.91764,-0.452702 -1.65175,-1.076697 -0.72188,-0.623996 -1.17458,-1.284696 -0.44047,-0.660701 -0.73411,-1.382578 -0.29365,-0.721877 -0.416,-1.345872 -0.11012,-0.623995 -0.11012,-1.19905 v -1.137873 l -4.39243,4.404672 q -2.43481,2.459275 -3.73174,3.597148 -1.29693,1.125639 -2.11669,1.5294 -1.85975,0.905405 -3.45033,0.183528 z m 57.2363,-4.086556 1.1134,-1.345872 -1.21128,0.978816 q -0.50165,0.403761 -1.01553,0.966581 -0.50164,0.550584 -0.72187,0.917639 l -0.52612,0.91764 0.624,-0.538348 q 0.62399,-0.538349 1.7374,-1.896456 z m -12.16179,14.315183 q -0.29365,-0.122352 -0.46494,-0.207998 -0.18353,-0.08565 -0.37929,-0.232469 -0.19576,-0.159057 -0.28141,-0.256939 -0.0979,-0.110117 -0.18353,-0.354821 -0.0979,-0.256939 -0.11011,-0.452702 -0.0245,-0.195763 -0.0122,-0.623995 0.0122,-0.428232 0.0612,-0.770818 0.0489,-0.354821 0.14682,-1.027757 0.0979,-0.672936 0.208,-1.260225 0.0979,-0.58729 0.28141,-1.566106 2.81409,-15.355176 7.21877,-30.63694 2.41033,-8.368877 5.06537,-16.040347 2.65504,-7.67147 4.30679,-11.03615 1.15011,-2.361394 2.3981,-2.960918 1.26022,-0.599525 2.48374,0.623995 0.51388,0.501643 0.59953,0.856464 0.15906,0.61176 -0.44047,2.226806 -0.40376,1.125639 -1.99434,4.832904 -3.59715,8.393347 -5.98301,15.000355 -2.38586,6.607008 -4.52702,14.021539 -1.72517,6.044189 -1.72517,6.276657 0,0.501644 0.39153,0.04894 0.28141,-0.33035 0.68517,-1.088933 0.96658,-1.85975 3.10774,-4.930785 2.1534,-3.071035 3.4748,-4.502554 1.35811,-1.455988 2.81409,-2.385864 1.45599,-0.94211 2.38587,-0.94211 0.67293,0 1.84751,0.501643 1.18682,0.501643 1.96987,1.101168 0.36706,0.293645 0.83199,0.91764 0.46494,0.61176 0.74635,1.19905 0.48941,0.991051 0.57506,1.602811 0.0856,0.599525 -0.0122,2.312453 -0.0612,1.064462 -0.26917,2.312452 -0.208,1.235756 -0.46494,2.031044 -0.23247,0.758582 -0.37929,1.333636 -0.13459,0.575055 -0.0856,0.623996 0.0489,0.04894 0.8687,-0.04894 0.83199,-0.110117 1.92093,-0.30588 1.45599,-0.256939 3.3035,-0.354821 1.85975,-0.110117 4.89408,-0.110117 2.26351,0 3.52374,0.04894 1.26022,0.03671 2.03104,0.171293 0.78305,0.134587 0.99105,0.342585 0.22024,0.207999 0.14682,0.575055 -0.0245,0.110117 -0.0979,0.183528 -0.0734,0.06118 -0.33035,0.134587 -0.2447,0.06118 -0.58729,0.09788 -0.34258,0.03671 -1.03999,0.07341 -0.69741,0.03671 -1.5294,0.07341 -0.81976,0.02447 -2.16563,0.06118 -7.96511,0.232469 -12.00273,1.419283 -0.46494,0.146822 -0.70964,0.256939 -0.23247,0.110117 -0.55059,0.440467 -0.31811,0.330351 -0.59952,0.758583 -0.28141,0.428232 -0.84423,1.358107 -2.15339,3.560443 -4.69832,6.313363 -2.53268,2.740685 -4.64937,3.817382 -0.94211,0.477173 -2.04328,0.61176 -1.10117,0.122352 -1.93316,-0.146822 -0.92988,-0.30588 -1.62728,-1.137874 -0.69741,-0.831993 -0.69741,-1.615046 0,-0.91764 0.97882,-2.398099 0.97881,-1.480459 2.58162,-3.009859 1.60281,-1.541635 3.31574,-2.630568 2.3981,-1.50493 2.87527,-1.798575 0.61176,-0.391526 1.01553,-1.052227 0.41599,-0.660701 1.22352,-2.557156 0.51387,-1.22352 0.99105,-2.593863 0.47717,-1.370342 0.80752,-2.544921 0.33035,-1.17458 0.53835,-2.190101 0.22023,-1.027757 0.208,-1.541635 -0.0122,-0.526114 -0.208,-0.58729 -0.37929,0 -2.16563,1.468224 -1.78634,1.468224 -2.86304,2.667274 -2.41033,2.691744 -4.8329,6.704889 -2.41034,4.00091 -4.30679,8.454523 -1.45599,3.462562 -2.1534,5.921837 -0.68517,2.459275 -0.8687,4.881844 -0.0612,0.905405 -0.15905,1.5294 -0.0979,0.623996 -0.25694,1.088933 -0.15906,0.452703 -0.36706,0.685171 -0.22023,0.220234 -0.53835,0.293645 -0.33035,0.07341 -0.72187,-0.01224 -0.40377,-0.09788 -0.95435,-0.342586 z"
     id="text1"
     transform="scale(1.0064178,0.99362313)"
     aria-label="the Dive Club"
     inkscape:label="img_Logo" />
</svg>
