<?xml version="1.0" encoding="UTF-8" standalone="no"?>
<!-- Created with Inkscape (http://www.inkscape.org/) -->

<svg
   width="2048"
   height="307"
   viewBox="0 0 541.86666 81.227082"
   version="1.1"
   id="svg1"
   inkscape:version="1.4 (86a8ad7, 2024-10-11)"
   sodipodi:docname="drawing_logo_theDiveClub_textOnly.svg"
   xmlns:inkscape="http://www.inkscape.org/namespaces/inkscape"
   xmlns:sodipodi="http://sodipodi.sourceforge.net/DTD/sodipodi-0.dtd"
   xmlns="http://www.w3.org/2000/svg"
   xmlns:svg="http://www.w3.org/2000/svg">
  <sodipodi:namedview
     id="namedview1"
     pagecolor="#ffffff"
     bordercolor="#000000"
     borderopacity="0.25"
     inkscape:showpageshadow="2"
     inkscape:pageopacity="0.0"
     inkscape:pagecheckerboard="true"
     inkscape:deskcolor="#d1d1d1"
     inkscape:document-units="mm"
     inkscape:zoom="0.73512619"
     inkscape:cx="1082.8073"
     inkscape:cy="210.168"
     inkscape:window-width="2560"
     inkscape:window-height="1369"
     inkscape:window-x="-8"
     inkscape:window-y="-8"
     inkscape:window-maximized="1"
     inkscape:current-layer="layer1" />
  <defs
     id="defs1" />
  <g
     inkscape:label="Layer 1"
     inkscape:groupmode="layer"
     id="layer1">
    <path
       d="m 15.888506,81.035656 c 0,0.9142 0.9142,2.05695 2.05695,2.05695 h 13.598725 c 1.14275,0 2.05695,-1.14275 2.05695,-2.05695 V 21.95548 c 0,-0.9142 0.571375,-1.14275 1.028475,-1.14275 h 10.627575 c 1.14275,0 2.05695,-0.9142 2.05695,-2.05695 V 5.1570546 c 0,-1.1427501 -0.9142,-2.0569501 -2.05695,-2.0569501 H 4.5752805 c -1.14275,0 -2.0569501,0.9142 -2.0569501,2.0569501 V 18.75578 c 0,1.14275 0.9142001,2.05695 2.0569501,2.05695 H 14.974306 c 0.571375,0 0.9142,0.342825 0.9142,1.028475 z m 35.768111,0 c 0,1.14275 0.799925,2.05695 1.942675,2.05695 h 13.713 c 1.257025,0 2.05695,-0.9142 2.05695,-2.05695 V 53.838205 c 0,-1.485575 0.571375,-1.942675 1.59985,-1.942675 h 9.82765 c 1.14275,0 1.59985,0.4571 1.59985,1.485575 v 27.654551 c 0,1.14275 0.9142,2.05695 1.942675,2.05695 h 13.713001 c 1.14275,0 2.171222,-0.9142 2.171222,-2.05695 V 5.1570546 c 0,-1.1427501 -1.028472,-2.0569501 -2.171222,-2.0569501 H 84.339267 c -1.028475,0 -1.942675,0.9142 -1.942675,2.0569501 V 33.15443 c 0,0.68565 -0.4571,1.028475 -1.028475,1.028475 H 70.283442 c -0.571375,0 -0.9142,-0.342825 -0.9142,-1.028475 V 5.1570546 c 0,-1.1427501 -0.799925,-2.0569501 -2.05695,-2.0569501 h -13.713 c -1.14275,0 -1.942675,0.9142 -1.942675,2.0569501 z m 52.909253,0 c 0,1.14275 1.02847,2.05695 2.05695,2.05695 h 32.79692 c 1.02848,0 2.05695,-0.9142 2.05695,-2.05695 V 67.43693 c 0,-1.14275 -1.02847,-2.05695 -2.05695,-2.05695 h -15.88422 c -0.68565,0 -1.25703,-0.22855 -1.25703,-1.485575 v -10.74185 c 0,-0.68565 0.57138,-1.257025 1.25703,-1.257025 h 14.97002 c 1.14275,0 2.05695,-0.9142 2.05695,-2.05695 V 36.239855 c 0,-1.257025 -0.9142,-2.05695 -2.05695,-2.05695 h -15.19857 c -0.68565,0 -1.02848,-0.22855 -1.02848,-0.799925 V 22.298305 c 0,-0.9142 0.4571,-1.485575 1.25703,-1.485575 h 15.9985 c 1.14275,0 1.94267,-0.799925 1.94267,-1.942675 V 5.1570546 c 0,-1.1427501 -0.79992,-2.0569501 -1.94267,-2.0569501 h -32.9112 c -1.02848,0 -2.05695,0.9142 -2.05695,2.0569501 z m 85.47761,2.05695 c 19.76957,0 24.45485,-12.455976 24.45485,-26.740351 V 28.58343 c 0,-14.741475 -6.28513,-25.4833255 -24.45485,-25.4833255 H 169.8168 c -1.14275,0 -1.59985,1.14275 -1.59985,2.0569501 V 81.035656 c 0,0.9142 0.4571,2.05695 1.59985,2.05695 z m 6.74222,-26.511801 c 0,5.9423 -1.8284,8.799175 -6.05657,8.799175 h -3.77108 c -0.68565,0 -1.02847,-0.799925 -1.02847,-1.3713 V 22.069755 c 0,-0.68565 0.4571,-1.257025 1.14275,-1.257025 h 3.77107 c 3.54253,0 5.9423,2.7426 5.9423,7.99925 z m 22.05517,24.454851 c 0,1.14275 0.79993,2.05695 1.94268,2.05695 h 13.713 c 1.25702,0 2.05695,-0.9142 2.05695,-2.05695 V 5.1570546 c 0,-1.1427501 -0.79993,-2.0569501 -2.05695,-2.0569501 h -13.713 c -1.14275,0 -1.94268,0.9142 -1.94268,2.0569501 z m 37.59656,0.4571 c 0.34283,1.028475 1.14275,1.59985 2.17123,1.59985 h 15.65567 c 0.9142,0 1.71413,-0.571375 1.94268,-1.3713 L 293.34826,5.6141546 c 0.34282,-1.2570251 -0.57138,-2.5140501 -1.94268,-2.5140501 h -14.74147 c -1.02848,0 -1.8284,0.799925 -1.94268,1.714125 l -5.71375,31.7684505 -1.25702,6.970775 c -0.34283,1.485575 -1.59985,1.59985 -1.94268,0 l -1.25702,-7.08505 -5.59948,-31.6541755 c -0.22855,-0.9142 -1.02847,-1.714125 -1.94267,-1.714125 h -15.19858 c -1.25702,0 -2.2855,1.257025 -1.94267,2.5140501 z m 40.22491,-0.4571 c 0,1.14275 1.02848,2.05695 2.05695,2.05695 h 32.79693 c 1.02847,0 2.05695,-0.9142 2.05695,-2.05695 V 67.43693 c 0,-1.14275 -1.02848,-2.05695 -2.05695,-2.05695 h -15.88423 c -0.68565,0 -1.25702,-0.22855 -1.25702,-1.485575 v -10.74185 c 0,-0.68565 0.57137,-1.257025 1.25702,-1.257025 h 14.97003 c 1.14275,0 2.05695,-0.9142 2.05695,-2.05695 V 36.239855 c 0,-1.257025 -0.9142,-2.05695 -2.05695,-2.05695 h -15.19858 c -0.68565,0 -1.02847,-0.22855 -1.02847,-0.799925 V 22.298305 c 0,-0.9142 0.4571,-1.485575 1.25702,-1.485575 h 15.9985 c 1.14275,0 1.94268,-0.799925 1.94268,-1.942675 V 5.1570546 c 0,-1.1427501 -0.79993,-2.0569501 -1.94268,-2.0569501 h -32.9112 c -1.02847,0 -2.05695,0.9142 -2.05695,2.0569501 z m 62.96541,-37.939301 c 0.22855,21.826525 9.25628,42.281751 34.51106,40.339076 2.51405,-0.114275 4.79955,-0.799925 6.62795,-1.485575 0.79992,-0.22855 1.25702,-1.14275 1.25702,-1.8284 V 66.06563 c 0,-1.485575 -1.59985,-2.399775 -3.08542,-1.8284 -5.25665,1.59985 -10.85613,1.8284 -15.0843,-1.485575 -5.0281,-4.34245 -6.05658,-12.7988 -6.05658,-19.6553 0,-6.62795 0.79993,-14.741475 6.05658,-19.88385 4.22817,-3.1997 9.82765,-3.085425 15.0843,-1.3713 1.48557,0.571375 3.08542,-0.342825 3.08542,-1.714125 V 6.0712546 c 0,-0.9142 -0.4571,-1.7141251 -1.25702,-1.9426751 -1.8284,-0.799925 -4.1139,-1.14275 -6.62795,-1.485575 C 369.68396,0.81460449 359.62775,19.66998 359.62775,43.096355 Z m 46.73848,37.939301 c 0,1.14275 0.9142,2.05695 2.05695,2.05695 h 33.59685 c 1.02848,0 2.05695,-0.9142 2.05695,-2.05695 V 67.20838 c 0,-1.028475 -1.02847,-1.8284 -2.05695,-1.8284 h -15.9985 c -1.25702,0 -1.94267,-0.4571 -1.94267,-2.05695 V 5.1570546 c 0,-1.1427501 -0.9142,-2.0569501 -1.94268,-2.0569501 h -13.713 c -1.14275,0 -2.05695,0.9142 -2.05695,2.0569501 z M 446.13387,58.06638 c 0,20.912326 12.57025,25.711876 23.54065,25.711876 12.68453,0 24.11203,-3.88535 24.11203,-25.597601 V 5.1570546 c 0,-1.1427501 -0.9142,-2.0569501 -2.05695,-2.0569501 h -13.713 c -1.14275,0 -1.94268,0.9142 -1.94268,2.0569501 V 58.866305 c 0,7.199325 -4.45672,7.427875 -6.05657,7.427875 -1.8284,0 -6.17085,-0.114275 -6.17085,-7.427875 V 5.1570546 c 0,-1.1427501 -0.9142,-2.0569501 -1.94268,-2.0569501 h -13.713 c -1.14275,0 -2.05695,0.9142 -2.05695,2.0569501 z m 77.47844,25.026226 c 15.76995,0 20.5695,-9.941926 20.5695,-21.255151 V 56.23798 c 0,-5.370925 -1.48557,-10.0562 -6.17085,-13.827275 -2.2855,-1.59985 -1.3713,-1.714125 0.22855,-3.085425 2.97115,-2.51405 4.79955,-8.113525 4.79955,-13.141625 v -3.6568 c 0,-7.99925 -3.99962,-19.4267505 -19.88385,-19.4267505 h -22.74072 c -1.71413,0 -2.2855,1.257025 -2.2855,2.0569501 V 80.921381 c 0,1.257025 0.68565,2.171225 1.8284,2.171225 z m 1.94268,-26.626076 c 0.22855,4.34245 -0.22855,8.91345 -3.77108,8.91345 h -3.88535 c -1.14275,0 -2.05695,0 -2.05695,-1.14275 V 51.552705 c 0,-0.9142 0.79993,-1.257025 1.59985,-1.257025 h 3.08543 c 1.02847,0 4.79955,0.9142 5.0281,6.17085 z m -0.68565,-28.7973 c 0,2.628325 -2.62833,5.370925 -5.71375,5.370925 h -2.05695 c -0.68565,0 -1.25703,-0.114275 -1.25703,-0.9142 V 21.72693 c 0,-0.68565 0.4571,-0.9142 1.14275,-0.9142 h 3.31398 c 2.39977,0 4.571,1.59985 4.571,3.771075 z"
       id="text2"
       style="font-size:114.275px;line-height:0.8;font-family:'Rushford Clean';-inkscape-font-specification:'Rushford Clean';letter-spacing:0px;stroke-width:1.05833"
       transform="scale(1.0003756,0.99962455)"
       aria-label="the Dive Club" />
    <path
       d="m 13.370043,78.5153 c 0,0.9142 0.9142,2.05695 2.05695,2.05695 h 13.598725 c 1.14275,0 2.05695,-1.14275 2.05695,-2.05695 V 19.435125 c 0,-0.9142 0.571375,-1.14275 1.028475,-1.14275 h 10.627575 c 1.14275,0 2.05695,-0.9142 2.05695,-2.05695 V 2.6366993 c 0,-1.14275 -0.9142,-2.05695 -2.05695,-2.05695 H 2.0568177 c -1.14275005,0 -2.05695006427,0.9142 -2.05695006427,2.05695 V 16.235425 c 0,1.14275 0.91420001427,2.05695 2.05695006427,2.05695 H 12.455843 c 0.571375,0 0.9142,0.342825 0.9142,1.028475 z m 35.768111,0 c 0,1.14275 0.799925,2.05695 1.942675,2.05695 h 13.713 c 1.257025,0 2.05695,-0.9142 2.05695,-2.05695 V 51.31785 c 0,-1.485575 0.571375,-1.942675 1.59985,-1.942675 h 9.827651 c 1.14275,0 1.59985,0.4571 1.59985,1.485575 V 78.5153 c 0,1.14275 0.9142,2.05695 1.942675,2.05695 h 13.713 c 1.14275,0 2.171225,-0.9142 2.171225,-2.05695 V 2.6366993 c 0,-1.14275 -1.028475,-2.05695 -2.171225,-2.05695 h -13.713 c -1.028475,0 -1.942675,0.9142 -1.942675,2.05695 V 30.634075 c 0,0.68565 -0.4571,1.028475 -1.028475,1.028475 H 67.764979 c -0.571375,0 -0.9142,-0.342825 -0.9142,-1.028475 V 2.6366993 c 0,-1.14275 -0.799925,-2.05695 -2.05695,-2.05695 h -13.713 c -1.14275,0 -1.942675,0.9142 -1.942675,2.05695 z m 52.909256,0 c 0,1.14275 1.02847,2.05695 2.05695,2.05695 h 32.79692 c 1.02848,0 2.05695,-0.9142 2.05695,-2.05695 V 64.916575 c 0,-1.14275 -1.02847,-2.05695 -2.05695,-2.05695 h -15.88422 c -0.68565,0 -1.25703,-0.22855 -1.25703,-1.485575 V 50.6322 c 0,-0.68565 0.57138,-1.257025 1.25703,-1.257025 h 14.97002 c 1.14275,0 2.05695,-0.9142 2.05695,-2.05695 V 33.7195 c 0,-1.257025 -0.9142,-2.05695 -2.05695,-2.05695 h -15.19857 c -0.68565,0 -1.02848,-0.22855 -1.02848,-0.799925 V 19.77795 c 0,-0.9142 0.4571,-1.485575 1.25703,-1.485575 h 15.9985 c 1.14275,0 1.94267,-0.799925 1.94267,-1.942675 V 2.6366993 c 0,-1.14275 -0.79992,-2.05695 -1.94267,-2.05695 h -32.9112 c -1.02848,0 -2.05695,0.9142 -2.05695,2.05695 z m 85.47761,2.05695 c 19.76957,0 24.45485,-12.455975 24.45485,-26.74035 V 26.063075 c 0,-14.741476 -6.28513,-25.4833257 -24.45485,-25.4833257 h -20.22668 c -1.14275,0 -1.59985,1.14275 -1.59985,2.05695 V 78.5153 c 0,0.9142 0.4571,2.05695 1.59985,2.05695 z m 6.74222,-26.5118 c 0,5.9423 -1.8284,8.799175 -6.05657,8.799175 h -3.77108 c -0.68565,0 -1.02847,-0.799925 -1.02847,-1.3713 V 19.5494 c 0,-0.68565 0.4571,-1.257025 1.14275,-1.257025 h 3.77107 c 3.54253,0 5.9423,2.7426 5.9423,7.99925 z m 22.05517,24.45485 c 0,1.14275 0.79992,2.05695 1.94267,2.05695 h 13.713 c 1.25703,0 2.05695,-0.9142 2.05695,-2.05695 V 2.6366993 c 0,-1.14275 -0.79992,-2.05695 -2.05695,-2.05695 h -13.713 c -1.14275,0 -1.94267,0.9142 -1.94267,2.05695 z m 37.59656,0.4571 c 0.34282,1.028475 1.14275,1.59985 2.17122,1.59985 h 15.65568 c 0.9142,0 1.71412,-0.571375 1.94267,-1.3713 L 290.82979,3.0937993 c 0.34283,-1.257025 -0.57137,-2.51405 -1.94267,-2.51405 h -14.74148 c -1.02847,0 -1.8284,0.799925 -1.94267,1.714125 l -5.71375,31.7684507 -1.25703,6.970775 c -0.34282,1.485575 -1.59985,1.59985 -1.94267,0 l -1.25703,-7.08505 -5.59947,-31.6541757 c -0.22855,-0.9142 -1.02848,-1.714125 -1.94268,-1.714125 h -15.19857 c -1.25703,0 -2.2855,1.257025 -1.94268,2.51405 z m 40.22491,-0.4571 c 0,1.14275 1.02848,2.05695 2.05695,2.05695 h 32.79693 c 1.02847,0 2.05695,-0.9142 2.05695,-2.05695 V 64.916575 c 0,-1.14275 -1.02848,-2.05695 -2.05695,-2.05695 h -15.88423 c -0.68565,0 -1.25702,-0.22855 -1.25702,-1.485575 V 50.6322 c 0,-0.68565 0.57137,-1.257025 1.25702,-1.257025 h 14.97003 c 1.14275,0 2.05695,-0.9142 2.05695,-2.05695 V 33.7195 c 0,-1.257025 -0.9142,-2.05695 -2.05695,-2.05695 h -15.19858 c -0.68565,0 -1.02847,-0.22855 -1.02847,-0.799925 V 19.77795 c 0,-0.9142 0.4571,-1.485575 1.25702,-1.485575 h 15.9985 c 1.14275,0 1.94268,-0.799925 1.94268,-1.942675 V 2.6366993 c 0,-1.14275 -0.79993,-2.05695 -1.94268,-2.05695 h -32.9112 c -1.02847,0 -2.05695,0.9142 -2.05695,2.05695 z M 357.10929,40.576 c 0.22855,21.826525 9.25628,42.28175 34.51105,40.339075 2.51405,-0.114275 4.79955,-0.799925 6.62795,-1.485575 0.79993,-0.22855 1.25703,-1.14275 1.25703,-1.8284 V 63.545275 c 0,-1.485575 -1.59985,-2.399775 -3.08543,-1.8284 -5.25665,1.59985 -10.85612,1.8284 -15.0843,-1.485575 -5.0281,-4.34245 -6.05657,-12.7988 -6.05657,-19.6553 0,-6.62795 0.79992,-14.741475 6.05657,-19.88385 4.22818,-3.1997 9.82765,-3.085425 15.0843,-1.3713 1.48558,0.571375 3.08543,-0.342825 3.08543,-1.714125 V 3.5508993 c 0,-0.9142 -0.4571,-1.714125 -1.25703,-1.942675 -1.8284,-0.799925 -4.1139,-1.14275 -6.62795,-1.48557501 C 367.16549,-1.7057507 357.10929,17.149625 357.10929,40.576 Z m 46.73848,37.9393 c 0,1.14275 0.9142,2.05695 2.05695,2.05695 h 33.59685 c 1.02847,0 2.05695,-0.9142 2.05695,-2.05695 V 64.688025 c 0,-1.028475 -1.02848,-1.8284 -2.05695,-1.8284 h -15.9985 c -1.25703,0 -1.94268,-0.4571 -1.94268,-2.05695 V 2.6366993 c 0,-1.14275 -0.9142,-2.05695 -1.94267,-2.05695 h -13.713 c -1.14275,0 -2.05695,0.9142 -2.05695,2.05695 z m 39.76764,-22.969275 c 0,20.912325 12.57025,25.711875 23.54065,25.711875 12.68452,0 24.11202,-3.88535 24.11202,-25.5976 V 2.6366993 c 0,-1.14275 -0.9142,-2.05695 -2.05695,-2.05695 h -13.713 c -1.14275,0 -1.94267,0.9142 -1.94267,2.05695 V 56.34595 c 0,7.199325 -4.45673,7.427875 -6.05658,7.427875 -1.8284,0 -6.17085,-0.114275 -6.17085,-7.427875 V 2.6366993 c 0,-1.14275 -0.9142,-2.05695 -1.94267,-2.05695 h -13.713 c -1.14275,0 -2.05695,0.9142 -2.05695,2.05695 z m 77.47844,25.026225 c 15.76995,0 20.5695,-9.941925 20.5695,-21.25515 v -5.599475 c 0,-5.370925 -1.48558,-10.0562 -6.17085,-13.827275 -2.2855,-1.59985 -1.3713,-1.714125 0.22855,-3.085425 2.97115,-2.51405 4.79955,-8.113525 4.79955,-13.141625 v -3.6568 c 0,-7.999251 -3.99963,-19.4267507 -19.88385,-19.4267507 h -22.74073 c -1.71412,0 -2.2855,1.257025 -2.2855,2.05695 V 78.401025 c 0,1.257025 0.68565,2.171225 1.8284,2.171225 z m 1.94267,-26.626075 c 0.22855,4.34245 -0.22855,8.91345 -3.77107,8.91345 h -3.88535 c -1.14275,0 -2.05695,0 -2.05695,-1.14275 V 49.03235 c 0,-0.9142 0.79992,-1.257025 1.59985,-1.257025 h 3.08542 c 1.02848,0 4.79955,0.9142 5.0281,6.17085 z m -0.68565,-28.7973 c 0,2.628325 -2.62832,5.370925 -5.71375,5.370925 h -2.05695 c -0.68565,0 -1.25702,-0.114275 -1.25702,-0.9142 V 19.206575 c 0,-0.68565 0.4571,-0.9142 1.14275,-0.9142 h 3.31397 c 2.39978,0 4.571,1.59985 4.571,3.771075 z"
       id="text1"
       style="font-size:114.275px;line-height:0.8;font-family:'Rushford Clean';-inkscape-font-specification:'Rushford Clean';letter-spacing:0px;fill:#ffffff;stroke:#000000;stroke-width:1.05833"
       transform="scale(1.0003756,0.99962456)"
       aria-label="the Dive Club" />
  </g>
</svg>
