<?xml version="1.0" encoding="UTF-8" standalone="no"?>
<!-- Created with Inkscape (http://www.inkscape.org/) -->

<svg
   width="2048"
   height="2048"
   viewBox="0 0 541.86666 541.86668"
   version="1.1"
   id="svg1"
   inkscape:version="1.4 (86a8ad7, 2024-10-11)"
   sodipodi:docname="drawing_logo_theDiveClub.svg"
   xmlns:inkscape="http://www.inkscape.org/namespaces/inkscape"
   xmlns:sodipodi="http://sodipodi.sourceforge.net/DTD/sodipodi-0.dtd"
   xmlns="http://www.w3.org/2000/svg"
   xmlns:svg="http://www.w3.org/2000/svg">
  <sodipodi:namedview
     id="namedview1"
     pagecolor="#ffffff"
     bordercolor="#000000"
     borderopacity="0.25"
     inkscape:showpageshadow="2"
     inkscape:pageopacity="0.0"
     inkscape:pagecheckerboard="true"
     inkscape:deskcolor="#d1d1d1"
     inkscape:document-units="mm"
     inkscape:zoom="0.36756309"
     inkscape:cx="866.5179"
     inkscape:cy="907.32722"
     inkscape:window-width="2560"
     inkscape:window-height="1369"
     inkscape:window-x="-8"
     inkscape:window-y="-8"
     inkscape:window-maximized="1"
     inkscape:current-layer="svg1" />
  <defs
     id="defs1" />
  <path
     id="rect26"
     style="opacity:0.900783;fill:#26263f;fill-opacity:1;stroke-width:1.70767"
     d="m 94.642573,41.750213 c 118.486947,-18.23572 236.014117,-18.23572 352.581517,0 V 337.23764 C 411.63863,438.15362 359.0787,477.49506 270.93333,513.79324 182.78795,477.49506 94.642573,408.69793 94.642573,337.23764 Z"
     sodipodi:nodetypes="cccccc"
     inkscape:label="Badge" />
  <text
     xml:space="preserve"
     style="font-size:79.3012px;line-height:0.8;font-family:'Million Astteroids';-inkscape-font-specification:'Million Astteroids';text-align:start;letter-spacing:0px;writing-mode:lr-tb;direction:ltr;text-anchor:start;fill:#cfcfcf;fill-opacity:1;stroke-width:4.9571;stroke-opacity:0.4"
     x="139.31862"
     y="190.43654"
     id="text2"
     transform="matrix(0.99127806,-0.13462352,-0.14816585,1.0289208,0,0)"
     inkscape:label="txt_The"><tspan
       sodipodi:role="line"
       id="tspan2"
       style="font-style:normal;font-variant:normal;font-weight:normal;font-stretch:normal;font-family:'Rushford Clean';-inkscape-font-specification:'Rushford Clean';fill:#cfcfcf;fill-opacity:1;stroke-width:4.9571"
       x="139.31862"
       y="190.43654">the</tspan></text>
  <path
     id="path28"
     style="opacity:0.900783;fill:none;fill-opacity:1;stroke:#cfcfcf;stroke-width:3.175;stroke-dasharray:none;stroke-opacity:1"
     d="m 100.04131,49.257521 c 114.8584,-17.677269 228.78642,-17.677269 341.78405,0 V 333.99853 C 407.32967,431.82406 356.37934,469.96071 270.93334,505.14729 185.48732,469.96071 100.04131,403.27042 100.04131,333.99853 Z"
     sodipodi:nodetypes="cccccc"
     inkscape:label="Badge_Outline" />
  <text
     xml:space="preserve"
     style="font-size:143.854px;line-height:0.8;font-family:'Million Astteroids';-inkscape-font-specification:'Million Astteroids';text-align:start;letter-spacing:0px;writing-mode:lr-tb;direction:ltr;text-anchor:start;fill:#cfcfcf;fill-opacity:1;stroke-width:8.99224;stroke-opacity:0.4"
     x="91.460121"
     y="299.2485"
     id="text28"
     transform="matrix(0.99118144,-0.13431893,-0.1551263,1.0299188,0,0)"
     inkscape:label="txt_theDiveClub_shadow"><tspan
       sodipodi:role="line"
       id="tspan28"
       style="font-style:normal;font-variant:normal;font-weight:normal;font-stretch:normal;font-family:'Rushford Clean';-inkscape-font-specification:'Rushford Clean';fill:#cfcfcf;fill-opacity:1;stroke-width:8.99224"
       x="91.460121"
       y="299.2485">DiveClub</tspan></text>
  <text
     xml:space="preserve"
     style="font-size:143.854px;line-height:0.8;font-family:'Million Astteroids';-inkscape-font-specification:'Million Astteroids';text-align:start;letter-spacing:0px;writing-mode:lr-tb;direction:ltr;text-anchor:start;fill:#0a0a0a;fill-opacity:1;stroke-width:8.99224;stroke-opacity:0.4"
     x="86.992706"
     y="293.33536"
     id="text1"
     transform="matrix(0.99118144,-0.13431893,-0.1551263,1.0299188,0,0)"
     inkscape:label="txt_theDiveClub"><tspan
       sodipodi:role="line"
       id="tspan1"
       style="font-style:normal;font-variant:normal;font-weight:normal;font-stretch:normal;font-family:'Rushford Clean';-inkscape-font-specification:'Rushford Clean';fill:#0a0a0a;fill-opacity:1;stroke-width:8.99224"
       x="86.992706"
       y="293.33536">DiveClub</tspan></text>
  <g
     id="g26"
     inkscape:label="icon"
     transform="matrix(0.86691006,0,0,0.86691006,-473.93625,383.0371)">
    <g
       id="g8"
       transform="matrix(1.1376672,0,0,1.1376672,1148.5214,-555.30822)"
       style="display:inline"
       inkscape:label="Pool">
      <path
         style="display:inline;fill:#cfcfcf;fill-opacity:1;stroke-width:1.85121"
         d="m -309.2145,490.39764 c -34.84988,-16.93228 -68.33125,-33.12297 -102.87899,-50.18021 -10.09456,-6.92507 -13.73688,-16.96286 -6.208,-24.16343 2.68049,-2.88107 8.05052,-4.97549 12.35358,-7.19182 13.44705,-3.91859 29.55851,-4.74459 44.28607,-7.17689 73.56037,-10.04409 146.93667,-20.39768 220.61245,-30.24777 15.00895,-1.99555 32.41592,0.97144 43.080439,7.24418 10.936825,5.84936 14.037929,14.52205 10.002635,21.82512 -17.117474,42.98097 -34.723434,85.90689 -51.536244,128.92217 -1.42806,4.25183 -6.22355,7.77333 -12.3445,10.55918 -8.28927,4.37167 -21.22791,5.67932 -33.2739,4.97224 -10.54803,-0.93823 -20.39592,-3.77171 -27.64724,-8.00294 -32.14938,-15.51959 -64.29741,-31.03994 -96.44631,-46.55981 z"
         id="path23"
         sodipodi:nodetypes="scccccccccccss"
         inkscape:label="Pool" />
      <path
         style="fill:#0a0a0a;fill-opacity:1;stroke-width:1.63135"
         d="m -300.58644,481.38681 c -31.46128,-14.46733 -61.68679,-28.30044 -92.87635,-42.87656 -9.12079,-5.93222 -12.4407,-14.57128 -5.68562,-20.80575 2.40379,-2.49329 7.23362,-4.3184 11.10171,-6.24467 12.09938,-3.42719 26.61101,-4.1984 39.86971,-6.34915 66.23188,-8.92826 132.29673,-18.12262 198.63335,-26.88406 13.51388,-1.7753 29.2072,0.71821 38.83895,6.08603 9.87544,5.0019 12.702533,12.46622 9.0952,18.77621 -15.256,37.11195 -30.95229,74.17825 -45.9337,111.31866 -1.27021,3.67028 -5.57693,6.7234 -11.08059,9.14727 -7.451,3.79878 -19.10238,4.97352 -29.95731,4.40829 -9.50633,-0.76997 -18.38916,-3.17619 -24.93812,-6.79681 -29.02296,-13.25952 -58.04472,-26.51969 -87.06724,-39.77944 z"
         id="path7"
         sodipodi:nodetypes="scccccccccccss"
         inkscape:label="Pool" />
      <path
         id="path8"
         style="fill:#2b9fa6;fill-opacity:1;stroke:none;stroke-width:1.63135;stroke-opacity:1"
         d="m -138.94293,377.4499 c -3.52213,-0.068 -7.03691,0.10911 -10.41538,0.55294 -66.33662,8.76144 -132.40147,17.95588 -198.63335,26.88414 -13.2587,2.15075 -27.94681,2.35147 -39.86992,6.34897 -4.09705,1.37363 -8.69786,3.75181 -11.10165,6.2451 -9.30414,8.58708 -0.96895,18.00985 5.50044,21.0292 1.85353,-0.91621 3.70659,-2.08294 5.60121,-2.67167 12.00897,-3.73165 26.61122,-4.19873 39.86992,-6.34948 66.23188,-8.92826 132.29673,-18.12271 198.63335,-26.88415 13.51388,-1.7753 29.20722,0.71863 38.83897,6.08645 2.08098,1.05402 3.7725,2.08226 5.23328,3.32111 1.28024,-3.10045 2.58701,-6.04609 3.86177,-9.14711 3.607337,-6.30999 0.78039,-13.77473 -9.09505,-18.77663 -7.22381,-4.02586 -17.85718,-6.43491 -28.42359,-6.63887 z"
         sodipodi:nodetypes="sccsccsccccccs"
         inkscape:label="Pool_Inner" />
    </g>
    <g
       id="g11"
       inkscape:label="Stairs_Shadow"
       transform="translate(616.01878,-469.23811)">
      <path
         style="display:inline;fill:#000000;fill-opacity:0.211429"
         d="m 67.505859,384.85337 -0.582031,1.04897 11.351563,3.24805 -0.152344,18.65874 1.250698,1.25296 0.01108,-20.91535 z"
         id="path9"
         sodipodi:nodetypes="ccccccc" />
      <path
         style="display:inline;fill:#000000;fill-opacity:0.211429"
         d="m 73.886343,379.94496 -0.708609,0.75745 13.48628,2.90981 -0.152344,28.34576 1.485492,-0.78591 0.04451,-28.17338 z"
         id="path10"
         sodipodi:nodetypes="ccccccc" />
      <path
         style="display:inline;fill:#000000;fill-opacity:0.211429"
         d="m 86.607596,394.10952 -7.228311,4.49489 -0.0134,1.83984 7.231679,-4.49488 z"
         id="path11"
         sodipodi:nodetypes="ccccc" />
    </g>
    <g
       id="g15"
       transform="matrix(-1,0,0,1,736.55454,-516.58664)"
       style="stroke:#ffffff;stroke-opacity:1"
       inkscape:label="Stairs">
      <path
         style="fill:#ffffff;stroke:none;stroke-linecap:round;stroke-linejoin:round"
         d="m 34.708984,408.91406 c -7.738074,0.59206 -14.958932,6.97319 -16.103515,17.89649 -0.0038,0.0357 -0.0058,0.0715 -0.0059,0.10742 l -0.126953,41.24829 2.117188,-0.98391 L 20.716797,427 c 1.069403,-10.08385 7.463457,-15.46463 14.154297,-15.97656 6.698183,-0.5125 13.831869,3.81538 16.46289,14.25586 0.796517,3.16097 0.732422,6.96484 0.732422,6.96484 -0.01204,0.58471 0.452389,1.06839 1.03711,1.08008 0.583967,0.012 1.067323,-0.45121 1.080078,-1.03516 0,0 0.101888,-3.96061 -0.796875,-7.52734 -2.823379,-11.2038 -10.93966,-16.43971 -18.677735,-15.84766 z"
         id="path12"
         sodipodi:nodetypes="ssccccssccccs" />
      <path
         style="fill:#ffffff;stroke:none;stroke-linecap:round;stroke-linejoin:round"
         d="m 28.347656,403.82422 c -7.738074,0.59206 -14.958932,6.97318 -16.103515,17.89648 -0.0038,0.0357 -0.0058,0.0715 -0.0059,0.10742 l -0.128906,49.29146 2.117188,-0.982 0.128906,-48.22742 c 1.069404,-10.08386 7.461505,-15.46464 14.152343,-15.97657 6.698183,-0.51249 13.83187,3.81538 16.462891,14.25586 0.796517,3.16097 0.734375,6.96485 0.734375,6.96485 -0.01204,0.58396 0.451208,1.06731 1.035156,1.08007 0.583964,0.012 1.067317,-0.4512 1.080078,-1.03515 0,0 0.101888,-3.96061 -0.796875,-7.52735 -2.823378,-11.20379 -10.937706,-16.43971 -18.675781,-15.84765 z"
         id="path13"
         sodipodi:nodetypes="ssccccssccccss" />
      <path
         style="fill:none;fill-opacity:1;stroke:#ffffff;stroke-width:2.117;stroke-linecap:butt;stroke-linejoin:round;stroke-dasharray:none;stroke-opacity:1"
         d="m 19.59485,449.19287 -6.35166,-5.2361"
         id="path14" />
      <path
         style="fill:none;fill-opacity:1;stroke:#ffffff;stroke-width:2.117;stroke-linecap:butt;stroke-linejoin:round;stroke-dasharray:none;stroke-opacity:1"
         d="m 19.531225,466.55879 -6.35166,-5.2361"
         id="path15" />
    </g>
    <g
       id="g21"
       transform="matrix(0.79069994,0,0,0.79069994,1097.8748,-437.76319)"
       style="display:inline"
       inkscape:label="Diver">
      <path
         style="fill:#2b9fa6;fill-opacity:1;stroke:none;stroke-width:2.11667;stroke-linecap:round;stroke-linejoin:bevel"
         d="m -316.93853,134.94425 c 0,0 0.54921,9.74741 5.253,20.38836 0.75804,5.72203 -2.56141,18.62389 -5.57869,25.19408 11.37415,-3.00062 18.16106,10.82703 12.95696,27.7135 0.53093,-0.0856 1.1865,-0.43387 1.61962,-0.71983 3.19632,-21.65348 32.07393,-13.54336 8.00811,2.78934 0.0359,0.84235 -0.09,1.52965 -0.09,1.52965 0,0 8.34245,-6.23847 10.43756,-9.89768 7.8556,-13.72014 0.60997,-27.07361 2.96932,-38.87087 4.51854,-22.59375 3.86909,-25.01414 3.86909,-25.01414 l -11.51731,-15.47637 z"
         id="path16"
         sodipodi:nodetypes="cccccccssccc" />
      <path
         style="display:inline;fill:#d6d6d6"
         d="m -309.50473,291.58855 -0.3969,-0.01 -0.7276,-0.39473 -0.7276,-0.39473 v -0.60009 -0.60009 l 0.314,-0.314 0.314,-0.31399 -0.6294,-0.67004 -0.6295,-0.67003 -1.3382,-0.83517 -1.3382,-0.83518 -1.2433,-1.26853 -1.2433,-1.26853 -0.1261,-0.86779 -0.1261,-0.86778 -0.3145,-2.24896 -0.3144,-2.24896 -0.2208,-2.64583 -0.2207,-2.64584 -0.2758,-2.38125 -0.2759,-2.38125 -0.3142,-3.04271 -0.3143,-3.0427 -0.019,-5.69424 -0.019,-5.69423 -0.8599,-1.34039 -0.8599,-1.34039 v -1.58635 -1.58636 l 0.2562,-1.43319 0.2563,-1.43319 0.3962,-2.38125 0.3962,-2.38125 0.4309,-6.41463 0.4309,-6.41464 -0.3042,-2.28604 -0.3042,-2.28603 -0.4151,-1.61808 -0.415,-1.61808 0.1622,-1.85208 0.1622,-1.85208 0.6494,-1.89963 0.6495,-1.89962 0.5531,-1.0843 0.5532,-1.0843 2.1172,-2.17545 2.1172,-2.17545 0.7722,-1.50586 0.7722,-1.50586 0.3976,-1.40456 0.3976,-1.40456 0.1118,-3.57187 0.1118,-3.57188 0.4558,-1.85208 0.4557,-1.85208 0.4047,-0.98085 0.4048,-0.98085 0.7271,0.37604 0.7272,0.37603 0.687,0.81643 0.6869,0.81644 -0.2381,0.44984 -0.2381,0.44983 -0.5868,1.93048 -0.5867,1.93048 0.1552,1.66161 0.1551,1.66161 0.5701,1.435 0.5701,1.43499 v 1.19479 1.19478 l -0.6545,1.31876 -0.6545,1.31875 -0.3682,0.66438 -0.3682,0.66438 -1.3948,1.71687 -1.3947,1.71687 -0.8912,1.06966 -0.8911,1.06966 -0.6907,1.01778 -0.6907,1.01779 v 0.35995 0.35996 l 0.5292,0.52916 0.5292,0.52917 h 0.8761 0.8762 l 0.5555,0.5175 0.5554,0.5175 0.1668,0.75945 0.1668,0.75945 -0.2997,0.77357 -0.2998,0.77357 -0.2475,1.71158 -0.2474,1.71159 -0.6788,1.46341 -0.6789,1.46342 -0.5015,2.38125 -0.5016,2.38125 -0.2907,5.02708 -0.2907,5.02709 -0.8134,6.35 -0.8133,6.35 -0.1137,8.73125 -0.1136,8.73125 0.557,6.08541 0.557,6.08542 0.2315,1.45423 0.2315,1.45423 0.7455,0.53014 0.7456,0.53015 1.2019,1.08752 1.2019,1.08752 0.5779,0.30154 0.5779,0.30154 h 0.5069 0.5069 l 1.0431,-0.75561 1.0431,-0.75562 0.3416,-1.16261 0.3416,-1.16261 0.8066,-2.51355 0.8067,-2.51354 0.3459,-0.56162 0.3459,-0.56163 0.4282,-1.68733 0.4282,-1.68733 0.4841,-1.32292 0.484,-1.32292 0.4416,-2.1708 0.4416,-2.1708 0.2394,-4.31149 0.2393,-4.31149 0.2824,-1.5875 0.2824,-1.5875 0.4835,-0.66146 0.4835,-0.66146 0.4212,-0.0829 0.4212,-0.0829 0.9845,1.48276 0.9844,1.48275 0.4184,-0.0822 0.4184,-0.0822 -0.019,-1.31765 -0.019,-1.31765 -0.3519,-3.75314 -0.3518,-3.75315 0.4191,-1.8031 0.4191,-1.80311 0.4163,-2.51354 0.4163,-2.51354 0.6353,-4.11073 0.6354,-4.11073 0.5238,-0.91635 0.5239,-0.91636 0.5664,-1.85208 0.5663,-1.85208 0.2767,-0.86667 0.2767,-0.86668 -0.4487,-2.26127 -0.4488,-2.26127 0.1333,-1.18257 0.1333,-1.18257 0.7589,-1.22457 0.7589,-1.22456 0.2645,-0.0874 0.2646,-0.0874 v 4.82869 4.8287 l 0.3448,1.05833 0.3447,1.05833 0.1458,3.3073 0.1458,3.30729 -0.2853,3.57187 -0.2853,3.57188 -0.2861,3.30729 -0.2862,3.30729 -0.5332,4.10104 -0.5331,4.10104 -0.6452,2.91042 -0.6453,2.91042 -0.5493,1.98437 -0.5494,1.98438 -0.6641,2.11666 -0.6641,2.11667 -0.344,0.79375 -0.3439,0.79375 -0.1876,0.66146 -0.1876,0.66146 -1.6706,3.43958 -1.6706,3.43958 -0.9931,2.77813 -0.9931,2.77812 -0.7338,1.89774 -0.7338,1.89774 -1.0912,1.93872 -1.0913,1.93872 -0.5786,0.45714 -0.5786,0.45713 -0.3968,0.007 -0.3969,0.007 -1.5875,0.79176 -1.5875,0.79176 z m 8.7653,-60.57799 h -0.4574 l -0.2655,-0.26553 -0.2655,-0.26552 -1.5201,-0.39593 -1.5201,-0.39594 h -0.7922 -0.7922 l -1.3134,-1.2286 -1.3135,-1.2286 -0.5408,-0.87504 -0.5408,-0.87504 -0.08,-4.18021 -0.08,-4.18022 0.8895,-1.71979 0.8895,-1.71979 0.4896,-0.85169 0.4896,-0.85169 0.7585,-1.0004 0.7586,-1.00039 0.5359,-0.44998 0.5358,-0.44998 0.6876,-0.15756 0.6875,-0.15755 0.9,-0.93757 0.8999,-0.93756 1.7198,-1.11065 1.7198,-1.11064 1.1987,-0.69481 1.1987,-0.6948 0.9824,-0.1843 0.9824,-0.18429 0.6631,0.16645 0.6632,0.16645 v 0.59027 0.59027 l -0.6583,1.15149 -0.6583,1.15149 v 0.51046 0.51046 l -0.3968,0.1523 -0.3969,0.15229 v 0.51158 0.51157 l -0.581,0.78588 -0.5811,0.78589 0.3321,2.70913 0.3322,2.70913 0.5496,1.15039 0.5496,1.15038 1.2962,1.48122 1.2962,1.48121 -0.083,0.41111 -0.083,0.41111 -0.7865,-0.0957 -0.7865,-0.0957 -1.6778,-0.004 -1.6779,-0.004 -1.0729,0.76073 -1.0729,0.76073 -0.5063,0.92605 -0.5062,0.92604 0.1698,2.40684 0.1698,2.40685 -0.4374,0.43742 -0.4375,0.43743 z m -3.1512,-94.20032 -0.6036,0.009 -0.1667,-0.43428 -0.1666,-0.43429 0.3279,-2.40998 0.328,-2.40999 0.374,-2.77812 0.3739,-2.77813 v -2.64583 -2.64583 l -0.2506,-3.3073 -0.2506,-3.30729 -0.2934,-2.91041 -0.2934,-2.91042 -0.5215,-2.77813 -0.5216,-2.77812 -0.5424,-1.85208 -0.5424,-1.852088 -0.5027,-1.07572 -0.5027,-1.07572 v -0.29822 -0.29821 l -0.4996,-0.87502 -0.4995,-0.875024 -0.2803,-1.7198 -0.2803,-1.71979 -0.144,-2.45616 -0.1439,-2.45615 -0.432,-0.85114 -0.4321,-0.85113 -0.8551,-1.05833 -0.8551,-1.05834 -0.5685,-1.11641 -0.5684,-1.11641 -0.3956,-1.51886 -0.3956,-1.51887 0.017,-2.65639 0.017,-2.65639 0.2383,-2.24896 0.2383,-2.24896 0.2871,-3.571871 0.2872,-3.57188 0.2249,-4.10104 0.225,-4.10104 0.5699,-2.91042 0.5698,-2.91041 -0.08,-2.24896 -0.08,-2.24896 -0.9921,-2.00411 -0.9922,-2.00411 v -0.52188 -0.52188 l 1.0616,-1.03663 1.0616,-1.03663 0.2615,-0.9353 0.2615,-0.93529 0.4242,-2.38125 0.4242,-2.38125 0.055,-3.83646 0.055,-3.83646 0.704,-1.36584 0.704,-1.36584 0.7771,-0.55333 0.7771,-0.55332 1.7939,-0.76528 1.7939,-0.76528 0.3339,0.12816 0.334,0.12815 0.3157,0.95669 0.3158,0.9567 -0.1865,6.49439 -0.1864,6.49438 -0.3707,1.5875 -0.3707,1.5875 -0.6555,3.57188 -0.6556,3.57187 -0.2709,2.24896 -0.2709,2.24896 -0.2852,3.30729 -0.2852,3.30729 0.4024,3.83646 0.4025,3.83646 0.2738,2.38125 0.2737,2.38125 0.157,0.39688 0.1569,0.39687 0.2146,2.513541 0.2145,2.51354 0.2981,2.51355 0.298,2.51354 0.258,1.32291 0.258,1.32292 0.2559,2.37571 0.2559,2.37571 0.7734,1.59304 0.7734,1.59304 0.8636,2.11667 0.8637,2.11666 0.3185,0.39688 0.3185,0.39687 0.4287,0.84676 0.4288,0.84676 v 0.50662 0.50663 l 0.4907,0.63099 0.4907,0.63099 0.3385,1.05834 0.3384,1.058334 0.8907,1.69352 0.8906,1.69352 v 0.5346 0.534608 l 0.366,0.41771 0.366,0.41771 0.7148,2.77812 0.7148,2.77813 0.3672,1.71979 0.3671,1.71979 0.5331,4.49792 0.5332,4.49791 v 2.70612 2.70612 l -0.6615,1.46107 -0.6615,1.46107 -0.6693,1.47724 -0.6694,1.47724 -1.0268,1.38989 -1.0268,1.38988 -1.2082,1.0635 -1.2082,1.0635 -1.4666,0.46131 -1.4667,0.46132 -1.7805,0.22961 -1.7806,0.22961 z m 24.92,-0.78649 -0.2393,-0.001 -0.6971,-0.46163 -0.6971,-0.46163 -1.4275,-1.08979 -1.4274,-1.0898 -1.4248,-1.55603 -1.4247,-1.55604 -0.8401,-1.32292 -0.84,-1.32292 -0.307,-0.89938 -0.307,-0.89937 -0.01,-1.74646 -0.01,-1.74645 -0.254,-2.61258 -0.2541,-2.61257 -0.023,-1.35618 -0.022,-1.35617 -0.3617,-1.98438 -0.3617,-1.98437 -0.2601,-1.45521 -0.2601,-1.45521 -0.6573,-2.24896 -0.6574,-2.24896 -0.8349,-2.24896 -0.8349,-2.248948 -0.1602,-0.52917 -0.1601,-0.52917 -0.7498,-1.39502 -0.7497,-1.395034 v -0.39672 -0.39672 l -0.8018,-1.64784 -0.8018,-1.64783 -1.1809,-2.24896 -1.181,-2.24896 v -0.35605 -0.35605 l -0.3911,-0.70229 -0.391,-0.70228 -0.5567,-1.5875 -0.5568,-1.5875 -0.2465,-2.11666 -0.2465,-2.11667 -0.2472,-0.57757 -0.2471,-0.57757 0.1476,-0.91009 0.1477,-0.91009 -0.3118,-1.42276 -0.3119,-1.42275 -0.2372,-1.98438 -0.2373,-1.98437 -0.4109,-3.439591 -0.4109,-3.43958 -0.3915,-3.70417 -0.3916,-3.70416 0.01,-1.85209 0.01,-1.85208 0.5125,-4.23333 0.5125,-4.23334 0.5325,-3.0427 0.5325,-3.04271 0.3198,-1.25677 0.3199,-1.25677 h 0.194 0.1941 l 0.2763,0.85989 0.2763,0.8599 0.2704,2.11666 0.2704,2.11667 0.2697,7.40833 0.2698,7.40834 0.2745,3.70416 0.2745,3.70417 0.3895,2.38125 0.3894,2.38125 0.7985,3.836461 0.7986,3.83646 0.3894,1.45521 0.3894,1.4552 0.923,4.36563 0.9229,4.36562 0.2962,1.45521 0.2963,1.45521 0.7888,2.38125 0.7888,2.38125 0.9285,2.24896 0.9285,2.248964 2.1098,4.762498 2.1099,4.7625 0.2289,0.52916 0.2288,0.52917 0.5096,1.19062 0.5095,1.19063 0.6888,2.11667 0.6888,2.11666 0.9638,3.70417 0.9638,3.70417 0.6567,2.77812 0.6567,2.77813 0.3611,1.85208 0.3612,1.85208 0.1826,3.24115 0.1825,3.24114 z"
         id="path17" />
      <path
         style="display:inline;fill:#ffffff;fill-opacity:1"
         d="m -315.77857,295.15457 c -0.21927,0.0298 -0.14513,0.10809 -0.6615,0.0897 -0.51637,-0.0184 -1.58745,-0.3317 -2.3812,-0.49755 -0.79375,-0.16585 -1.93047,-0.22549 -2.3813,-0.49756 -0.45083,-0.27207 -0.30867,-0.37337 -0.463,-0.56005 -0.15433,-0.18668 -0.40924,-0.41064 -0.463,-0.56005 -0.0538,-0.14941 0,-0.15071 0,-0.22607 0,-0.0753 -0.0862,0.003 0,-0.22606 0.0862,-0.22894 0.54618,-0.62211 0.8193,-0.93317 0.27312,-0.31106 0.73655,-0.51603 0.8194,-0.93317 0.0828,-0.41714 -0.28167,-0.82655 -0.4225,-1.23983 -0.14083,-0.41328 -0.33932,-0.73858 -0.4225,-1.23984 -0.0832,-0.50126 -5.3e-4,-1.15921 -8e-4,-1.73881 -2.7e-4,-0.5796 0.0576,-1.0489 -8e-4,-1.7388 -0.0584,-0.6899 -0.26988,-1.5875 -0.4048,-2.38125 -0.13492,-0.79375 -0.27495,-1.67584 -0.4047,-2.38125 -0.12975,-0.70541 -0.24447,-1.23473 -0.3667,-1.85209 -0.12223,-0.61736 -0.25888,-1.23455 -0.3667,-1.85208 -0.10782,-0.61753 -0.18695,-1.23472 -0.2804,-1.85208 -0.0934,-0.61736 -0.16393,-1.10235 -0.2803,-1.85209 -0.11637,-0.74974 -0.28058,-1.76389 -0.4209,-2.64583 -0.14032,-0.88194 -0.23625,-1.65274 -0.421,-2.64583 -0.18475,-0.99309 -0.47013,-2.20487 -0.7052,-3.3073 -0.23507,-1.10243 -0.57335,-2.02282 -0.7052,-3.30729 -0.13185,-1.28447 0.016,-2.91041 0.024,-4.36562 0.008,-1.45521 -0.0495,-2.86176 0.024,-4.36563 0.0735,-1.50387 0.28645,-3.09898 0.4297,-4.64847 0.14325,-1.54949 0.39881,-2.99048 0.4298,-4.64846 0.031,-1.65798 -0.19293,-3.51561 -0.2894,-5.27341 -0.0965,-1.7578 -0.26419,-3.29044 -0.2894,-5.27341 -0.0252,-1.98297 0.12968,-4.40972 0.1945,-6.61458 0.0648,-2.20486 0.15724,-4.5639 0.1944,-6.61458 0.0372,-2.05068 0.026,-3.79236 0.039,-5.68854 0.013,-1.89618 -0.17603,-4.38637 0.039,-5.68855 0.21503,-1.30218 0.46833,-1.41111 0.7025,-2.11666 0.23417,-0.70555 0.42996,-1.35974 0.7025,-2.11667 0.27254,-0.75693 0.62727,-1.61358 0.9409,-2.42037 0.31363,-0.80679 0.62768,-1.34212 0.9409,-2.42037 0.31322,-1.07825 0.53388,-2.70795 0.8008,-4.06192 0.26692,-1.35397 0.4668,-2.61174 0.8007,-4.06192 0.3339,-1.45018 0.81445,-3.08681 1.2217,-4.63021 0.40725,-1.5434 1.10514,-4.29598 1.2218,-4.63021 0.11666,-0.33423 0.27444,-0.64193 0.39102,-0.81836 14.20041,-2.3882 15.56124,13.66264 14.30895,21.72044 -1.25229,8.0578 -1.56697,5.26623 -1.00597,5.52098 0.26674,-0.1429 0.3499,0.70374 0.4579,-0.49389 7.39077,-23.6051 31.68644,-10.27178 8.77275,3.36999 0.27613,0.45304 0.003,0.81788 0.34205,0.73143 0.33862,-0.0865 1.4364,-1.08555 2.1546,-1.62833 0.7182,-0.54278 1.56405,-1.15692 2.1546,-1.62833 0.59055,-0.47141 0.93453,-0.86055 1.4018,-1.25426 0.46727,-0.39371 1.38778,-1.63454 1.73359,-1.61978 -0.007,0.23922 0.029,0.41219 0.0129,0.85643 -0.0161,0.44424 -0.21985,1.00843 -0.3298,1.51265 -0.10995,0.50422 -0.20163,0.88599 -0.3299,1.51266 -0.12827,0.62667 -0.28687,1.49931 -0.4303,2.24896 -0.14343,0.74965 -0.34028,1.29832 -0.4303,2.24896 -0.09,0.95064 5.2e-4,2.29305 8e-4,3.43958 2.8e-4,1.14653 -0.10757,2.41403 9e-4,3.43958 0.10847,1.02555 0.3828,1.7916 0.5742,2.6874 0.1914,0.8958 0.48983,1.88797 0.5742,2.68739 0.0844,0.79942 -2.8e-4,1.38341 -4e-4,2.07511 -1.2e-4,0.6917 0.0585,0.69048 -3e-4,2.0751 -0.0588,1.38462 -0.35213,4.14514 -0.5282,6.21771 -0.17607,2.07257 -0.37155,4.56437 -0.5282,6.21771 -0.15665,1.65334 -0.25818,2.46945 -0.3873,3.70417 -0.12912,1.23472 -0.2456,2.69036 -0.3874,3.70416 -0.1418,1.0138 -0.27862,1.5875 -0.4179,2.38125 -0.13928,0.79375 -0.2578,1.60929 -0.4178,2.38125 -0.16,0.77196 -0.35907,1.49931 -0.5386,2.24896 -0.17953,0.74965 -0.32126,1.43243 -0.5386,2.24896 -0.21734,0.81653 -0.5172,1.76389 -0.7758,2.64583 -0.2586,0.88194 -0.48674,1.76337 -0.7758,2.64584 -0.28906,0.88247 -0.63962,1.76389 -0.9594,2.64583 -0.31978,0.88194 -0.64435,1.91299 -0.9593,2.64583 -0.31495,0.73284 -0.58822,1.17543 -0.8823,1.76314 -0.29408,0.58771 -0.57942,1.09981 -0.8822,1.76314 -0.30278,0.66333 -0.61287,1.48049 -0.9193,2.22073 -0.30643,0.74024 -0.55574,1.28135 -0.9193,2.22074 -0.36356,0.93939 -0.82313,2.28297 -1.2347,3.42446 -0.41157,1.14149 -0.81618,2.45896 -1.2347,3.42446 -0.41852,0.9655 -0.8104,1.5875 -1.2156,2.38125 -0.4052,0.79375 -0.67747,1.63564 -1.2156,2.38125 -0.53813,0.74561 -1.33093,1.34992 -1.9964,2.02488 -0.66547,0.67496 -1.39548,1.71821 -1.9964,2.02489 -0.60092,0.30668 -0.79373,0.12103 -1.1906,0.18154 -0.39687,0.0605 -0.7483,0.0512 -1.1906,0.18154 -0.4423,0.13036 -0.9502,0.42653 -1.4253,0.63979 -0.4751,0.21326 -0.93322,0.50945 -1.4253,0.63979 -0.49208,0.13034 -0.99007,0.0953 -1.4851,0.14294 -0.49503,0.0476 -1.12881,0.10149 -1.4851,0.14293 -0.35629,0.0414 -0.43483,0.0594 -0.6541,0.0893 z m 6.2779,-9.95494 c 0.22782,-0.0272 0.45792,0.0478 0.6813,-0.0818 0.22338,-0.12956 0.34327,-0.46187 0.5149,-0.69281 0.17163,-0.23094 0.33809,-0.2994 0.5149,-0.69282 0.17681,-0.39342 0.23473,-1.12562 0.3521,-1.68843 0.11737,-0.56281 0.20233,-1.09745 0.3521,-1.68844 0.14977,-0.59099 0.36955,-1.23472 0.5543,-1.85208 0.18475,-0.61736 0.39231,-1.23431 0.5542,-1.85209 0.16189,-0.61778 0.27847,-1.23472 0.4177,-1.85208 0.13923,-0.61736 0.28656,-1.25673 0.4177,-1.85208 0.13114,-0.59535 0.24653,-1.14654 0.3698,-1.7198 0.12327,-0.57326 0.18471,-0.53264 0.3698,-1.71979 0.18509,-1.18715 0.3538,-3.61597 0.5307,-5.42396 0.1769,-1.80798 0.34604,-4.1864 0.5307,-5.42395 0.18466,-1.23755 0.2708,-1.34477 0.4062,-2.01716 0.1354,-0.67238 0.24071,-1.44398 0.4062,-2.01715 0.16549,-0.57317 0.36068,-0.94829 0.541,-1.42243 0.18032,-0.47414 0.36633,-0.95492 0.5409,-1.42243 0.17457,-0.46751 0.33788,-0.92163 0.5068,-1.38245 0.16892,-0.46082 0.32491,-0.35821 0.5067,-1.38245 0.18179,-1.02424 0,-3.17941 0,-4.76911 0,-1.5897 0.59389,-4.17522 0,-4.76911 -0.59389,-0.59389 -0.18012,0 -0.2702,0 -0.0901,0 -0.023,-0.0744 -0.2703,0 -0.24732,0.0744 -0.71127,0.47069 -1.0669,0.70603 -0.35563,0.23534 -0.53839,0.53018 -1.0669,0.70604 -0.52851,0.17586 -1.3728,0.0795 -2.0592,0.11921 -0.6864,0.0397 -1.49365,0.22172 -2.0592,0.1192 -0.56555,-0.10252 -0.845,-0.37377 -1.2675,-0.56066 -0.4225,-0.18689 -0.92865,-0.48753 -1.2675,-0.56066 -0.33885,-0.0731 -0.46258,-0.004 -0.6939,-0.006 -0.23132,-0.002 -0.38289,0.0627 -0.694,-0.006 -0.31111,-0.0687 -0.73913,-0.33557 -1.1087,-0.50335 -0.36957,-0.16778 -0.83836,-0.5655 -1.1087,-0.50335 -0.27034,0.0622 -0.1902,0.2292 -0.2853,0.3438 -0.0951,0.1146 0.0438,-0.39058 -0.2853,0.34379 -0.32909,0.73437 -0.43622,2.88836 -0.6543,4.33255 -0.21808,1.44419 -0.48273,2.61743 -0.6542,4.33256 -0.17147,1.71513 -0.19635,3.96874 -0.2945,5.95312 -0.0981,1.98438 -0.29309,3.90332 -0.2944,5.95313 -0.001,2.04981 0.20333,4.22076 0.305,6.33114 0.10167,2.11038 0.16991,4.76633 0.305,6.33114 0.13509,1.56481 0.25458,2.04105 0.3819,3.06157 0.12732,1.02052 0.33691,2.33594 0.382,3.06156 0.0451,0.72562 0,0.85119 0,1.27679 0,0.4256 -0.15359,0.94853 0,1.2768 0.15359,0.32827 0.45947,0.38353 0.6892,0.57529 0.22973,0.19176 0.33163,0.26898 0.6892,0.57529 0.35757,0.30631 0.96498,0.84827 1.4475,1.27241 0.48252,0.42414 1.03099,1.14287 1.4476,1.27241 0.41661,0.12954 0.45778,-0.0542 0.6856,-0.0814 z m 5.893,-147.62513 c -0.66145,-0.01 -1.36985,0.0151 -1.9843,-0.029 -0.61445,-0.0441 -1.13167,-0.14654 -1.6975,-0.2198 -0.56583,-0.0733 -1.1013,-0.11499 -1.6975,-0.21979 -0.5962,-0.1048 -1.2496,-0.27845 -1.8744,-0.41768 -0.6248,-0.13923 -1.27495,-0.25458 -1.8744,-0.41768 -0.59945,-0.1631 -1.14653,-0.36987 -1.7198,-0.55481 -0.57327,-0.18494 -1.38601,-0.37598 -1.7198,-0.55482 -0.33379,-0.17884 -0.24267,-0.19292 -0.364,-0.28938 -0.12133,-0.0965 -0.17942,0.12548 -0.364,-0.28938 -0.18458,-0.41486 0.0931,-1.50339 0.1397,-2.25509 0.0466,-0.7517 0.004,-1.19083 0.1397,-2.25509 0.13597,-1.06426 0.53227,-2.73403 0.7984,-4.10104 0.26613,-1.36701 0.62767,-2.92971 0.7984,-4.10104 0.17073,-1.17133 0.1892,-1.94028 0.2838,-2.91042 0.0946,-0.97014 0.16729,-1.5217 0.2838,-2.91042 0.11651,-1.38872 0.25427,-3.61597 0.3814,-5.42396 0.12713,-1.80798 0.2923,-3.94642 0.3814,-5.42395 0.0891,-1.47753 0.11532,-2.29306 0.173,-3.43959 0.0577,-1.14653 0.2462,-2.507987 0.1731,-3.439578 -0.0731,-0.931591 -0.2962,-1.411114 -0.4443,-2.11667 -0.1481,-0.705556 -0.21001,-1.296197 -0.4443,-2.116664 -0.23429,-0.820467 -0.67478,-1.852088 -1.0122,-2.77813 -0.33742,-0.926042 -0.71048,-1.829341 -1.0123,-2.77812 -0.30182,-0.948779 -0.5298,-1.94028 -0.7947,-2.91042 -0.2649,-0.97014 -0.59482,-2.09329 -0.7947,-2.91042 -0.19988,-0.81713 -0.28647,-1.322912 -0.4297,-1.98437 -0.14323,-0.661458 -0.29368,-0.893133 -0.4297,-1.98438 -0.13602,-1.091247 -0.10585,-3.043347 -0.1588,-4.56502 -0.0529,-1.521673 -0.208,-3.327709 -0.1589,-4.56502 0.0491,-1.237311 0.21727,-1.89554 0.3259,-2.84331 0.10863,-0.94777 0.15196,-1.706043 0.3259,-2.843311 0.17394,-1.137268 0.50728,-2.645833 0.7609,-3.96875 0.25362,-1.322917 0.51385,-2.623773 0.7608,-3.96875 0.24695,-1.344977 0.47993,-2.734025 0.7199,-4.10104 0.23997,-1.367015 0.62112,-2.992556 0.7199,-4.10105 0.0988,-1.108494 0.007,-1.675693 0.01,-2.51354 0.003,-0.837847 0.20662,-1.727896 0.01,-2.51354 -0.19662,-0.785644 -0.74207,-1.376507 -1.1131,-2.06476 -0.37103,-0.688253 -0.98834,-1.57042 -1.1131,-2.06476 -0.12476,-0.49434 0,-0.475572 0,-0.71336 0,-0.237788 -0.0547,-0.388989 0,-0.71337 0.0548,-0.324381 0.2758,-0.793745 0.4137,-1.19062 0.1379,-0.396875 0.14693,-0.606154 0.4137,-1.19063 0.26677,-0.584476 0.86232,-1.499307 1.2935,-2.24896 0.43118,-0.749653 1.02387,-1.665091 1.2936,-2.24896 0.26973,-0.583869 0.28392,-0.793745 0.4259,-1.19062 0.14198,-0.396875 0.26875,-0.556304 0.426,-1.19063 0.15725,-0.634326 0.25133,-1.753147 0.377,-2.62972 0.12567,-0.876573 0.0892,-1.688048 0.377,-2.62972 0.28782,-0.941672 0.94453,-1.95102 1.4168,-2.92653 0.47227,-0.97551 1.00692,-2.378291 1.4168,-2.92653 0.40988,-0.548239 0.42213,-0.383672 0.6332,-0.57551 0.21107,-0.191838 0.31214,-0.356751 0.6332,-0.57552 0.32106,-0.218769 0.88202,-0.43538 1.323,-0.65307 0.44098,-0.21769 0.89035,-0.44932 1.3229,-0.65307 0.43255,-0.20375 0.84755,-0.380388 1.2713,-0.57058 0.42375,-0.190192 0.94828,-0.552052 1.2712,-0.57057 0.32292,-0.01852 0.3478,0.110385 0.5217,0.16558 0.1739,0.05519 0.33848,0.02647 0.5217,0.16559 0.18322,0.139115 0.304,0.464692 0.456,0.69704 0.152,0.232348 0.0811,-0.557273 0.456,0.69705 0.37491,1.254323 0.007,4.6813 0.011,7.02195 0.004,2.34065 -0.24831,5.593204 0.011,7.02195 0.25931,1.428746 0.39438,1.05578 0.5916,1.58367 0.19722,0.52789 0.39833,0.791439 0.5917,1.58367 0.19337,0.792231 0.25818,2.11922 0.3873,3.17883 0.12912,1.05961 0.212,1.01926 0.3874,3.17883 0.1754,2.15957 0.26653,6.526387 0.3998,9.78958 0.13327,3.263193 0.19431,7.764918 0.3998,9.78958 0.20549,2.024662 0.25862,1.5875 0.3879,2.38125 0.12928,0.79375 0.1376,1.033664 0.3878,2.38125 0.2502,1.347586 0.79132,3.792369 1.187,5.688551 0.39568,1.896182 0.85357,4.163186 1.1871,5.68854 0.33353,1.525354 0.52867,2.311838 0.793,3.46776 0.26433,1.155922 0.57311,2.453111 0.793,3.46777 0.21989,1.014659 0.3574,1.7451 0.5361,2.61765 0.1787,0.87255 0.29706,1.738294 0.5361,2.61765 0.23904,0.879356 0.60185,1.763885 0.9028,2.64583 0.30095,0.881945 0.52526,1.651479 0.9029,2.64584 0.37764,0.994361 0.92453,2.204863 1.3868,3.307294 0.46227,1.102431 1.00249,2.470791 1.3868,3.30729 0.38431,0.836499 0.57828,1.154673 0.8674,1.732008 0.28912,0.57734 0.4694,0.85447 0.8673,1.73201 0.3979,0.87754 0.96758,2.37311 1.4514,3.55966 0.48382,1.18655 1.10772,2.60914 1.4515,3.55965 0.34378,0.95051 0.44718,1.41111 0.6708,2.11667 0.22362,0.70556 0.46904,1.45502 0.6709,2.11667 0.20186,0.66165 0.36212,1.23472 0.5432,1.85208 0.18108,0.61736 0.28542,0.88395 0.5433,1.85208 0.25788,0.96813 0.63433,2.64583 0.9515,3.96875 0.31717,1.32292 0.71773,2.84243 0.9515,3.96875 0.23377,1.12632 0.32553,1.85209 0.4883,2.77813 0.16277,0.92604 0.34934,1.77731 0.4883,2.77812 0.13896,1.00081 0.21992,2.14995 0.3299,3.22493 0.10998,1.07498 0.5133,2.62243 0.33,3.22492 -0.1833,0.60249 -0.22852,0.2754 -0.3428,0.4131 -0.11428,0.1377 -0.21648,0.35373 -0.3429,0.41309 -0.12642,0.0594 -0.20072,0 -0.3011,0 -0.10038,0 0.0898,0.11901 -0.3012,0 -0.39101,-0.11901 -1.19093,-0.79893 -1.7864,-1.1984 -0.59547,-0.39947 -1.1807,-0.715 -1.7864,-1.1984 -0.6057,-0.4834 -1.21167,-1.14302 -1.8175,-1.71453 -0.60583,-0.57151 -1.28844,-1.09863 -1.8175,-1.71453 -0.52906,-0.6159 -0.8996,-1.30134 -1.3494,-1.95201 -0.4498,-0.65067 -1.10798,-1.49284 -1.3494,-1.95201 -0.24142,-0.45917 -0.17518,-0.46087 -0.2628,-0.69131 -0.0876,-0.23044 -0.12844,-0.59859 -0.2629,-0.69131 -0.13446,-0.0927 -0.16027,0 -0.2404,0 -0.0801,0 0.0193,-0.17541 -0.2404,0 -0.25973,0.17541 -0.4084,1.01424 -0.6126,1.52136 -0.2042,0.50712 -0.36526,1.01587 -0.6126,1.52135 -0.24734,0.50548 -0.58253,1.00039 -0.8738,1.50058 -0.29127,0.50019 -0.51235,1.00886 -0.8738,1.50057 -0.36145,0.49171 -0.86587,0.94738 -1.2988,1.42107 -0.43293,0.47369 -0.84622,1.06664 -1.2988,1.42107 -0.45258,0.35443 -0.89233,0.48567 -1.3385,0.72851 -0.44617,0.24284 -0.8135,0.53472 -1.3385,0.72852 -0.525,0.1938 -1.196,0.25343 -1.794,0.38014 -0.598,0.12671 -1.16059,0.31844 -1.794,0.38015 -0.63341,0.0617 -1.32295,-0.0193 -1.9844,-0.0289 z"
         id="path18"
         sodipodi:nodetypes="zzzzzzzzzzzzzzzzzzzzzzzzzzzzzzzzzzzzzzzzzzczccczzzzczzzzzzzzzzzzzzzzzzzzzzzzzzzzzzzzzzzzzzzzzzzzzzzzzzzzzzzzzzzzzzzzzzzzzzzzzzzzzzzzzzzzzzzzzzzzzzzzzzzzzzzzzzzzzzzzzzzzzzzzzzzzzzzzzzzzzzzzzzzzzzzzzzzzzzzzzzzzzzzzzzzzzzzzzzzzzzzzzzzzzzzzzzzzzzzzzzzzzzzzzzzzzzzzzzzzzzz" />
      <path
         id="path19"
         style="display:inline;fill:#cfcfcf;fill-opacity:1"
         d="m -302.79702,13.970723 c -0.0442,-2.84e-4 -0.0717,0.0128 -0.11421,0.01395 -1.3159,0.03568 -1.87129,0.725181 -2.44998,0.729155 -4.91362,2.782045 -4.70899,3.590527 -6.66057,8.995833 0.34654,5.099163 -3.28968,8.953135 -4.71651,13.49375 0.1185,3.275688 3.25916,5.83811 2.24896,9.380306 -1.84335,12.461595 -6.07547,25.267444 -2.10272,37.779089 1.47814,6.097531 4.90379,11.882629 3.70986,18.364774 -0.11327,9.84379 -1.62144,21.82913 -3.35535,31.48025 5.62829,1.93511 7.22053,2.62247 10.73784,3.16828 12.56638,0.43197 13.24873,-6.24253 15.75304,-10.79366 0.96654,-1.57589 0.52923,-0.77364 0.99736,1.15342 0.79329,3.26566 7.14195,9.87623 11.14661,10.23607 0.42378,-0.1247 -0.10816,-3.03104 -0.36691,-5.92109 -0.71689,-4.4976 -1.73549,-8.18551 -2.87011,-11.99306 -0.20805,-1.50208 -0.99775,-4.10799 -1.5906,-6.0818 -0.43496,-2.0374 -1.31188,-4.50137 -2.10374,-6.36344 -0.47917,-1.32447 -1.39938,-3.54003 -1.90945,-4.66121 -0.83155,-1.95746 -1.65268,-3.429015 -2.51354,-5.687512 -0.91424,-1.752817 -1.62968,-3.368583 -2.11667,-5.159375 -0.91891,-1.836667 -1.18326,-3.112964 -1.92856,-5.127336 -0.44068,-2.279968 -1.22153,-4.792757 -1.45573,-7.010425 -0.65075,-1.629449 -0.49033,-2.409595 -1.07125,-4.398698 -0.3207,-1.429427 -1.08315,-5.044405 -1.59112,-7.044014 -0.67068,-3.734582 -1.73287,-8.244631 -1.9482,-12.022005 -0.0303,-0.229781 -0.63969,-11.029667 -0.48937,-13.928349 -0.32349,-4.231792 -0.40784,-8.272458 -1.39268,-11.499557 -1.6138,-1.997238 -0.80044,-6.391473 -0.91313,-9.720853 -0.19484,-2.479136 1.02877,-6.063874 -0.93327,-7.382496 z m -0.51573,0.40101 c 2.53101,2.23831 0.67057,6.652519 1.08004,9.801985 0.003,8.492615 -3.10529,16.646333 -3.18017,25.181409 0.15996,8.727758 1.86629,17.327688 2.77089,26.006681 0.4029,3.889552 0.99583,7.62145 3.00188,11.047388 1.91491,4.00123 3.49035,7.709651 5.39089,11.728483 3.44685,8.075361 4.68327,17.530591 4.58783,26.498641 -2.07633,5.55568 -6.8593,11.3159 -12.41009,12.00805 -7.46312,0.93061 3.19258,-5.45216 -4.02818,-36.20606 -10.99694,-32.532551 -1.25923,-54.78813 -7.36803,-63.274687 1.24671,-2.542111 3.40501,-5.078203 3.27009,-8.489921 0.87506,-4.518255 -1.40696,-11.316917 4.34392,-13.218315 0.84686,-0.361386 1.69402,-0.722376 2.54093,-1.083654 z m -7.19078,10.240201 c -0.008,1.798027 -0.8252,7.572273 -1.06091,6.810954 0.0671,-0.584246 0.73895,-2.817502 0.53691,-4.351672 0.0428,-0.865512 -0.006,-1.716786 0.524,-2.459282 z m 8.77156,6.637838 c 1.97439,2.760271 1.29817,7.511046 1.6676,11.072709 0.0163,11.716893 1.39504,23.378015 4.52789,34.67902 1.3871,10.159439 5.60069,19.501859 9.85056,28.728479 3.34316,7.92995 5.22971,16.49023 6.65282,24.94938 0.54923,3.31733 -1.44853,3.55342 -2.93057,3.38274 -4.77483,-0.54991 -7.51548,-7.48572 -6.71638,-12.75943 -0.41322,-9.32951 -2.08465,-18.79457 -6.54637,-27.09395 -1.8219,-5.953075 -6.25238,-11.129977 -6.30505,-17.691943 -0.65214,-2.824311 -0.50922,-5.82421 -1.17615,-8.790678 -1.11035,-9.16582 -2.72272,-18.422893 -0.76275,-27.599866 0.52518,-2.968491 0.91114,-5.971427 1.7384,-8.876461 z m -13.82551,149.436878 c -2.40304,1.10976 -2.14735,5.48271 -3.16725,7.98194 -1.26689,5.74981 -2.32803,11.54106 -4.73098,16.94005 -1.84876,8.93653 -0.43341,18.18326 -0.81855,27.2588 0.64898,9.60032 -1.21962,19.16506 -0.41083,28.73313 1.97824,9.46741 3.44506,19.0597 4.67413,28.5998 -2.38413,3.0495 0.38593,4.21536 3.7083,4.21318 3.50139,0.24071 7.36851,-1.28109 9.77822,-2.49028 2.40971,-1.20919 2.86276,-2.35668 3.41168,-3.36517 0.54892,-1.00849 0.73456,-1.69699 1.02474,-2.24948 0.29018,-0.55249 0.86702,-1.14814 1.48931,-2.64583 0.62229,-1.49769 1.06477,-3.49392 1.59267,-4.94492 0.5279,-1.451 1.09738,-3.00862 1.71876,-4.26796 0.62138,-1.25934 1.28748,-2.64822 1.87482,-4.01629 0.58734,-1.36807 1.35868,-3.11633 1.9575,-4.93923 0.59882,-1.8229 1.06567,-3.25848 1.7632,-5.46788 0.69753,-2.2094 1.08739,-3.92748 1.83555,-7.92097 0.74816,-3.99349 1.27932,-11.29991 1.76423,-17.02273 0.18889,-1.02228 0.35278,-3.88942 0.42633,-5.74022 0.37123,-1.60582 -0.38549,-5.85712 -0.4563,-5.67821 -0.12628,-1.22455 -0.61172,-4.03255 -0.71985,-4.57078 -0.008,-0.0407 -0.0512,-0.33595 -0.0543,-0.34571 0.0957,-1.09184 0.003,-5.66314 0.50901,-6.51278 -0.69266,-1.50145 1.90703,-5.28258 -1.12138,-3.82509 -1.55964,0.66178 -5.78939,5.7698 -5.71024,2.49235 -0.0389,-1.41563 3.16881,-3.03607 4.35115,-4.38629 3.48682,-2.36605 7.84635,-8.24923 3.2582,-11.19932 -6.55165,-2.55335 -14.02936,4.61151 -14.5805,10.83345 -1.07567,3.64069 -3.55764,1.79124 -2.03554,-1.23352 1.3635,-6.51962 1.85248,-13.90106 -2.0531,-19.67683 0.23784,-0.34178 -2.31884,-2.40183 -2.52233,-2.51561 -0.80792,-1.29587 -4.58736,-1.74186 -6.75669,-2.0376 z m 6.13502,2.19314 c 4.29094,1.16593 1.52085,4.80434 1.23094,7.71271 0.02,3.64275 3.01972,7.32607 0.0889,10.6531 -1.66481,3.54822 -5.64804,5.9192 -6.68951,9.65729 1.65813,1.34207 5.67532,1.55432 3.74964,4.91649 -0.55062,2.14486 -1.05187,4.3494 -1.52756,6.5779 0.10347,0.16926 0.22122,0.34531 0.36484,-0.36949 0.0568,-0.28266 0.0526,-0.45456 0.0496,-0.62063 0.05,0.14286 0.0911,0.28081 0.22272,0.49402 l -0.26355,0.0847 c 0.72924,1.18044 -0.0254,6.63694 0.52865,9.72189 -0.11802,4.64993 3.58843,10.67582 8.89455,8.2734 3.84528,-4.20708 3.23622,1.46185 3.08663,4.37492 0.75762,6.3443 -3.55375,11.83442 -3.24218,18.20251 -0.28639,7.53975 -2.36889,15.11695 -4.72994,22.10408 -1.13927,1.74189 -2.92165,1.10167 -3.5233,0.38809 -1.16791,-1.07128 -1.13323,-1.33331 -2.38125,-2.06241 -2.05422,-1.14314 -1.03645,-4.43369 -1.64951,-5.9402 -0.30825,-2.73249 -0.45574,-5.87589 -0.68575,-7.5365 -0.19936,-6.55713 -0.13692,-13.1304 0.0253,-19.69285 0.048,3.75821 0.0871,-1.00617 0.4067,-2.80035 0.31273,-1.75562 1.60416,-16.72397 1.73529,-18.6557 -1.91338,10.79088 -2.90773,22.10464 -2.61276,32.57423 -0.31038,7.20638 0.53316,14.40451 1.49345,21.53409 2.38844,1.24831 4.77587,5.80379 7.56853,2.74867 1.84619,-2.87118 2.25465,-6.85908 3.85041,-10.00042 2.2381,-5.91346 2.75811,-12.17209 3.00602,-18.44229 -0.27173,-3.94495 3.02826,-5.17629 4.24315,-1.13791 1.97965,-1.63629 0.0101,-6.07241 0.23461,-8.81962 0.48287,-6.08345 2.10874,-12.20024 2.80242,-18.341 1.35312,-2.3623 2.35957,-4.9815 2.4691,-7.64346 0.0568,-1.38165 -0.11341,-2.77438 -0.63304,-4.14962 -0.0549,-0.30074 -0.0419,-0.637 0.002,-0.9803 -0.35885,1.37073 -0.53325,2.84731 0.0465,3.96203 -0.0794,1.23778 -1.52795,-4.70765 -0.15813,-6.02547 2.03412,-2.5799 1.47146,-1.75417 0.74156,0.10439 0.89881,-1.81462 2.31399,-2.78951 1.68206,0.79685 -0.12647,1.5685 -0.084,3.12137 0.032,4.6669 0.36126,4.81042 1.46656,9.5476 0.66353,14.44718 -0.80149,14.71043 -5.72952,33.90218 -10.2371,42.73744 -4.50758,8.83526 -3.66192,11.6363 -6.60167,13.60692 -2.93975,1.97062 -6.07166,3.3742 -6.20582,-0.38086 1.02166,-2.41957 -4.24942,-3.34858 -5.34696,-5.75003 -1.87473,-5.55658 -1.4407,-11.98561 -2.43809,-17.87591 -1.01815,-5.54328 -0.0346,-11.39016 -0.8568,-16.82068 -3.45683,-4.6582 0.4853,-10.57878 0.0832,-15.84296 0.61041,-6.14894 0.97152,-12.38875 -0.71779,-18.36477 -0.0337,-5.37235 2.85123,-10.12729 6.91431,-13.45603 4.10404,-5.62527 1.03079,-12.7065 4.28449,-18.63039 z m 18.7446,30.86634 c -0.3022,0.61009 -0.54596,1.29537 -0.62994,1.95905 0.18647,-0.71227 0.40311,-1.38148 0.62994,-1.95905 z m -23.05338,14.61668 c 0.075,-0.42302 0.13814,-0.85201 0.21601,-1.27331 -0.0741,0.19925 -0.15194,0.35782 -0.1819,0.87075 -0.002,0.0293 -0.0312,0.36014 -0.0341,0.40256 z m 0.21601,-1.27331 c 0.12273,-0.33006 0.26451,-0.59236 0.3762,-1.44177 0.0596,-0.4528 0.0708,-0.69123 0.0935,-0.91416 -0.15648,0.78604 -0.32318,1.56295 -0.46974,2.35593 z m 0.46974,-2.35593 c 0.15555,-0.78136 0.31033,-1.56289 0.47542,-2.33629 -0.10829,-0.17716 -0.20075,-0.3473 -0.28784,0.50023 -0.11369,1.10639 -0.14197,1.38832 -0.18758,1.83606 z m 0.55087,-29.76718 c 0.33264,-0.10575 0.54739,0.12524 0.59583,0.77257 -0.72138,4.09223 -4.72524,7.55588 -7.27811,11.85405 2.04592,-6.21306 5.3312,-12.19706 6.68228,-12.62662 z m 18.5906,7.94164 c 3.2332,0.43443 -0.63278,4.431 -0.78394,5.6534 -1.85218,2.78802 -0.89197,6.82468 0.60152,9.8025 3.69175,2.86918 2.26234,4.49046 -1.96371,3.58635 -3.53773,0.62722 -3.89348,4.2373 -3.46232,7.2719 0.043,0.30284 0.0476,0.62639 0.10491,0.91364 -0.49967,0.52783 -1.10337,0.68281 -1.75752,0.65474 -1.75627,-0.0753 -3.90663,-1.57226 -5.61051,-1.49034 -3.33535,-1.97704 -3.68345,-5.62393 -3.39462,-9.13691 -0.51544,-4.24748 2.39581,-8.2298 5.28908,-11.08615 2.82696,-0.90538 4.66561,-3.87438 7.60005,-4.98212 1.00996,-0.79047 2.13923,-1.01346 3.37706,-1.18701 z m -11.40189,5.61464 c -1.95645,1.62401 -3.44072,4.27927 -4.6824,6.60683 1.23287,-2.494 2.47985,-4.82393 4.6824,-6.60683 z m -15.47503,9.54361 c 0.12845,0.45442 0.24416,0.90366 0.42633,1.37924 1.03995,8.40663 -0.52143,16.96902 -1.72754,25.27184 -0.12193,0.74338 -0.0221,1.43144 0.17157,2.09652 -0.38494,-1.18151 -0.59841,-2.3977 -0.14883,-3.79305 1.50119,-7.72033 2.4803,-15.77613 1.61024,-23.60218 -0.15633,-0.40555 -0.25482,-0.86887 -0.33177,-1.35237 z m 26.75393,4.21524 c 0.63949,0.0584 1.05056,0.22449 1.36942,0.43408 0.038,0.025 0.0606,0.057 0.0946,0.0837 -0.0439,-0.0166 -0.0769,-0.0426 -0.12247,-0.0574 -0.48755,-0.15777 -1.05256,-0.22264 -1.34152,-0.46044 z m 1.9513,2.0991 c -0.21332,1.19287 -1.02678,2.61537 -1.48932,3.79202 0.36927,-1.31821 0.83075,-2.59695 1.48932,-3.79202 z m -4.23334,1.60352 c 0.0841,-0.001 0.10809,0.0197 0.18552,0.0212 4.18994,0.0798 -1.15551,3.77735 -0.22221,0.21084 0.0239,-0.0914 0.004,-0.13077 0.0367,-0.23203 z m 2.30891,4.02611 c -0.37777,2.82355 -0.83224,5.63505 -1.34566,8.43256 0.46885,-2.79915 0.77229,-5.67253 1.34566,-8.43256 z m -10.56732,3.38222 c 4.51578,1.53432 -0.0756,3.50753 0,0 z m 9.06147,5.87148 c -0.30187,1.60521 -0.59879,3.21354 -0.93638,4.79505 0.1362,-1.61807 0.38571,-3.22412 0.93638,-4.79505 z m -1.0325,6.40839 c -0.009,3.00327 0.62997,6.83286 0.6165,8.75451 -0.35313,-2.90694 -0.67923,-5.84783 -0.6165,-8.75451 z m -25.32869,1.31827 c 0.67903,2.12153 2.35816,4.00371 1.63556,6.53862 -0.10035,9.64462 0.93562,19.22769 2.26136,28.75483 -0.84395,-2.74856 -0.43303,-6.08597 -1.40559,-8.80721 -0.1762,-7.41218 -1.36511,-14.78163 -0.9493,-22.225 -0.3339,-1.50809 -1.06075,-2.861 -1.54203,-4.26124 z m 5.76658,14.53348 c 0.0605,5.20374 -0.13124,5.99939 -0.005,0.29559 z m -1.01338,22.62963 c 0.0727,0.0966 0.1421,0.19538 0.22014,0.28835 -0.074,-0.0959 -0.15297,-0.18931 -0.22014,-0.28835 z m 0.65888,0.74879 c 1.50237,1.53068 3.57821,2.63882 4.53564,4.21318 2.0026,7.36627 -0.67569,-1.30291 -4.00234,-3.65404 -0.21333,-0.16997 -0.35452,-0.37316 -0.5333,-0.55914 z" />
      <path
         style="fill:#238288;fill-opacity:1;stroke:none;stroke-width:2.11667;stroke-linecap:round;stroke-linejoin:bevel"
         d="m -304.90038,137.55589 c 1.33682,5.60098 0.5457,9.56193 0.14269,14.12534 -0.69626,7.88393 -6.37657,15.88212 -3.94473,23.41388 1.50217,4.65245 5.56676,9.85181 10.43445,10.3072 2.49491,0.23341 3.85987,-3.40125 6.23522,-4.19923 1.44972,-0.48703 2.46156,-0.7599 4.58097,-0.2545 -0.75457,0.92184 -4.1125,1.96429 -3.43573,3.43574 0.69328,1.50734 3.32006,-0.61491 4.96273,-0.38175 1.79405,0.25465 3.11731,1.23701 4.1356,2.73586 1.28738,1.89493 1.13068,2.93013 0.82712,6.04434 -1.09899,7.13231 -6.27293,15.79249 -13.34706,17.93444 22.79156,-17.31081 -2.9293,-24.49889 -9.58098,-3.01539 3.54461,-24.35765 -4.21901,-28.40791 -13.21078,-27.77123 -1.05136,-8.44616 5.55746,-16.43183 5.35925,-24.94087 -0.47858,-0.59205 -5.05665,-11.06377 -5.1568,-20.17994 4.83568,1.76799 7.43456,2.4296 11.99805,2.74611 z"
         id="path20"
         sodipodi:nodetypes="cccccccccccccccc" />
      <path
         style="fill:#238288;fill-opacity:1;stroke:none;stroke-width:2.11667;stroke-linecap:round;stroke-linejoin:bevel"
         d="m -312.1118,221.61567 c 0,0 -2.37999,10.82101 -2.06234,16.91325 1.99549,2.90398 11.57076,1.91127 11.57076,1.91127 0,0 -5.56391,0.90317 -7.90236,-3.72937 -1.59974,-1.97443 -1.60606,-15.09515 -1.60606,-15.09515 z"
         id="path21"
         sodipodi:nodetypes="ccccc" />
    </g>
  </g>
</svg>
