<?xml version="1.0" encoding="UTF-8" standalone="no"?>
<!-- Created with Inkscape (http://www.inkscape.org/) -->

<svg
   width="2048"
   height="2048"
   viewBox="0 0 541.86666 541.86666"
   version="1.1"
   id="svg1"
   xml:space="preserve"
   sodipodi:docname="icon_theDiveClub_alpha.svg"
   inkscape:version="1.4.2 (f4327f4, 2025-05-13)"
   xmlns:inkscape="http://www.inkscape.org/namespaces/inkscape"
   xmlns:sodipodi="http://sodipodi.sourceforge.net/DTD/sodipodi-0.dtd"
   xmlns="http://www.w3.org/2000/svg"
   xmlns:svg="http://www.w3.org/2000/svg"><sodipodi:namedview
     id="namedview1"
     pagecolor="#ffffff"
     bordercolor="#000000"
     borderopacity="0.25"
     inkscape:showpageshadow="2"
     inkscape:pageopacity="0.0"
     inkscape:pagecheckerboard="true"
     inkscape:deskcolor="#d1d1d1"
     inkscape:document-units="px"
     inkscape:zoom="0.36756309"
     inkscape:cx="315.59208"
     inkscape:cy="1318.1411"
     inkscape:window-width="2560"
     inkscape:window-height="1369"
     inkscape:window-x="1912"
     inkscape:window-y="-8"
     inkscape:window-maximized="1"
     inkscape:current-layer="layer1" /><defs
     id="defs1"><rect
       x="117.34996"
       y="2293.1336"
       width="1800.6485"
       height="596.36864"
       id="rect3" /></defs><g
     inkscape:label="layer_Main"
     inkscape:groupmode="layer"
     id="layer1"><g
       id="g9"
       inkscape:label="Badge"
       style="display:inline;fill:none;fill-opacity:1;stroke-width:3.17499996;stroke-dasharray:none;stroke:#ffffff;stroke-opacity:1"><path
         id="path4"
         style="opacity:1;fill:none;fill-opacity:1;stroke:#ffffff;stroke-width:2.89605168;stroke-dasharray:none;stroke-opacity:1;paint-order:normal"
         d="m 285.52117,48.999539 c 114.04997,-17.552847 227.1761,-17.552847 339.3784,0 V 331.73639 c 0,108.22472 -169.6892,169.94413 -169.6892,169.94413 0,0 -169.6892,-61.71941 -169.6892,-169.94413 z"
         sodipodi:nodetypes="ccscsc"
         inkscape:label="Badge"
         transform="matrix(1.0963202,0,0,1.0963202,-228.16677,-13.818711)" /><path
         id="path28"
         style="opacity:0.900783;fill:none;fill-opacity:1;stroke:#ffffff;stroke-width:2.89605168;stroke-dasharray:none;stroke-opacity:1"
         d="m 285.52117,48.999539 c 114.04997,-17.552847 227.1761,-17.552847 339.3784,0 V 331.73639 c 0,108.22472 -169.6892,169.94413 -169.6892,169.94413 0,0 -169.6892,-61.71941 -169.6892,-169.94413 z"
         sodipodi:nodetypes="ccscsc"
         inkscape:label="Badge_Outline"
         transform="matrix(1.0963202,0,0,1.0963202,-228.16677,-13.818711)" /></g><g
       id="g10"
       inkscape:label="Text"
       style="display:inline;fill:#ffffff;fill-opacity:1"><path
         style="font-size:143.854px;line-height:0.8;font-family:'Rushford Clean';-inkscape-font-specification:'Rushford Clean';letter-spacing:0px;fill:#ffffff;fill-opacity:1;stroke-width:8.92895;stroke-opacity:0.4"
         d="m 256.3511,284.44225 c 24.49365,-3.31923 32.71378,-20.14143 35.48359,-38.53081 l 5.3845,-35.74898 c 2.85845,-18.97785 -2.84566,-31.75143 -25.35716,-28.70081 l -25.05999,3.39598 c -1.41582,0.19186 -2.20373,1.73976 -2.381,2.91669 l -14.71322,97.68445 c -0.17727,1.17691 0.16747,2.57132 1.58329,2.37946 z m 13.49409,-35.2627 c -1.15224,7.64998 -3.97151,11.63485 -9.21004,12.34473 l -4.6722,0.63316 c -0.8495,0.11511 -1.11913,-0.85714 -1.00834,-1.59271 l 8.13216,-53.99125 c 0.13295,-0.88268 0.81007,-1.69501 1.65956,-1.81013 l 4.67221,-0.63315 c 4.38903,-0.59478 6.83045,2.53307 5.81115,9.30037 z m 22.58349,27.77967 c -0.22158,1.47115 0.59222,2.51376 2.00804,2.3219 l 16.98982,-2.30236 c 1.55739,-0.21105 2.72574,-1.52227 2.94732,-2.99342 l 14.71323,-97.68446 c 0.22159,-1.47115 -0.59223,-2.51377 -2.14962,-2.30272 l -16.98982,2.30236 c -1.41582,0.19187 -2.58416,1.50309 -2.80575,2.97424 z m 46.4919,-5.72386 c 0.22532,1.26648 1.1056,1.86775 2.37983,1.69507 l 19.39671,-2.62852 c 1.13265,-0.1535 2.23452,-1.02337 2.6728,-2.09156 l 35.99481,-100.85663 c 0.66849,-1.67582 -0.22042,-3.14059 -1.9194,-2.91036 l -18.26405,2.47503 c -1.27424,0.17269 -2.42042,1.33679 -2.73927,2.5329 l -13.23915,41.85732 -2.90907,9.18508 c -0.71281,1.97005 -2.29236,2.32822 -2.40689,0.32616 l -0.18358,-8.91009 -0.7996,-39.81076 c -0.1059,-1.13854 -0.94186,-2.03405 -2.07452,-1.88056 l -18.83038,2.55178 c -1.55741,0.21105 -3.07538,2.002 -2.89438,3.56271 z m 49.92556,-7.34206 c -0.22158,1.47115 0.87539,2.4754 2.14963,2.30272 l 40.63398,-5.50648 c 1.27424,-0.17267 2.72575,-1.52227 2.94733,-2.99342 l 2.63686,-17.5067 c 0.22159,-1.47116 -0.87539,-2.4754 -2.14962,-2.30272 l -19.67987,2.66689 c -0.8495,0.11513 -1.5131,-0.0832 -1.26935,-1.70144 l 2.0829,-13.82882 c 0.13295,-0.8827 0.95165,-1.71421 1.80114,-1.82932 l 18.54722,-2.51341 c 1.41582,-0.19187 2.72574,-1.52228 2.94732,-2.99343 l 2.63686,-17.50668 c 0.24374,-1.61828 -0.7338,-2.4946 -2.14961,-2.30273 l -18.83039,2.55177 c -0.84949,0.11512 -1.22992,-0.12154 -1.11913,-0.85711 l 2.14937,-14.27017 c 0.17727,-1.17693 0.85439,-1.98925 1.84547,-2.12355 l 19.82146,-2.68609 c 1.41581,-0.19186 2.562,-1.35597 2.78359,-2.82712 l 2.65901,-17.65382 c 0.22159,-1.47115 -0.59223,-2.51377 -2.00804,-2.32191 l -40.77557,5.52566 c -1.27423,0.17267 -2.72574,1.52228 -2.94733,2.99343 z m 56.91038,-55.55745 c -3.94911,28.06061 3.26949,52.8785 34.93577,46.13738 3.13696,-0.56922 6.10155,-1.83564 8.4998,-3.02531 1.0354,-0.42853 1.779,-1.68221 1.91194,-2.5649 l 2.72549,-18.09515 c 0.28806,-1.9125 -1.51681,-2.82081 -3.46817,-1.83581 -6.82298,2.94217 -13.80481,4.17654 -18.40074,0.62008 -5.38759,-4.74617 -5.02209,-15.46001 -3.69259,-24.28691 1.2852,-8.53269 3.84953,-19.11216 11.35941,-26.61491 5.85897,-4.82912 12.77433,-5.62214 18.95472,-4.29799 1.72976,0.48616 3.88918,-0.95937 4.15508,-2.72475 l 2.72549,-18.09516 c 0.17727,-1.17691 -0.23395,-2.12998 -1.18071,-2.2899 -2.1102,-0.72283 -4.87536,-0.78045 -7.92368,-0.7997 -29.94399,1.75203 -46.05933,27.71443 -50.60181,57.87303 z m 50.55035,40.99502 c -0.22159,1.47115 0.7338,2.49458 2.14962,2.30271 l 41.62506,-5.64077 c 1.27423,-0.17268 2.72574,-1.52227 2.94732,-2.99342 l 2.68118,-17.80094 c 0.19942,-1.32403 -0.91971,-2.18116 -2.19393,-2.00849 l -19.82147,2.68609 c -1.5574,0.21105 -2.31825,-0.2623 -2.00803,-2.32191 l 11.27866,-74.8816 c 0.22158,-1.47115 -0.7338,-2.49458 -2.00804,-2.32191 l -16.98982,2.30236 c -1.41582,0.19186 -2.72574,1.52228 -2.94732,2.99343 z m 53.72425,-36.24697 c -4.05499,26.92207 10.58835,30.99041 24.18022,29.14852 15.71558,-2.12968 30.62715,-9.05022 34.83725,-37.00211 l 10.28153,-68.26141 c 0.22158,-1.47115 -0.73379,-2.49459 -2.14962,-2.30272 l -16.98982,2.30236 c -1.41581,0.19186 -2.58415,1.50309 -2.80574,2.97424 l -10.41448,69.14411 c -1.39598,9.26826 -6.96199,10.31075 -8.94414,10.57936 -2.2653,0.30698 -7.62326,0.88895 -6.20511,-8.52642 l 10.41448,-69.14412 c 0.22157,-1.47115 -0.7338,-2.49458 -2.00803,-2.32191 l -16.98983,2.30236 c -1.41582,0.19186 -2.72575,1.52228 -2.94733,2.99343 z m 91.13977,19.20989 c 19.53829,-2.64771 27.41252,-16.25255 29.60621,-30.81695 l 1.08576,-7.20864 c 1.04145,-6.91441 0.10939,-12.69672 -4.96425,-16.76487 -2.52142,-1.67588 -1.3666,-1.97649 0.88144,-4.01048 4.16861,-3.73537 7.5197,-11.251 8.49467,-17.72407 l 0.70907,-4.70768 c 1.55109,-10.29806 -1.18842,-24.33806 -20.86831,-21.67116 l -28.17478,3.81807 c -2.12373,0.2878 -3.07538,2.002 -3.23049,3.03181 l -14.69107,97.53733 c -0.24374,1.61828 0.42849,2.68007 1.84431,2.48821 z m 7.56982,-34.604 c -0.55887,5.55202 -2.01153,11.51337 -6.40057,12.10814 l -4.81378,0.65234 c -1.41582,0.19186 -2.54847,0.34535 -2.32688,-1.1258 l 2.45958,-16.32979 c 0.17727,-1.17692 1.23481,-1.75257 2.22588,-1.88686 l 3.82272,-0.51804 c 1.27424,-0.17268 5.76917,0.3711 5.03305,7.10001 z m 4.73443,-36.95788 c -0.50964,3.38365 -4.29782,7.35568 -8.12054,7.87372 l -2.54846,0.34535 c -0.84949,0.11512 -1.53524,0.064 -1.38013,-0.96587 l 2.01642,-13.38747 c 0.13294,-0.8827 0.74359,-1.25367 1.59308,-1.36878 l 4.10587,-0.55641 c 2.97322,-0.40291 5.35306,1.29215 4.93204,4.08735 z"
         id="text1"
         inkscape:label="txt_theDiveClub"
         aria-label="DiveClub"
         transform="matrix(1.0963202,0,0,1.0963202,-228.16677,-13.818711)" /><path
         style="font-size:79.3012px;line-height:0.8;font-family:'Rushford Clean';-inkscape-font-specification:'Rushford Clean';letter-spacing:0px;fill:#ffffff;fill-opacity:1;stroke-width:4.92221;stroke-opacity:0.4"
         d="m 306.12351,173.13007 c -0.0933,0.64817 0.41444,1.37356 1.195,1.26755 l 9.28871,-1.26147 c 0.78056,-0.10601 1.52167,-1.00102 1.61501,-1.64918 l 6.03186,-41.88752 c 0.0933,-0.64816 0.50694,-0.86322 0.81918,-0.90562 l 7.25922,-0.98586 c 0.78057,-0.10601 1.49835,-0.83897 1.61502,-1.64918 l 1.38837,-9.64142 c 0.11668,-0.81019 -0.41444,-1.37355 -1.195,-1.26755 l -27.78802,3.77384 c -0.78056,0.10601 -1.49835,0.83897 -1.61503,1.64918 l -1.38836,9.64141 c -0.11668,0.8102 0.41444,1.37356 1.195,1.26756 l 7.10312,-0.96466 c 0.39028,-0.053 0.58945,0.15826 0.51944,0.64438 z m 24.43163,-3.31801 c -0.11667,0.81021 0.33639,1.38416 1.11695,1.27816 l 9.36676,-1.27208 c 0.85861,-0.11662 1.49835,-0.83898 1.61501,-1.64918 l 2.77676,-19.28285 c 0.15166,-1.05326 0.58861,-1.43035 1.29113,-1.52575 l 6.71283,-0.91166 c 0.78056,-0.10601 1.04613,0.17567 0.94112,0.90485 l -2.82343,19.60693 c -0.11666,0.8102 0.41445,1.37357 1.11696,1.27815 l 9.36674,-1.27207 c 0.78056,-0.10601 1.57641,-0.84958 1.69307,-1.65979 l 7.74692,-53.79751 c 0.11666,-0.81019 -0.49251,-1.36296 -1.27307,-1.25695 l -9.36674,1.27208 c -0.70251,0.0954 -1.4203,0.82837 -1.53697,1.63858 l -2.85842,19.84998 c -0.07,0.48612 -0.41723,0.77159 -0.80751,0.82459 l -7.57145,1.02826 c -0.39029,0.053 -0.58946,-0.15826 -0.51945,-0.64438 l 2.85842,-19.84998 c 0.11667,-0.8102 -0.33639,-1.38415 -1.195,-1.26755 l -9.36676,1.27208 c -0.78056,0.10601 -1.42029,0.82837 -1.53696,1.63858 z m 36.14,-4.9081 c -0.11668,0.8102 0.49249,1.36296 1.195,1.26755 l 22.40215,-3.04239 c 0.70251,-0.0954 1.49835,-0.83897 1.61502,-1.64918 l 1.38837,-9.64143 c 0.11667,-0.81019 -0.4925,-1.36296 -1.195,-1.26755 l -10.84982,1.47349 c -0.46834,0.0636 -0.83528,-0.0454 -0.70695,-0.93665 l 1.09671,-7.61591 c 0.07,-0.48612 0.51861,-0.94423 0.98695,-1.00784 l 10.22537,-1.38869 c 0.78056,-0.10599 1.49835,-0.83897 1.61502,-1.64917 l 1.38837,-9.64141 c 0.12834,-0.89124 -0.41444,-1.37358 -1.195,-1.26757 l -10.38148,1.40989 c -0.46834,0.0636 -0.67918,-0.0666 -0.62084,-0.47173 l 1.13171,-7.85898 c 0.0933,-0.64816 0.46389,-1.09566 1.01028,-1.16988 l 10.92787,-1.48409 c 0.78057,-0.10601 1.40863,-0.74734 1.5253,-1.55756 l 1.40005,-9.72243 c 0.11666,-0.8102 -0.3364,-1.38416 -1.11695,-1.27815 l -22.48021,3.05299 c -0.70251,0.0954 -1.49834,0.83897 -1.61502,1.64918 z"
         id="text2"
         inkscape:label="txt_The"
         aria-label="the"
         transform="matrix(1.0963202,0,0,1.0963202,-228.16677,-13.818711)" /></g><g
       id="g26"
       inkscape:label="Icon"
       transform="matrix(0.94372154,0,0,0.94372154,-539.97825,403.25415)"
       style="display:inline"><g
         id="g8"
         transform="matrix(1.1376672,0,0,1.1376672,1148.5214,-555.30822)"
         style="display:inline"
         inkscape:label="Pool"><path
           id="path3"
           style="display:inline;fill:#ffffff;fill-opacity:1;stroke:none;stroke-width:0.490064;stroke-linecap:square;stroke-linejoin:miter;stroke-dasharray:none;stroke-opacity:1;paint-order:normal"
           inkscape:label="Pool_Wall"
           d="m -134.23414,376.67876 c -3.91844,0.12942 -8.13495,0.46382 -12.63735,1.00508 -36.01911,4.33 -188.46258,26.9462 -215.81015,32.0131 -5.49844,1.01873 -10.482,2.14678 -14.77628,3.40437 v 25.39628 c 4.29427,-1.25763 9.27791,-2.38613 14.77628,-3.40484 27.34757,-5.0669 179.79104,-27.6831 215.81015,-32.0131 22.49431,-2.70415 37.85231,-0.23955 44.56099,7.10765 0.95373,-2.63172 1.76132,-4.9593 2.391713,-6.90998 5.938592,-18.37633 -6.886333,-27.50448 -34.315353,-26.59856 z m -244.86767,36.92104 c -1.98943,0.62498 -3.81198,1.281 -5.44828,1.97005 v 5.44509 l 5.44828,-2.27419 z m -7.37183,2.83714 c -9.23944,4.47562 -10.74687,10.30259 0,17.98639 z m 7.37183,3.89331 -5.44828,2.28757 v 9.38758 l 5.44828,-2.27467 z m 0,10.99046 -5.44828,2.28757 v 2.1725 c 1.37564,0.89162 3.09244,1.94399 5.34659,3.24729 0.0339,-0.0107 0.0678,-0.0213 0.10169,-0.032 z m -6.13951,4.01554 c 0.0701,0.0468 0.1131,0.0896 0.18421,0.13656 0.0426,0.0281 0.13339,0.0789 0.177,0.10743 z"
           sodipodi:nodetypes="sssccsscssccccccccccccccccccccscc" /><path
           id="path6"
           style="display:inline;fill:#ffffff;fill-opacity:1;stroke-width:1.85121"
           inkscape:label="Pool_Edge"
           d="M -126.76203 370.29613 C -131.19206 370.44312 -135.95929 370.82258 -141.04952 371.43734 C -181.7714 376.3554 -354.11844 402.04312 -385.03661 407.79814 C -389.39619 408.60962 -393.4695 409.48214 -397.18848 410.42374 L -377.73692 412.89242 C -373.42802 411.6247 -368.4275 410.48756 -362.91035 409.46062 C -335.4697 404.3529 -182.50739 381.55448 -146.36569 377.18959 C -141.84797 376.64397 -137.6171 376.30687 -133.68533 376.17641 C -129.97858 376.05342 -126.58903 376.14712 -123.42408 376.38916 C -120.95338 376.5781 -118.65382 376.87946 -116.52437 377.28874 C -115.44714 377.49578 -114.39971 377.7207 -113.41168 377.98377 C -113.32558 378.00637 -113.23443 378.02593 -113.14936 378.04923 C -111.06226 378.6197 -109.19221 379.32365 -107.51888 380.14634 C -107.19711 380.30454 -106.84994 380.44766 -106.54373 380.61514 C -105.12304 381.39217 -103.86016 382.26261 -102.77981 383.23833 C -102.66426 383.34269 -102.55931 383.45322 -102.4477 383.55985 C -101.80346 384.17534 -101.225 384.82865 -100.71351 385.51931 C -100.64871 385.60801 -100.58274 385.69594 -100.51954 385.78547 C -100.33746 386.04337 -100.16548 386.3068 -100.00164 386.57484 C -99.922366 386.70359 -99.843277 386.83241 -99.768677 386.96374 C -99.628859 387.20987 -99.499833 387.46169 -99.374958 387.71605 C -99.307518 387.85342 -99.239511 387.99042 -99.17521 388.1295 C -99.16451 388.1527 -99.152369 388.17503 -99.141999 388.19833 C -99.017826 388.47755 -98.908442 388.7649 -98.801707 389.05363 C -98.746417 389.20319 -98.684317 389.34915 -98.633726 389.50126 C -98.494488 389.9199 -98.372357 390.34752 -98.268886 390.78542 C -98.257426 390.83392 -98.246214 390.88252 -98.235194 390.93126 C -98.135594 391.37177 -98.054623 391.82257 -97.991165 392.28232 C -97.972855 392.41495 -97.96218 392.55164 -97.94929 392.68711 C -97.94609 392.72041 -97.942792 392.75365 -97.939182 392.78675 C -97.906942 393.08528 -97.878528 393.38573 -97.861208 393.69211 C -97.818728 394.44358 -97.839671 395.22843 -97.887681 396.02699 C -97.942811 396.94394 -98.069375 397.89716 -98.245301 398.87592 C -98.267971 399.04443 -98.285507 399.21036 -98.320387 399.38516 C -98.552113 400.54675 -98.852312 401.74307 -99.253184 402.98928 C -99.88572 404.95567 -100.69606 407.30201 -101.65304 409.95493 C -110.99924 435.86411 -136.66315 486.99561 -144.0905 503.26545 C -152.27838 521.20117 -186.94936 530.32573 -212.38828 520.06301 C -235.97311 510.5483 -347.2868 457.70725 -379.38592 439.08727 L -379.3864 439.08679 C -379.42034 439.0671 -379.45419 439.04768 -379.48796 439.02807 L -379.48844 439.02807 C -381.68063 437.75472 -383.48734 436.66164 -384.85323 435.77724 L -384.85371 435.77724 C -385.03055 435.66273 -385.20004 435.55163 -385.36198 435.44417 C -385.85729 435.1155 -386.33078 434.79014 -386.78283 434.46805 L -386.78332 434.46757 C -397.72608 426.67044 -396.09547 420.78668 -386.78332 416.25492 L -406.9737 413.37471 C -422.1536 418.91957 -426.31464 426.47068 -410.3338 437.07488 C -388.19435 451.76566 -241.4308 525.39404 -212.76804 536.95733 C -184.10528 548.52062 -145.04067 538.24005 -135.81517 518.03136 C -126.58967 497.82267 -95.639341 424.3603 -87.966243 400.50663 C -81.252282 379.63467 -95.751769 369.26719 -126.76203 370.29613 z M -399.18307 410.94501 C -401.33278 411.52438 -403.35087 412.12895 -405.22266 412.76054 L -384.85323 415.38085 C -383.21135 414.68625 -381.38263 414.02494 -379.3864 413.39492 L -379.3864 413.33716 L -399.18307 410.94501 z " /></g><g
         id="g15"
         transform="matrix(-1,0,0,1,736.55454,-516.58664)"
         style="stroke:#ffffff;stroke-opacity:1"
         inkscape:label="Stairs"><path
           id="path12"
           style="fill:#ffffff;fill-opacity:1;stroke:none;stroke-linecap:round;stroke-linejoin:round"
           d="m 29.641396,403.77971 c 3.022558,0.0221 6.054281,0.9286 8.760754,2.7286 7.248008,0.17013 14.497844,5.42847 17.133821,15.88862 0.898763,3.56673 0.796731,7.5276 0.796731,7.5276 -0.01275,0.58395 -0.495864,1.04693 -1.079831,1.03493 -0.584721,-0.0117 -1.049159,-0.49512 -1.037119,-1.07983 0,0 0.06385,-3.80427 -0.732663,-6.96524 -2.058679,-8.16929 -6.874247,-12.59605 -12.08074,-13.88995 2.485706,2.58586 4.483031,6.13177 5.620922,10.64717 0.898763,3.56674 0.796731,7.52761 0.796731,7.52761 -0.01276,0.58395 -0.495866,1.04692 -1.07983,1.03492 -0.583948,-0.0128 -1.046969,-0.49587 -1.034929,-1.07983 0,0 0.06221,-3.80371 -0.734307,-6.96468 -1.380356,-5.47757 -4.000499,-9.27305 -7.146484,-11.5693 -0.268608,0.005 -0.536864,0.0179 -0.804397,0.0383 -6.69084,0.51193 -13.08448,5.89293 -14.153883,15.97678 l -0.127039,34.35519 -2.117218,1.25567 c 0,0 0.0068,-1.97466 0.01779,-4.99613 l -6.378775,-2.40279 -0.0345,11.03314 -2.116949,1.1656 0.128681,-43.21813 c 10e-5,-0.0359 0.0022,-0.0716 0.006,-0.10733 1.144583,-10.9233 8.365198,-17.30454 16.103272,-17.8966 0.430441,-0.0329 0.862141,-0.0475 1.293935,-0.0443 z m 0.418352,2.12188 c -0.51838,-0.0185 -1.036373,-0.008 -1.551845,0.0318 -6.690838,0.51193 -13.082836,5.89292 -14.15224,15.97678 l -0.04709,15.3717 6.388084,2.39622 c 0.02925,-7.96885 0.05633,-15.21601 0.05804,-15.23207 1.035932,-9.88639 7.049108,-16.05201 13.918423,-17.57244 -1.500287,-0.59751 -3.058232,-0.91653 -4.613373,-0.97195 z m -15.757201,33.30225 -0.03559,11.71989 6.379871,2.37157 c 0.01216,-3.3503 0.02758,-7.53184 0.04271,-11.66239 z"
           inkscape:label="Stairs"
           sodipodi:nodetypes="scscccccscccccccccccccccssssccccccssccccc" /></g><g
         id="g21"
         transform="matrix(0.79069994,0,0,0.79069994,1097.8748,-437.76319)"
         style="display:inline"
         inkscape:label="Diver"><path
           id="path16"
           style="display:inline;fill:#ffffff;fill-opacity:1;stroke:none;stroke-width:2.11667;stroke-linecap:round;stroke-linejoin:bevel"
           inkscape:label="Suit"
           d="M -316.75383 134.86227 L -316.89718 134.92529 C -316.89718 134.92552 -316.89719 134.92575 -316.89718 134.92598 C -316.89304 135.19988 -316.88485 135.47484 -316.87294 135.75078 C -316.64472 138.1466 -315.70567 145.56868 -312.33827 153.79735 C -312.04164 154.46555 -311.82651 154.88449 -311.74132 154.98989 C -311.73958 155.06455 -311.73855 155.13899 -311.73785 155.21357 C -311.72043 155.25323 -311.70276 155.293 -311.68522 155.33269 C -310.94975 160.88432 -314.05302 173.19417 -316.99414 179.92295 C -311.59842 179.56295 -306.66034 180.91711 -304.36521 187.37108 C -302.31078 192.03128 -301.85965 198.55369 -303.62974 205.78885 C -303.70863 206.41218 -303.79523 207.04946 -303.89013 207.70161 C -302.97472 204.74501 -301.69795 202.33164 -300.23636 200.41276 C -297.46813 195.88525 -293.13449 194.12274 -289.82629 194.41547 C -284.00594 194.47736 -281.52012 201.00336 -294.30902 210.71687 C -293.63534 210.51289 -292.97888 210.25026 -292.34155 209.93501 C -289.77582 207.85476 -285.92156 204.51057 -284.46197 202.13646 C -284.35601 201.96021 -284.26123 201.77832 -284.15934 201.59975 C -282.20195 198.07038 -281.21082 194.56509 -280.80543 191.10588 C -280.65512 189.20853 -280.76576 188.24499 -281.78951 186.73811 C -282.8078 185.23926 -284.13054 184.25728 -285.92459 184.00263 C -287.56726 183.76947 -290.19396 185.89155 -290.88724 184.38421 C -291.56401 182.91276 -288.20618 181.87042 -287.45161 180.94858 C -289.57102 180.44318 -290.58296 180.71571 -292.03268 181.20274 C -294.40803 182.00072 -295.77329 185.63564 -298.2682 185.40223 C -303.13589 184.94684 -307.20034 179.74779 -308.70251 175.09534 C -311.13435 167.56358 -305.45413 159.56492 -304.75787 151.68099 C -304.35486 147.11758 -303.56371 143.15718 -304.90053 137.5562 C -309.41835 137.24286 -312.01044 136.59072 -316.75383 134.86227 z "
           transform="translate(7.4485447e-6)" /><path
           id="path18"
           style="display:inline;fill:#ffffff;fill-opacity:1"
           inkscape:label="Body"
           d="M -303.20661 13.231611 C -303.23853 13.229751 -303.27428 13.229988 -303.31464 13.232303 C -303.63756 13.250821 -304.16168 13.612061 -304.58543 13.802253 C -305.00918 13.992445 -305.42436 14.169146 -305.85691 14.372896 C -306.28946 14.576646 -306.73866 14.808259 -307.17964 15.025949 C -307.62062 15.243639 -308.182 15.460233 -308.50306 15.679002 C -308.82412 15.897771 -308.92496 16.062655 -309.13603 16.254493 C -309.3471 16.446331 -309.35912 16.281744 -309.769 16.829983 C -310.17888 17.378222 -310.71364 18.781094 -311.18591 19.756604 C -311.65818 20.732114 -312.315 21.741552 -312.60282 22.683224 C -312.89062 23.624896 -312.85388 24.436178 -312.97955 25.312751 C -313.10522 26.189324 -313.19973 27.308644 -313.35698 27.94297 C -313.51423 28.577296 -313.64091 28.736549 -313.78289 29.133424 C -313.92487 29.530299 -313.93906 29.74001 -314.20879 30.323879 C -314.47852 30.907748 -315.07125 31.823555 -315.50243 32.573208 C -315.93361 33.322861 -316.5293 34.237368 -316.79607 34.821844 C -317.06284 35.40632 -317.07161 35.615424 -317.20951 36.012299 C -317.34741 36.409174 -317.56815 36.879065 -317.62295 37.203446 C -317.67765 37.527827 -317.62295 37.678961 -317.62295 37.916749 C -317.62295 38.154537 -317.74771 38.135712 -317.62295 38.630052 C -317.49819 39.124392 -316.88109 40.006223 -316.51006 40.694476 C -316.13903 41.382729 -315.59379 41.973949 -315.39717 42.759593 C -315.20055 43.545237 -315.40386 44.434928 -315.40686 45.272775 C -315.40986 46.110622 -315.31845 46.678155 -315.41725 47.786649 C -315.51603 48.895143 -315.89682 50.520781 -316.13679 51.887796 C -316.37676 53.254811 -316.61007 54.643966 -316.85702 55.988943 C -317.10397 57.33392 -317.36379 58.634208 -317.61741 59.957125 C -317.87103 61.280042 -318.20456 62.788731 -318.3785 63.925999 C -318.55244 65.063267 -318.59605 65.821747 -318.70468 66.769517 C -318.81331 67.717287 -318.98107 68.375723 -319.03017 69.613034 C -319.07927 70.850345 -318.92448 72.655809 -318.87158 74.177482 C -318.81863 75.699155 -318.84832 77.651376 -318.7123 78.742623 C -318.57628 79.83387 -318.42616 80.065948 -318.28293 80.727406 C -318.1397 81.388864 -318.05275 81.894367 -317.85287 82.711497 C -317.65299 83.528627 -317.32344 84.652049 -317.05854 85.622189 C -316.79364 86.592329 -316.56534 87.58341 -316.26352 88.532189 C -315.9617 89.480968 -315.58916 90.384567 -315.25174 91.310609 C -314.91432 92.236651 -314.47355 93.26787 -314.23926 94.088337 C -314.00497 94.908804 -313.94276 95.499837 -313.79466 96.205393 C -313.64656 96.910949 -313.42385 97.390165 -313.35075 98.321756 C -313.27765 99.253347 -313.46618 100.61501 -313.52388 101.76154 C -313.58156 102.90807 -313.60791 103.72379 -313.69701 105.20132 C -313.78611 106.67885 -313.95077 108.81722 -314.0779 110.6252 C -314.20503 112.43319 -314.34298 114.66035 -314.45949 116.04907 C -314.576 117.43779 -314.64882 117.98962 -314.74342 118.95976 C -314.83802 119.9299 -314.85663 120.69843 -315.02736 121.86976 C -315.19809 123.04109 -315.55971 124.6039 -315.82584 125.97091 C -316.09197 127.33792 -316.48766 129.0078 -316.62363 130.07206 C -316.75933 131.13632 -316.71692 131.57523 -316.76352 132.32693 C -316.81012 133.07863 -317.08799 134.16763 -316.90341 134.58249 C -316.71883 134.99735 -316.66048 134.77477 -316.53915 134.87127 C -316.41782 134.96773 -316.50936 134.98191 -316.17557 135.16075 C -315.84178 135.33959 -315.0286 135.53052 -314.45533 135.71546 C -313.88206 135.9004 -313.33524 136.10777 -312.73579 136.27087 C -312.13634 136.43397 -311.48591 136.54924 -310.86111 136.68847 C -310.23631 136.8277 -309.58333 137.00126 -308.98713 137.10606 C -308.39093 137.21086 -307.85558 137.25229 -307.28975 137.32559 C -306.72392 137.39885 -306.20612 137.50171 -305.59167 137.54581 C -304.97722 137.58991 -304.26903 137.56421 -303.60758 137.57421 C -302.94613 137.58381 -302.2569 137.66499 -301.62349 137.60329 C -300.99008 137.54158 -300.42715 137.34981 -299.82915 137.2231 C -299.23115 137.09639 -298.56051 137.0367 -298.03551 136.8429 C -297.51051 136.6491 -297.14302 136.3572 -296.69685 136.11436 C -296.25068 135.87152 -295.81078 135.74025 -295.3582 135.38582 C -295.05908 135.15157 -294.77711 134.8131 -294.49531 134.47376 C -296.58573 136.32141 -299.83542 137.57085 -305.49957 137.37615 C -309.01688 136.83034 -310.60891 136.14294 -316.2372 134.20783 C -314.50329 124.55671 -312.99518 112.57141 -312.88191 102.72762 C -311.68798 96.245471 -315.11364 90.460013 -316.59178 84.362482 C -320.56453 71.850837 -316.33261 59.045324 -314.48926 46.583729 C -313.47906 43.041533 -316.62009 40.479134 -316.73859 37.203446 C -315.31176 32.662831 -311.67525 28.808713 -312.02179 23.70955 C -310.07021 18.304244 -310.27468 17.495664 -305.36106 14.713619 C -304.78237 14.709645 -304.2268 14.020068 -302.9109 13.984388 C -302.86839 13.983238 -302.84152 13.970253 -302.79732 13.970537 C -300.83528 15.289159 -302.05864 18.873743 -301.8638 21.352879 C -301.75111 24.682259 -302.56415 29.076648 -300.95035 31.073886 C -299.96551 34.300985 -299.88117 38.341511 -299.55768 42.573303 C -299.708 45.471985 -299.09906 56.272325 -299.06876 56.502106 C -298.85343 60.27948 -297.79136 64.789107 -297.12068 68.523689 C -296.61271 70.523298 -295.84995 74.13865 -295.52925 75.568077 C -294.94833 77.55718 -295.10866 78.337562 -294.45791 79.967011 C -294.22371 82.184679 -293.4429 84.696805 -293.00222 86.976773 C -292.25692 88.991145 -291.99244 90.267579 -291.07353 92.104246 C -290.58654 93.895038 -289.87141 95.510758 -288.95717 97.263575 C -288.09631 99.522072 -287.27484 100.99384 -286.44329 102.9513 C -285.93322 104.07248 -285.01316 106.28823 -284.53399 107.6127 C -283.74213 109.47477 -282.86505 111.93825 -282.43009 113.97565 C -281.83724 115.94946 -281.0481 118.55603 -280.84005 120.05811 C -279.82318 123.47052 -278.89904 126.78675 -278.20222 130.67594 C -278.21636 130.56127 -278.23108 130.44792 -278.24654 130.3366 C -278.3855 129.33579 -278.572 128.48422 -278.73477 127.55818 C -278.89754 126.63214 -278.98923 125.90678 -279.223 124.78046 C -279.45677 123.65414 -279.85736 122.1345 -280.17453 120.81158 C -280.4917 119.48866 -280.86819 117.81084 -281.12607 116.84271 C -281.38395 115.87458 -281.48862 115.60825 -281.6697 114.99089 C -281.85078 114.37353 -282.01078 113.80003 -282.21264 113.13838 C -282.4145 112.47673 -282.66008 111.72758 -282.8837 111.02202 C -283.10732 110.31646 -283.21098 109.85616 -283.55476 108.90565 C -283.89854 107.95514 -284.52248 106.53192 -285.0063 105.34537 C -285.49012 104.15882 -286.05924 102.66332 -286.45714 101.78578 C -286.85504 100.90824 -287.03576 100.63111 -287.32488 100.05377 C -287.614 99.476432 -287.80761 99.158255 -288.19192 98.321756 C -288.57623 97.485257 -289.11678 96.117369 -289.57905 95.014938 C -290.04132 93.912507 -290.58785 92.701788 -290.96549 91.707427 C -291.34313 90.713066 -291.5676 89.943225 -291.86855 89.06128 C -292.1695 88.179335 -292.53257 87.295182 -292.77161 86.415826 C -293.01065 85.53647 -293.12892 84.670622 -293.30762 83.798072 C -293.48632 82.925522 -293.62375 82.194978 -293.84364 81.180319 C -294.06353 80.16566 -294.37225 78.868756 -294.63658 77.712834 C -294.90091 76.556912 -295.096 75.770011 -295.42953 74.244657 C -295.76306 72.719303 -296.22084 70.452419 -296.61652 68.556237 C -297.0122 66.660055 -297.55331 64.215404 -297.80351 62.867818 C -298.05371 61.520232 -298.06205 61.279966 -298.19133 60.486216 C -298.32061 59.692466 -298.37365 60.129969 -298.57914 58.105307 C -298.78463 56.080645 -298.84615 51.578933 -298.97942 48.31574 C -299.11269 45.052547 -299.20361 40.685743 -299.37901 38.526173 C -299.55441 36.366603 -299.63701 36.407082 -299.76613 35.347472 C -299.89525 34.287862 -299.96058 32.961003 -300.15395 32.168772 C -300.34732 31.376541 -300.54815 31.112852 -300.74537 30.584962 C -300.94259 30.057072 -301.07747 30.429897 -301.33678 29.001151 C -301.59609 27.572405 -301.34387 24.319574 -301.34787 21.978924 C -301.35187 19.638274 -300.98404 16.211712 -301.35895 14.957389 C -301.73385 13.703066 -301.66263 14.492362 -301.81463 14.260014 C -301.96663 14.027666 -302.08778 13.702446 -302.271 13.563331 C -302.45422 13.424211 -302.61858 13.453007 -302.79248 13.397817 C -302.94464 13.349522 -302.98314 13.244632 -303.20661 13.231611 z M -303.31257 14.371511 C -304.15948 14.732789 -305.00659 15.09393 -305.85345 15.455316 C -311.60433 17.356714 -309.32261 24.155331 -310.19767 28.673586 C -310.06275 32.085304 -312.22108 34.621168 -313.46779 37.163279 C -307.35899 45.649836 -317.09693 67.905569 -306.09999 100.43812 C -298.87923 131.19202 -309.53468 137.57475 -302.07156 136.64414 C -296.52077 135.95199 -291.7378 130.19209 -289.66147 124.63641 C -289.56603 115.66836 -290.80261 106.21291 -294.24946 98.137544 C -296.15 94.118712 -297.72518 90.410131 -299.64009 86.408901 C -301.64614 82.982963 -302.2393 79.251256 -302.6422 75.361704 C -303.5468 66.682711 -305.25304 58.082981 -305.413 49.355223 C -305.33812 40.820147 -302.22992 32.666158 -302.23292 24.173543 C -302.64239 21.024077 -300.78156 16.609821 -303.31257 14.371511 z M -310.50377 24.611913 C -311.03377 25.354409 -310.98452 26.205566 -311.02732 27.071078 C -310.82528 28.605248 -311.49762 30.838674 -311.56472 31.42292 C -311.32901 32.184239 -310.51177 26.40994 -310.50377 24.611913 z M -301.73222 31.249788 C -302.55948 34.154822 -302.94528 37.15742 -303.47046 40.125911 C -305.43043 49.302884 -303.81765 58.560077 -302.7073 67.725897 C -302.04037 70.692365 -302.18352 73.692529 -301.53138 76.51684 C -301.47871 83.078806 -297.04852 88.255761 -295.22662 94.208836 C -290.7649 102.50822 -289.09337 111.97307 -288.68015 121.30258 C -289.47925 126.57629 -286.73816 133.51249 -281.96333 134.0624 C -280.48129 134.23308 -278.48402 133.99674 -279.03325 130.67941 C -280.45636 122.22026 -282.34251 113.65967 -285.68567 105.72972 C -289.93554 96.503102 -294.14908 87.161048 -295.53618 77.001609 C -298.66903 65.700604 -300.04831 54.039501 -300.06461 42.322608 C -300.43404 38.760945 -299.75783 34.010059 -301.73222 31.249788 z M -289.14138 125.74653 C -289.22436 125.75599 -289.36802 125.96854 -289.65039 126.4259 C -289.56744 126.40317 -289.60684 126.5 -289.5472 126.5 C -289.46707 126.5 -289.44135 126.4073 -289.30689 126.5 C -289.17243 126.59272 -289.13202 126.9607 -289.04442 127.19114 C -288.9568 127.42158 -289.02268 127.42381 -288.78126 127.88298 C -288.74087 127.9598 -288.68901 128.04711 -288.62821 128.14268 C -288.67713 128.00216 -288.71772 127.86662 -288.74941 127.73616 C -289.04939 126.50129 -288.97735 125.72784 -289.14138 125.74653 z M -290.23973 127.54433 C -291.08941 129.30249 -291.82022 131.26082 -293.10679 132.96544 C -292.98273 132.82717 -292.86567 132.68672 -292.76053 132.54369 C -292.39908 132.05198 -292.17783 131.54386 -291.88656 131.04367 C -291.59529 130.54348 -291.26062 130.04845 -291.01328 129.54297 C -290.76594 129.03749 -290.60459 128.52861 -290.40039 128.02149 C -290.34375 127.88081 -290.29138 127.71482 -290.23973 127.54433 z M -314.65963 180.08015 C -315.44934 180.09181 -316.28667 180.16912 -317.17419 180.31838 C -317.29077 180.49481 -317.44812 180.80272 -317.56478 181.13695 C -317.68144 181.47118 -318.37984 184.22379 -318.78709 185.76719 C -319.19434 187.31059 -319.67481 188.94655 -320.00871 190.39673 C -320.34261 191.84691 -320.54235 193.10513 -320.80927 194.4591 C -321.07619 195.81307 -321.29661 197.44252 -321.60983 198.52077 C -321.92305 199.59902 -322.23735 200.13436 -322.55098 200.94115 C -322.86461 201.74794 -323.21889 202.60461 -323.49143 203.36154 C -323.76397 204.11847 -323.96017 204.77304 -324.19434 205.47859 C -324.42851 206.18414 -324.68154 206.29278 -324.89657 207.59496 C -325.1116 208.89714 -324.92304 211.3872 -324.93604 213.28338 C -324.94904 215.17956 -324.93762 216.92112 -324.97482 218.9718 C -325.01198 221.02248 -325.10462 223.38196 -325.16942 225.58682 C -325.23424 227.79168 -325.38853 230.21818 -325.36333 232.20115 C -325.33812 234.18412 -325.17105 235.71694 -325.07455 237.47474 C -324.97808 239.23254 -324.75407 241.09036 -324.78507 242.74834 C -324.81606 244.40632 -325.07119 245.84709 -325.21444 247.39658 C -325.35769 248.94607 -325.571 250.54096 -325.6445 252.04483 C -325.718 253.5487 -325.66004 254.95531 -325.66804 256.41052 C -325.67604 257.86573 -325.82413 259.49174 -325.69228 260.77621 C -325.56043 262.06068 -325.22236 262.98129 -324.98729 264.08372 C -324.75222 265.18615 -324.46704 266.39745 -324.28229 267.39054 C -324.09754 268.38363 -324.00156 269.15475 -323.86124 270.03669 C -323.72092 270.91863 -323.55655 271.9324 -323.44018 272.68214 C -323.32381 273.43188 -323.25311 273.91729 -323.15971 274.53465 C -323.06626 275.15201 -322.98705 275.76894 -322.87923 276.38647 C -322.77141 277.004 -322.63512 277.62162 -322.51289 278.23898 C -322.39066 278.85634 -322.2756 279.38539 -322.14585 280.0908 C -322.0161 280.79621 -321.87633 281.67865 -321.74141 282.4724 C -321.60649 283.26615 -321.39468 284.16341 -321.33628 284.85331 C -321.27788 285.54321 -321.33586 286.01265 -321.33559 286.59225 C -321.33532 287.17185 -321.4181 287.82992 -321.3349 288.33118 C -321.25172 288.83244 -321.05329 289.15753 -320.91246 289.57081 C -320.77163 289.98409 -320.40721 290.39329 -320.49001 290.81043 C -320.57286 291.22757 -321.03615 291.4329 -321.30927 291.74396 C -321.58239 292.05502 -322.04233 292.44785 -322.12853 292.67679 C -322.21473 292.90585 -322.12853 292.82795 -322.12853 292.90325 C -322.12853 292.97861 -322.18233 292.9796 -322.12853 293.12901 C -322.07477 293.27842 -321.81956 293.50259 -321.66523 293.68927 C -321.5109 293.87595 -321.65345 293.97676 -321.20262 294.24883 C -320.75179 294.5209 -319.61477 294.58091 -318.82102 294.74676 C -318.02727 294.91261 -316.95648 295.22559 -316.44011 295.24399 C -315.92374 295.26238 -315.99802 295.18446 -315.77875 295.15466 C -315.55948 295.12476 -315.4806 295.10672 -315.12431 295.06532 C -314.76802 295.02388 -314.13456 294.97026 -313.63953 294.92266 C -313.1445 294.87502 -312.64614 294.90965 -312.15406 294.77931 C -311.66198 294.64897 -311.20394 294.35267 -310.72884 294.13941 C -310.25374 293.92615 -309.74592 293.63057 -309.30362 293.50021 C -308.86132 293.36987 -308.51003 293.37857 -308.11316 293.31807 C -307.71629 293.25756 -307.52363 293.44331 -306.92271 293.13663 C -306.32179 292.82995 -305.59162 291.78664 -304.92615 291.11168 C -304.26068 290.43672 -303.46773 289.83234 -302.9296 289.08673 C -302.39147 288.34112 -302.11941 287.49957 -301.71421 286.70582 C -301.30901 285.91207 -300.91665 285.28972 -300.49813 284.32422 C -300.07961 283.35872 -299.67562 282.04186 -299.26405 280.90037 C -298.85248 279.75888 -298.39283 278.41521 -298.02927 277.47582 C -297.66571 276.53643 -297.41603 275.99512 -297.1096 275.25488 C -296.80317 274.51464 -296.49339 273.69728 -296.19061 273.03395 C -295.88783 272.37062 -295.60241 271.85848 -295.30833 271.27077 C -295.01425 270.68306 -294.741 270.24044 -294.42605 269.5076 C -294.1111 268.77476 -293.78668 267.74408 -293.4669 266.86214 C -293.14712 265.9802 -292.79612 265.09847 -292.50706 264.216 C -292.218 263.33353 -291.99003 262.45248 -291.73143 261.57054 C -291.47283 260.6886 -291.17314 259.74092 -290.9558 258.92439 C -290.73846 258.10786 -290.59654 257.42541 -290.41701 256.67576 C -290.23748 255.92611 -290.03823 255.19839 -289.87823 254.42643 C -289.71823 253.65447 -289.59991 252.83927 -289.46063 252.04552 C -289.32135 251.25177 -289.18484 250.67772 -289.04304 249.66392 C -288.90124 248.65012 -288.78434 247.195 -288.65522 245.96028 C -288.5261 244.72556 -288.42475 243.90929 -288.2681 242.25595 C -288.11145 240.60261 -287.91577 238.11032 -287.7397 236.03775 C -287.56363 233.96518 -287.2708 231.20486 -287.212 229.82024 C -287.1532 228.43562 -287.21142 228.43713 -287.2113 227.74543 C -287.21118 227.05373 -287.1269 226.46934 -287.2113 225.66992 C -287.29567 224.8705 -287.59401 223.87872 -287.78541 222.98292 C -287.97681 222.08712 -288.25104 221.32077 -288.35951 220.29522 C -288.46798 219.26967 -288.35993 218.00196 -288.36021 216.85543 C -288.36049 215.7089 -288.4509 214.36698 -288.3609 213.41634 C -288.27088 212.4657 -288.07427 211.91666 -287.93084 211.16701 C -287.78741 210.41736 -287.62905 209.54505 -287.50078 208.91838 C -287.37251 208.29171 -287.28039 207.91012 -287.17044 207.4059 C -287.06049 206.90168 -286.8569 206.33697 -286.8408 205.89273 C -286.8247 205.44849 -286.86096 205.27598 -286.85396 205.03676 C -287.19977 205.022 -288.12009 206.26287 -288.58736 206.65658 C -289.05463 207.05029 -289.39848 207.43934 -289.98903 207.91075 C -290.57958 208.38216 -291.42528 208.9961 -292.14348 209.53888 C -292.86168 210.08166 -293.95932 211.08051 -294.29794 211.16701 C -294.63699 211.25346 -294.36391 210.88875 -294.64004 210.43571 C -271.72635 196.79394 -296.02221 183.46077 -303.41298 207.06587 C -303.52098 208.2635 -303.604 207.41674 -303.87074 207.55964 C -303.90945 207.54206 -303.94427 207.53893 -303.97462 207.54579 C -303.78026 207.00823 -303.41226 205.55887 -302.86519 202.03881 C -301.69117 194.48462 -302.81393 179.90524 -314.65963 180.08015 z M -315.55783 180.68681 L -315.55714 180.68681 C -313.38772 180.98255 -309.60869 181.42847 -308.80084 182.72422 C -308.59735 182.838 -306.04082 184.89839 -306.27866 185.24017 C -302.37308 191.01594 -302.86182 198.39733 -304.22532 204.91695 C -305.74742 207.94171 -303.26565 209.79104 -302.18998 206.15035 C -301.63884 199.92841 -294.16116 192.7631 -287.60951 195.31645 C -283.02136 198.26654 -287.38103 204.14995 -290.86785 206.516 C -292.05019 207.86622 -295.2579 209.48684 -295.219 210.90247 C -295.29815 214.17992 -291.06806 209.07184 -289.50842 208.41006 C -286.48001 206.95257 -289.07988 210.73344 -288.38722 212.23489 C -288.89323 213.08453 -288.80052 217.65627 -288.89622 218.74811 C -288.89312 218.75787 -288.84951 219.05298 -288.84151 219.09368 C -288.73338 219.63191 -288.24826 222.43981 -288.12198 223.66436 C -288.12142 223.66297 -288.12054 223.66176 -288.1199 223.6609 C -288.11956 223.6606 -288.11818 223.65968 -288.11782 223.65952 C -288.11707 223.65945 -288.1152 223.65906 -288.11436 223.65952 C -288.00595 223.74774 -287.30597 227.78676 -287.6656 229.3424 C -287.73915 231.1932 -287.90331 234.06047 -288.0922 235.08275 C -288.57711 240.80557 -289.10791 248.11228 -289.85607 252.10577 C -290.60423 256.09926 -290.99443 257.81681 -291.69196 260.02621 C -292.38949 262.23561 -292.85631 263.6715 -293.45513 265.4944 C -294.05395 267.3173 -294.82487 269.06544 -295.41221 270.43351 C -295.99955 271.80158 -296.6662 273.19083 -297.28758 274.45017 C -297.90896 275.70951 -298.47784 277.26721 -299.00574 278.71821 C -299.53364 280.16921 -299.97626 282.16517 -300.59855 283.66286 C -301.22084 285.16055 -301.798 285.75582 -302.08818 286.30831 C -302.37836 286.8608 -302.5635 287.54984 -303.11242 288.55833 C -303.66134 289.56682 -304.1148 290.71413 -306.52451 291.92332 C -308.93422 293.13251 -312.8016 294.65436 -316.30299 294.41365 C -319.62536 294.41583 -322.39492 293.24982 -320.01079 290.20032 C -321.23986 280.66022 -322.7071 271.06773 -324.68534 261.60032 C -325.49413 252.03225 -323.625 242.46768 -324.27398 232.86736 C -323.88884 223.79182 -325.30418 214.54532 -323.45542 205.60879 C -321.05247 200.2098 -319.99165 194.41869 -318.72476 188.66888 C -317.70494 186.16985 -317.96026 181.797 -315.55783 180.68681 z M -309.42204 182.88004 C -312.67562 188.8039 -309.6027 195.88519 -313.70671 201.51041 C -317.76979 204.83915 -320.6546 209.59387 -320.6209 214.96622 C -318.93159 220.94224 -319.29234 227.18172 -319.90275 233.33066 C -319.50065 238.59484 -323.44338 244.51541 -319.98655 249.17361 C -319.16435 254.60413 -320.14735 260.45113 -319.1292 265.99441 C -318.13181 271.88471 -318.56623 278.31404 -316.6915 283.87062 C -315.59396 286.27207 -310.32284 287.2011 -311.3445 289.62067 C -311.21034 293.37573 -308.07851 291.97218 -305.13876 290.00156 C -302.19901 288.03094 -303.04448 285.23004 -298.5369 276.39478 C -294.02932 267.55952 -289.10145 248.36727 -288.29996 233.65684 C -287.49693 228.75726 -288.60214 224.02045 -288.9634 219.21003 C -289.0794 217.6645 -289.12172 216.11159 -288.99525 214.54309 C -288.36332 210.95673 -289.77859 211.93137 -290.6774 213.74599 C -289.9475 211.88743 -289.38498 211.06151 -291.4191 213.64141 C -292.78892 214.95923 -291.3406 220.90488 -291.2612 219.6671 C -291.84095 218.55238 -291.66645 217.07588 -291.3076 215.70515 C -291.22362 215.04147 -290.9803 214.35608 -290.6781 213.74599 C -290.90493 214.32356 -291.12113 214.99288 -291.3076 215.70515 C -291.3515 216.04845 -291.36458 216.38502 -291.30968 216.68576 C -290.79005 218.061 -290.61922 219.45374 -290.67602 220.83539 C -290.78555 223.49735 -291.79245 226.11651 -293.14557 228.47881 C -293.83925 234.61957 -295.46467 240.73626 -295.94754 246.81971 C -296.17205 249.56692 -294.20265 254.00275 -296.1823 255.63904 C -297.39719 251.60066 -300.69715 252.83192 -300.42542 256.77687 C -300.67333 263.04707 -301.19358 269.3061 -303.43168 275.21956 C -305.02744 278.3609 -305.43594 282.34848 -307.28213 285.21966 C -310.07479 288.27478 -312.46232 283.71933 -314.85076 282.47102 C -315.81105 275.34144 -316.65423 268.14326 -316.34385 260.93688 C -316.63882 250.46729 -315.64433 239.15335 -313.73095 228.36247 C -313.72801 228.31967 -313.69901 227.98939 -313.69701 227.96011 C -313.66705 227.44718 -313.58967 227.28885 -313.51557 227.0896 C -313.36901 226.29662 -313.20182 225.51967 -313.04534 224.73363 C -312.99973 224.28589 -312.97136 224.00413 -312.85767 222.89774 C -312.77058 222.05021 -312.67856 222.21988 -312.57027 222.39704 C -312.09458 220.16854 -311.59318 217.96427 -311.04256 215.81941 C -309.11688 212.45724 -313.13377 212.24523 -314.7919 210.90316 C -313.75043 207.16507 -309.76759 204.79409 -308.10278 201.24587 C -305.17196 197.91884 -308.17142 194.23547 -308.19142 190.59272 C -307.90152 187.68442 -305.13155 184.04606 -309.42204 182.88004 z M -312.57027 222.39704 C -312.73536 223.17044 -312.88979 223.95227 -313.04534 224.73363 C -313.06804 224.95656 -313.07924 225.19496 -313.13884 225.64776 C -313.25053 226.49717 -313.39284 226.75954 -313.51557 227.0896 C -313.59344 227.51087 -313.65595 227.93948 -313.73095 228.36247 C -313.86208 230.2942 -315.15369 245.26284 -315.46642 247.01846 C -315.69738 248.31504 -315.7821 251.16265 -315.8293 251.22418 L -315.83 251.22487 L -315.83069 251.22557 L -315.83138 251.22487 C -315.84791 251.20279 -315.86037 250.80264 -315.87293 249.81904 C -316.03515 256.38149 -316.09792 262.95462 -315.89856 269.51175 C -315.66855 271.17236 -315.52121 274.31535 -315.21296 277.04784 C -314.5999 278.55435 -315.61758 281.8452 -313.56336 282.98834 C -312.31534 283.71744 -312.34966 283.9794 -311.18175 285.05068 C -310.5801 285.76426 -308.79814 286.40476 -307.65887 284.66287 C -305.29782 277.67574 -303.2153 270.09853 -302.92891 262.55878 C -303.24048 256.19069 -298.92887 250.70069 -299.68649 244.35639 C -299.5369 241.44332 -298.92781 235.77392 -302.77309 239.981 C -308.07921 242.38342 -311.78593 236.358 -311.66791 231.70807 C -312.22196 228.62312 -311.46707 223.16612 -312.19631 221.98568 L -311.93315 221.90119 C -312.06477 221.68798 -312.10545 221.55028 -312.15545 221.40742 C -312.15245 221.57349 -312.14851 221.74526 -312.20531 222.02792 C -312.34893 222.74272 -312.4668 222.5663 -312.57027 222.39704 z M -312.37567 194.94248 C -312.41347 194.94502 -312.45321 194.9535 -312.49479 194.96672 C -313.84587 195.39628 -317.13106 201.37982 -319.17698 207.59288 C -316.62411 203.29471 -312.6199 199.83112 -311.89852 195.73889 C -311.9409 195.17248 -312.11106 194.9247 -312.37567 194.94248 z M -293.90389 202.90793 C -295.14172 203.08148 -296.27138 203.30445 -297.28134 204.09492 C -300.21578 205.20266 -302.05418 208.17159 -304.88114 209.07697 C -307.77441 211.93332 -310.68541 215.91616 -310.16997 220.16364 C -310.4588 223.67662 -310.11124 227.32311 -306.77589 229.30015 C -305.07201 229.21823 -302.92131 230.71517 -301.16504 230.79047 C -300.51089 230.81854 -299.90707 230.66386 -299.4074 230.13603 C -299.46471 229.84878 -299.46967 229.52474 -299.51267 229.2219 C -299.94383 226.1873 -299.58776 222.57758 -296.05003 221.95036 C -291.82398 222.85447 -290.39497 221.23294 -294.08672 218.36376 C -295.58021 215.38594 -296.54001 211.34975 -294.68783 208.56173 C -294.53667 207.33933 -290.67069 203.34236 -293.90389 202.90793 z M -305.30566 208.52294 C -307.50821 210.30584 -308.75566 212.63566 -309.98853 215.12966 C -308.74685 212.8021 -307.26211 210.14695 -305.30566 208.52294 z M -320.78088 218.06597 C -320.70393 218.54947 -320.60549 219.01293 -320.44916 219.41848 C -319.5791 227.24453 -320.55809 235.30017 -322.05928 243.0205 C -322.50886 244.41585 -322.29533 245.63266 -321.91039 246.81417 C -322.10406 246.14909 -322.20406 245.46058 -322.08213 244.7172 C -320.87602 236.41438 -319.31433 227.85212 -320.35428 219.44549 C -320.53645 218.96991 -320.65243 218.52039 -320.78088 218.06597 z M -294.02716 222.28139 C -293.73817 222.51913 -293.17323 222.58416 -292.68573 222.74192 C -292.64016 222.75672 -292.60706 222.7828 -292.56316 222.7994 C -292.59716 222.7727 -292.61934 222.7406 -292.65734 222.7156 C -292.97618 222.50602 -293.38773 222.3398 -294.02716 222.28139 z M -292.07562 224.38044 C -292.73419 225.57551 -293.19597 226.85451 -293.56524 228.17272 C -293.1027 226.99607 -292.28894 225.57331 -292.07562 224.38044 z M -296.30904 225.98433 C -296.34174 226.08559 -296.32184 226.12493 -296.34574 226.21633 C -297.27904 229.78284 -291.9335 226.08491 -296.12344 226.00511 C -296.20087 226.00361 -296.22494 225.98333 -296.30904 225.98433 z M -304.56742 233.3923 C -304.64302 236.89983 -300.05164 234.92662 -304.56742 233.3923 z M -313.31266 238.98099 C -313.03705 238.97409 -312.60372 239.3334 -312.25725 239.49069 C -311.88768 239.65847 -311.45962 239.92546 -311.14851 239.99416 C -310.8374 240.06286 -310.68592 239.99839 -310.4546 240.00039 C -310.22328 240.00239 -310.09954 239.93352 -309.76069 240.00662 C -309.42184 240.07975 -308.91517 240.37999 -308.49267 240.56688 C -308.07017 240.75377 -307.79089 241.02531 -307.22534 241.12783 C -306.65979 241.23035 -305.85286 241.04841 -305.16646 241.00871 C -304.48006 240.969 -303.63539 241.06546 -303.10688 240.8896 C -302.57837 240.71374 -302.39602 240.41856 -302.04039 240.18322 C -301.68476 239.94788 -301.22053 239.55193 -300.97321 239.47753 C -300.72591 239.40313 -300.79322 239.47753 -300.70312 239.47753 C -300.61304 239.47753 -301.02623 238.88364 -300.43234 239.47753 C -299.83845 240.07142 -300.43234 242.65658 -300.43234 244.24628 C -300.43234 245.83598 -300.25055 247.99147 -300.43234 249.01571 C -300.61413 250.03995 -300.77035 249.93718 -300.93927 250.398 C -301.10819 250.85882 -301.27163 251.31277 -301.4462 251.78028 C -301.62077 252.24779 -301.80675 252.72859 -301.98707 253.20273 C -302.16739 253.67687 -302.36244 254.05201 -302.52793 254.62518 C -302.69342 255.19835 -302.79905 255.97014 -302.93445 256.64252 C -303.06985 257.31491 -303.15561 257.42161 -303.34027 258.65916 C -303.52493 259.89671 -303.69453 262.27574 -303.87143 264.08372 C -304.04833 265.89171 -304.21682 268.32045 -304.40191 269.5076 C -304.587 270.69475 -304.64845 270.65388 -304.77172 271.22714 C -304.89499 271.8004 -305.01039 272.35134 -305.14153 272.94669 C -305.27267 273.54204 -305.41989 274.18184 -305.55912 274.7992 C -305.69835 275.41656 -305.81483 276.03324 -305.97672 276.65102 C -306.13861 277.2688 -306.34599 277.88617 -306.53074 278.50353 C -306.71549 279.12089 -306.93568 279.76436 -307.08545 280.35535 C -307.23522 280.94634 -307.31989 281.48092 -307.43726 282.04373 C -307.55463 282.60654 -307.61294 283.33869 -307.78975 283.73211 C -307.96656 284.12553 -308.13267 284.19439 -308.3043 284.42533 C -308.47593 284.65627 -308.59616 284.9883 -308.81954 285.11786 C -309.04292 285.24746 -309.27317 285.17238 -309.50099 285.19958 C -309.72881 285.22678 -309.76998 285.41083 -310.18659 285.28129 C -310.6032 285.15175 -311.15145 284.43257 -311.63397 284.00843 C -312.11649 283.58429 -312.72379 283.04257 -313.08136 282.73626 C -313.43893 282.42995 -313.54069 282.35253 -313.77042 282.16077 C -314.00015 281.96901 -314.3059 281.91354 -314.45949 281.58527 C -314.61308 281.257 -314.45949 280.73455 -314.45949 280.30895 C -314.45949 279.88335 -314.41439 279.75755 -314.45949 279.03193 C -314.50458 278.30631 -314.71444 276.99078 -314.84176 275.97026 C -314.96908 274.94974 -315.08825 274.47341 -315.22334 272.9086 C -315.35843 271.34379 -315.42708 268.68789 -315.52875 266.57751 C -315.63042 264.46713 -315.83446 262.29624 -315.83346 260.24643 C -315.83215 258.19662 -315.63724 256.27784 -315.53914 254.29346 C -315.44099 252.30908 -315.41628 250.05563 -315.24481 248.3405 C -315.07334 246.62537 -314.80845 245.45224 -314.59037 244.00805 C -314.37229 242.56386 -314.26503 240.40997 -313.93594 239.6756 C -313.78681 239.34283 -313.73381 239.26443 -313.71156 239.2677 C -313.71119 239.2678 -313.70983 239.26824 -313.70948 239.26839 C -313.70915 239.26858 -313.70772 239.26885 -313.7074 239.26908 C -313.69418 239.28125 -313.69457 239.33264 -313.68178 239.34595 L -313.68109 239.34665 C -313.68076 239.34687 -313.67934 239.34785 -313.67901 239.34803 C -313.67865 239.34817 -313.6773 239.34863 -313.67693 239.34872 C -313.67108 239.34932 -313.66245 239.34484 -313.65131 239.33141 C -313.55621 239.21681 -313.63633 239.05012 -313.36599 238.98792 C -313.34909 238.98403 -313.33103 238.98145 -313.31266 238.98099 z M -295.5057 239.26423 C -296.05637 240.83516 -296.30649 242.44122 -296.44269 244.05929 C -296.1051 242.47778 -295.80757 240.86944 -295.5057 239.26423 z M -296.53826 245.67219 C -296.60099 248.57887 -296.27504 251.52018 -295.92191 254.42712 C -295.90844 252.50547 -296.54726 248.67546 -296.53826 245.67219 z M -321.60083 247.70822 C -321.14788 248.85974 -320.60181 250.0025 -320.32519 251.25188 C -320.741 258.69525 -319.55194 266.06498 -319.37574 273.47716 C -318.40318 276.1984 -318.81455 279.53548 -317.9706 282.28404 C -319.29634 272.7569 -320.33205 263.17353 -320.2317 253.52891 C -319.59147 251.28294 -320.83635 249.54986 -321.60083 247.70822 z M -316.10078 261.52414 L -316.10562 261.81985 C -316.23186 267.52365 -316.04028 266.72788 -316.10078 261.52414 z M -316.45535 284.90248 C -316.27657 285.08846 -316.13543 285.29138 -315.9221 285.46135 C -312.59545 287.81248 -309.9167 296.48209 -311.9193 289.11582 C -312.87673 287.54146 -314.95298 286.43316 -316.45535 284.90248 z "
           transform="translate(7.4485447e-6)" /><path
           style="fill:#ffffff;fill-opacity:1;stroke:none;stroke-width:2.11667;stroke-linecap:round;stroke-linejoin:bevel"
           d="m -312.1118,221.61567 c 0,0 -2.37999,10.82101 -2.06234,16.91325 1.99549,2.90398 11.57076,1.91127 11.57076,1.91127 0,0 -5.56391,0.90317 -7.90236,-3.72937 -1.59974,-1.97443 -1.60606,-15.09515 -1.60606,-15.09515 z"
           id="path21"
           sodipodi:nodetypes="ccccc"
           inkscape:label="Cap" /></g></g></g></svg>
