<?xml version="1.0" encoding="UTF-8" standalone="no"?>
<!-- Created with Inkscape (http://www.inkscape.org/) -->

<svg
   width="2048"
   height="2048"
   viewBox="0 0 541.86666 541.86666"
   version="1.1"
   id="svg1"
   xml:space="preserve"
   sodipodi:docname="icon_theDiveClub.svg"
   inkscape:version="1.4.2 (f4327f4, 2025-05-13)"
   xmlns:inkscape="http://www.inkscape.org/namespaces/inkscape"
   xmlns:sodipodi="http://sodipodi.sourceforge.net/DTD/sodipodi-0.dtd"
   xmlns="http://www.w3.org/2000/svg"
   xmlns:svg="http://www.w3.org/2000/svg"><sodipodi:namedview
     id="namedview1"
     pagecolor="#ffffff"
     bordercolor="#000000"
     borderopacity="0.25"
     inkscape:showpageshadow="2"
     inkscape:pageopacity="0.0"
     inkscape:pagecheckerboard="true"
     inkscape:deskcolor="#d1d1d1"
     inkscape:document-units="px"
     inkscape:zoom="0.36756309"
     inkscape:cx="250.29717"
     inkscape:cy="999.82836"
     inkscape:window-width="2560"
     inkscape:window-height="1369"
     inkscape:window-x="1912"
     inkscape:window-y="-8"
     inkscape:window-maximized="1"
     inkscape:current-layer="layer1" /><defs
     id="defs1"><rect
       x="117.34996"
       y="2293.1336"
       width="1800.6485"
       height="596.36864"
       id="rect3" /></defs><g
     inkscape:label="layer_Main"
     inkscape:groupmode="layer"
     id="layer1"><g
       id="g9"
       inkscape:label="Badge"
       style="display:inline"><path
         id="path4"
         style="opacity:1;fill:#ea0067;fill-opacity:1;stroke:#ea0067;stroke-width:9.74276;stroke-dasharray:none;stroke-opacity:1;paint-order:normal"
         d="m 285.52117,48.999539 c 114.04997,-17.552847 227.1761,-17.552847 339.3784,0 V 331.73639 c 0,108.22472 -169.6892,169.94413 -169.6892,169.94413 0,0 -169.6892,-61.71941 -169.6892,-169.94413 z"
         sodipodi:nodetypes="ccscsc"
         inkscape:label="Badge"
         transform="matrix(1.0963202,0,0,1.0963202,-228.16677,-13.818711)" /><path
         id="path28"
         style="opacity:0.900783;fill:none;fill-opacity:0.5;stroke:#252525;stroke-width:3.15265;stroke-dasharray:none;stroke-opacity:1"
         d="m 285.52117,48.999539 c 114.04997,-17.552847 227.1761,-17.552847 339.3784,0 V 331.73639 c 0,108.22472 -169.6892,169.94413 -169.6892,169.94413 0,0 -169.6892,-61.71941 -169.6892,-169.94413 z"
         sodipodi:nodetypes="ccscsc"
         inkscape:label="Badge_Outline"
         transform="matrix(1.0963202,0,0,1.0963202,-228.16677,-13.818711)" /></g><g
       id="g10"
       inkscape:label="Text"
       style="display:inline"><path
         style="font-size:143.854px;line-height:0.8;font-family:'Rushford Clean';-inkscape-font-specification:'Rushford Clean';letter-spacing:0px;fill:#e8e8e8;fill-opacity:1;stroke-width:8.92895;stroke-opacity:0.4"
         d="m 259.83712,289.8936 c 24.49365,-3.31923 32.71378,-20.14141 35.4836,-38.5308 l 5.3845,-35.74898 c 2.85845,-18.97785 -2.84566,-31.75143 -25.35717,-28.7008 l -25.05998,3.39598 c -1.41583,0.19186 -2.20373,1.73976 -2.38101,2.91667 l -14.71321,97.68446 c -0.17728,1.17691 0.16747,2.57132 1.58328,2.37945 z m 13.4941,-35.26269 c -1.15225,7.64998 -3.97152,11.63484 -9.21004,12.34473 l -4.67221,0.63316 c -0.84949,0.11511 -1.11913,-0.85713 -1.00833,-1.5927 l 8.13215,-53.99126 c 0.13296,-0.8827 0.81007,-1.69502 1.65957,-1.81013 l 4.6722,-0.63315 c 4.38903,-0.59478 6.83045,2.53308 5.81116,9.30037 z m 22.58348,27.77965 c -0.22158,1.47116 0.59222,2.51378 2.00804,2.32192 l 16.98982,-2.30236 c 1.5574,-0.21106 2.72574,-1.52227 2.94732,-2.99343 l 14.71323,-97.68445 c 0.22159,-1.47115 -0.59222,-2.51377 -2.14962,-2.30272 l -16.98982,2.30236 c -1.41582,0.19186 -2.58416,1.50309 -2.80575,2.97424 z m 46.4919,-5.72384 c 0.22532,1.26647 1.1056,1.86775 2.37984,1.69506 l 19.39671,-2.62852 c 1.13265,-0.15349 2.23452,-1.02337 2.6728,-2.09154 l 35.99481,-100.85663 c 0.66849,-1.67582 -0.22042,-3.1406 -1.9194,-2.91037 l -18.26406,2.47504 c -1.27424,0.17267 -2.42042,1.33679 -2.73927,2.53289 l -13.23915,41.85733 -2.90907,9.18508 c -0.7128,1.97004 -2.29236,2.32821 -2.40689,0.32616 l -0.18357,-8.91009 -0.79962,-39.81076 c -0.10589,-1.13855 -0.94186,-2.03406 -2.07451,-1.88056 l -18.83038,2.55178 c -1.5574,0.21104 -3.07539,2.002 -2.89438,3.56269 z m 49.92558,-7.34207 c -0.22159,1.47115 0.87537,2.47539 2.14961,2.30272 l 40.63399,-5.50647 c 1.27424,-0.17268 2.72574,-1.52227 2.94732,-2.99342 l 2.63686,-17.5067 c 0.22159,-1.47115 -0.87538,-2.4754 -2.14961,-2.30272 l -19.67988,2.66689 c -0.84949,0.11512 -1.51309,-0.0832 -1.26934,-1.70145 l 2.0829,-13.82881 c 0.13295,-0.8827 0.95164,-1.7142 1.80113,-1.82932 l 18.54723,-2.51341 c 1.41581,-0.19186 2.72574,-1.52227 2.94732,-2.99342 l 2.63686,-17.50671 c 0.24374,-1.61826 -0.7338,-2.49457 -2.14961,-2.30271 l -18.8304,2.55178 c -0.84949,0.11511 -1.22991,-0.12156 -1.11912,-0.85714 l 2.14937,-14.27016 c 0.17727,-1.17692 0.85438,-1.98924 1.84546,-2.12355 l 19.82146,-2.68608 c 1.41581,-0.19186 2.562,-1.35598 2.78358,-2.82713 l 2.65902,-17.65381 c 0.22159,-1.47116 -0.59223,-2.51376 -2.00804,-2.3219 l -40.77557,5.52566 c -1.27423,0.17267 -2.72573,1.52227 -2.94732,2.99342 z m 56.91037,-55.55745 c -3.94912,28.06063 3.26948,52.87851 34.93577,46.13738 3.13695,-0.56921 6.10154,-1.83562 8.4998,-3.0253 1.03539,-0.42853 1.77899,-1.68221 1.91193,-2.56489 l 2.72549,-18.09516 c 0.28806,-1.9125 -1.5168,-2.82082 -3.46817,-1.83582 -6.82298,2.94218 -13.80481,4.17655 -18.40073,0.6201 -5.38759,-4.74617 -5.0221,-15.46002 -3.6926,-24.28693 1.28519,-8.53268 3.84953,-19.11215 11.35942,-26.6149 5.85896,-4.82912 12.77431,-5.62213 18.9547,-4.29798 1.72978,0.48616 3.88919,-0.95937 4.15509,-2.72475 l 2.72549,-18.09517 c 0.17727,-1.17692 -0.23395,-2.12998 -1.1807,-2.28991 -2.11021,-0.72282 -4.87537,-0.78043 -7.92368,-0.79968 -29.94399,1.75202 -46.05933,27.71441 -50.60181,57.87301 z m 50.55034,40.99503 c -0.22159,1.47115 0.7338,2.49457 2.14962,2.30271 l 41.62506,-5.64077 c 1.27424,-0.17268 2.72574,-1.52227 2.94733,-2.99342 l 2.68116,-17.80093 c 0.19944,-1.32404 -0.91969,-2.18117 -2.19392,-2.0085 l -19.82146,2.68608 c -1.5574,0.21106 -2.31826,-0.26228 -2.00804,-2.3219 l 11.27866,-74.8816 c 0.22158,-1.47115 -0.7338,-2.49458 -2.00804,-2.3219 l -16.98982,2.30235 c -1.41582,0.19187 -2.72574,1.52228 -2.94732,2.99343 z m 53.72426,-36.24697 c -4.05499,26.92206 10.58835,30.99041 24.1802,29.14852 15.7156,-2.12968 30.62717,-9.05023 34.83727,-37.0021 l 10.28153,-68.26143 c 0.22158,-1.47115 -0.73379,-2.49457 -2.14963,-2.30271 l -16.98982,2.30236 c -1.41581,0.19187 -2.58414,1.50308 -2.80573,2.97423 l -10.41448,69.14412 c -1.39598,9.26825 -6.962,10.31075 -8.94415,10.57936 -2.2653,0.30698 -7.62325,0.88894 -6.20511,-8.52642 l 10.41448,-69.14412 c 0.22158,-1.47115 -0.73379,-2.49458 -2.00804,-2.3219 l -16.98982,2.30236 c -1.41581,0.19186 -2.72574,1.52227 -2.94732,2.99342 z m 91.13976,19.20989 c 19.5383,-2.64771 27.41252,-16.25254 29.60621,-30.81695 l 1.08576,-7.20864 c 1.04145,-6.91441 0.10939,-12.69671 -4.96424,-16.76487 -2.52142,-1.67589 -1.3666,-1.97649 0.88144,-4.01048 4.16861,-3.73538 7.51969,-11.25099 8.49466,-17.72407 l 0.70907,-4.70768 c 1.55109,-10.29806 -1.18842,-24.33805 -20.8683,-21.67115 l -28.17478,3.81807 c -2.12373,0.28779 -3.07538,2.002 -3.23049,3.0318 l -14.69107,97.53734 c -0.24374,1.61826 0.42848,2.68006 1.8443,2.4882 z m 7.56982,-34.60399 c -0.55886,5.552 -2.01153,11.51335 -6.40056,12.10812 l -4.81379,0.65234 c -1.41582,0.19187 -2.54847,0.34535 -2.32688,-1.1258 l 2.45958,-16.32977 c 0.17727,-1.17692 1.23482,-1.75257 2.22589,-1.88688 l 3.82271,-0.51802 c 1.27423,-0.17268 5.76917,0.37109 5.03305,7.10001 z m 4.73444,-36.9579 c -0.50964,3.38365 -4.29783,7.3557 -8.12054,7.87373 l -2.54847,0.34535 c -0.84949,0.11513 -1.53524,0.0639 -1.38014,-0.96586 l 2.01643,-13.38749 c 0.13294,-0.88268 0.7436,-1.25366 1.59308,-1.36878 l 4.10588,-0.5564 c 2.97321,-0.40291 5.35306,1.29216 4.93204,4.08734 z"
         id="text28"
         inkscape:label="txt_theDiveClub_shadow"
         aria-label="DiveClub"
         transform="matrix(1.0963202,0,0,1.0963202,-228.16677,-13.818711)" /><path
         style="font-size:143.854px;line-height:0.8;font-family:'Rushford Clean';-inkscape-font-specification:'Rushford Clean';letter-spacing:0px;fill:#252525;fill-opacity:1;stroke-width:8.92895;stroke-opacity:0.4"
         d="m 256.3511,284.44225 c 24.49365,-3.31923 32.71378,-20.14143 35.48359,-38.53081 l 5.3845,-35.74898 c 2.85845,-18.97785 -2.84566,-31.75143 -25.35716,-28.70081 l -25.05999,3.39598 c -1.41582,0.19186 -2.20373,1.73976 -2.381,2.91669 l -14.71322,97.68445 c -0.17727,1.17691 0.16747,2.57132 1.58329,2.37946 z m 13.49409,-35.2627 c -1.15224,7.64998 -3.97151,11.63485 -9.21004,12.34473 l -4.6722,0.63316 c -0.8495,0.11511 -1.11913,-0.85714 -1.00834,-1.59271 l 8.13216,-53.99125 c 0.13295,-0.88268 0.81007,-1.69501 1.65956,-1.81013 l 4.67221,-0.63315 c 4.38903,-0.59478 6.83045,2.53307 5.81115,9.30037 z m 22.58349,27.77967 c -0.22158,1.47115 0.59222,2.51376 2.00804,2.3219 l 16.98982,-2.30236 c 1.55739,-0.21105 2.72574,-1.52227 2.94732,-2.99342 l 14.71323,-97.68446 c 0.22159,-1.47115 -0.59223,-2.51377 -2.14962,-2.30272 l -16.98982,2.30236 c -1.41582,0.19187 -2.58416,1.50309 -2.80575,2.97424 z m 46.4919,-5.72386 c 0.22532,1.26648 1.1056,1.86775 2.37983,1.69507 l 19.39671,-2.62852 c 1.13265,-0.1535 2.23452,-1.02337 2.6728,-2.09156 l 35.99481,-100.85663 c 0.66849,-1.67582 -0.22042,-3.14059 -1.9194,-2.91036 l -18.26405,2.47503 c -1.27424,0.17269 -2.42042,1.33679 -2.73927,2.5329 l -13.23915,41.85732 -2.90907,9.18508 c -0.71281,1.97005 -2.29236,2.32822 -2.40689,0.32616 l -0.18358,-8.91009 -0.7996,-39.81076 c -0.1059,-1.13854 -0.94186,-2.03405 -2.07452,-1.88056 l -18.83038,2.55178 c -1.55741,0.21105 -3.07538,2.002 -2.89438,3.56271 z m 49.92556,-7.34206 c -0.22158,1.47115 0.87539,2.4754 2.14963,2.30272 l 40.63398,-5.50648 c 1.27424,-0.17267 2.72575,-1.52227 2.94733,-2.99342 l 2.63686,-17.5067 c 0.22159,-1.47116 -0.87539,-2.4754 -2.14962,-2.30272 l -19.67987,2.66689 c -0.8495,0.11513 -1.5131,-0.0832 -1.26935,-1.70144 l 2.0829,-13.82882 c 0.13295,-0.8827 0.95165,-1.71421 1.80114,-1.82932 l 18.54722,-2.51341 c 1.41582,-0.19187 2.72574,-1.52228 2.94732,-2.99343 l 2.63686,-17.50668 c 0.24374,-1.61828 -0.7338,-2.4946 -2.14961,-2.30273 l -18.83039,2.55177 c -0.84949,0.11512 -1.22992,-0.12154 -1.11913,-0.85711 l 2.14937,-14.27017 c 0.17727,-1.17693 0.85439,-1.98925 1.84547,-2.12355 l 19.82146,-2.68609 c 1.41581,-0.19186 2.562,-1.35597 2.78359,-2.82712 l 2.65901,-17.65382 c 0.22159,-1.47115 -0.59223,-2.51377 -2.00804,-2.32191 l -40.77557,5.52566 c -1.27423,0.17267 -2.72574,1.52228 -2.94733,2.99343 z m 56.91038,-55.55745 c -3.94911,28.06061 3.26949,52.8785 34.93577,46.13738 3.13696,-0.56922 6.10155,-1.83564 8.4998,-3.02531 1.0354,-0.42853 1.779,-1.68221 1.91194,-2.5649 l 2.72549,-18.09515 c 0.28806,-1.9125 -1.51681,-2.82081 -3.46817,-1.83581 -6.82298,2.94217 -13.80481,4.17654 -18.40074,0.62008 -5.38759,-4.74617 -5.02209,-15.46001 -3.69259,-24.28691 1.2852,-8.53269 3.84953,-19.11216 11.35941,-26.61491 5.85897,-4.82912 12.77433,-5.62214 18.95472,-4.29799 1.72976,0.48616 3.88918,-0.95937 4.15508,-2.72475 l 2.72549,-18.09516 c 0.17727,-1.17691 -0.23395,-2.12998 -1.18071,-2.2899 -2.1102,-0.72283 -4.87536,-0.78045 -7.92368,-0.7997 -29.94399,1.75203 -46.05933,27.71443 -50.60181,57.87303 z m 50.55035,40.99502 c -0.22159,1.47115 0.7338,2.49458 2.14962,2.30271 l 41.62506,-5.64077 c 1.27423,-0.17268 2.72574,-1.52227 2.94732,-2.99342 l 2.68118,-17.80094 c 0.19942,-1.32403 -0.91971,-2.18116 -2.19393,-2.00849 l -19.82147,2.68609 c -1.5574,0.21105 -2.31825,-0.2623 -2.00803,-2.32191 l 11.27866,-74.8816 c 0.22158,-1.47115 -0.7338,-2.49458 -2.00804,-2.32191 l -16.98982,2.30236 c -1.41582,0.19186 -2.72574,1.52228 -2.94732,2.99343 z m 53.72425,-36.24697 c -4.05499,26.92207 10.58835,30.99041 24.18022,29.14852 15.71558,-2.12968 30.62715,-9.05022 34.83725,-37.00211 l 10.28153,-68.26141 c 0.22158,-1.47115 -0.73379,-2.49459 -2.14962,-2.30272 l -16.98982,2.30236 c -1.41581,0.19186 -2.58415,1.50309 -2.80574,2.97424 l -10.41448,69.14411 c -1.39598,9.26826 -6.96199,10.31075 -8.94414,10.57936 -2.2653,0.30698 -7.62326,0.88895 -6.20511,-8.52642 l 10.41448,-69.14412 c 0.22157,-1.47115 -0.7338,-2.49458 -2.00803,-2.32191 l -16.98983,2.30236 c -1.41582,0.19186 -2.72575,1.52228 -2.94733,2.99343 z m 91.13977,19.20989 c 19.53829,-2.64771 27.41252,-16.25255 29.60621,-30.81695 l 1.08576,-7.20864 c 1.04145,-6.91441 0.10939,-12.69672 -4.96425,-16.76487 -2.52142,-1.67588 -1.3666,-1.97649 0.88144,-4.01048 4.16861,-3.73537 7.5197,-11.251 8.49467,-17.72407 l 0.70907,-4.70768 c 1.55109,-10.29806 -1.18842,-24.33806 -20.86831,-21.67116 l -28.17478,3.81807 c -2.12373,0.2878 -3.07538,2.002 -3.23049,3.03181 l -14.69107,97.53733 c -0.24374,1.61828 0.42849,2.68007 1.84431,2.48821 z m 7.56982,-34.604 c -0.55887,5.55202 -2.01153,11.51337 -6.40057,12.10814 l -4.81378,0.65234 c -1.41582,0.19186 -2.54847,0.34535 -2.32688,-1.1258 l 2.45958,-16.32979 c 0.17727,-1.17692 1.23481,-1.75257 2.22588,-1.88686 l 3.82272,-0.51804 c 1.27424,-0.17268 5.76917,0.3711 5.03305,7.10001 z m 4.73443,-36.95788 c -0.50964,3.38365 -4.29782,7.35568 -8.12054,7.87372 l -2.54846,0.34535 c -0.84949,0.11512 -1.53524,0.064 -1.38013,-0.96587 l 2.01642,-13.38747 c 0.13294,-0.8827 0.74359,-1.25367 1.59308,-1.36878 l 4.10587,-0.55641 c 2.97322,-0.40291 5.35306,1.29215 4.93204,4.08735 z"
         id="text1"
         inkscape:label="txt_theDiveClub"
         aria-label="DiveClub"
         transform="matrix(1.0963202,0,0,1.0963202,-228.16677,-13.818711)" /><path
         style="font-size:79.3012px;line-height:0.8;font-family:'Rushford Clean';-inkscape-font-specification:'Rushford Clean';letter-spacing:0px;fill:#e8e8e8;fill-opacity:1;stroke-width:4.92221;stroke-opacity:0.4"
         d="m 306.12351,173.13007 c -0.0933,0.64817 0.41444,1.37356 1.195,1.26755 l 9.28871,-1.26147 c 0.78056,-0.10601 1.52167,-1.00102 1.61501,-1.64918 l 6.03186,-41.88752 c 0.0933,-0.64816 0.50694,-0.86322 0.81918,-0.90562 l 7.25922,-0.98586 c 0.78057,-0.10601 1.49835,-0.83897 1.61502,-1.64918 l 1.38837,-9.64142 c 0.11668,-0.81019 -0.41444,-1.37355 -1.195,-1.26755 l -27.78802,3.77384 c -0.78056,0.10601 -1.49835,0.83897 -1.61503,1.64918 l -1.38836,9.64141 c -0.11668,0.8102 0.41444,1.37356 1.195,1.26756 l 7.10312,-0.96466 c 0.39028,-0.053 0.58945,0.15826 0.51944,0.64438 z m 24.43163,-3.31801 c -0.11667,0.81021 0.33639,1.38416 1.11695,1.27816 l 9.36676,-1.27208 c 0.85861,-0.11662 1.49835,-0.83898 1.61501,-1.64918 l 2.77676,-19.28285 c 0.15166,-1.05326 0.58861,-1.43035 1.29113,-1.52575 l 6.71283,-0.91166 c 0.78056,-0.10601 1.04613,0.17567 0.94112,0.90485 l -2.82343,19.60693 c -0.11666,0.8102 0.41445,1.37357 1.11696,1.27815 l 9.36674,-1.27207 c 0.78056,-0.10601 1.57641,-0.84958 1.69307,-1.65979 l 7.74692,-53.79751 c 0.11666,-0.81019 -0.49251,-1.36296 -1.27307,-1.25695 l -9.36674,1.27208 c -0.70251,0.0954 -1.4203,0.82837 -1.53697,1.63858 l -2.85842,19.84998 c -0.07,0.48612 -0.41723,0.77159 -0.80751,0.82459 l -7.57145,1.02826 c -0.39029,0.053 -0.58946,-0.15826 -0.51945,-0.64438 l 2.85842,-19.84998 c 0.11667,-0.8102 -0.33639,-1.38415 -1.195,-1.26755 l -9.36676,1.27208 c -0.78056,0.10601 -1.42029,0.82837 -1.53696,1.63858 z m 36.14,-4.9081 c -0.11668,0.8102 0.49249,1.36296 1.195,1.26755 l 22.40215,-3.04239 c 0.70251,-0.0954 1.49835,-0.83897 1.61502,-1.64918 l 1.38837,-9.64143 c 0.11667,-0.81019 -0.4925,-1.36296 -1.195,-1.26755 l -10.84982,1.47349 c -0.46834,0.0636 -0.83528,-0.0454 -0.70695,-0.93665 l 1.09671,-7.61591 c 0.07,-0.48612 0.51861,-0.94423 0.98695,-1.00784 l 10.22537,-1.38869 c 0.78056,-0.10599 1.49835,-0.83897 1.61502,-1.64917 l 1.38837,-9.64141 c 0.12834,-0.89124 -0.41444,-1.37358 -1.195,-1.26757 l -10.38148,1.40989 c -0.46834,0.0636 -0.67918,-0.0666 -0.62084,-0.47173 l 1.13171,-7.85898 c 0.0933,-0.64816 0.46389,-1.09566 1.01028,-1.16988 l 10.92787,-1.48409 c 0.78057,-0.10601 1.40863,-0.74734 1.5253,-1.55756 l 1.40005,-9.72243 c 0.11666,-0.8102 -0.3364,-1.38416 -1.11695,-1.27815 l -22.48021,3.05299 c -0.70251,0.0954 -1.49834,0.83897 -1.61502,1.64918 z"
         id="text2"
         inkscape:label="txt_The"
         aria-label="the"
         transform="matrix(1.0963202,0,0,1.0963202,-228.16677,-13.818711)" /></g><g
       id="g26"
       inkscape:label="Icon"
       transform="matrix(0.94372154,0,0,0.94372154,-539.97825,403.25415)"
       style="display:inline"><g
         id="g8"
         transform="matrix(1.1376672,0,0,1.1376672,1148.5214,-555.30822)"
         style="display:inline"
         inkscape:label="Pool"><path
           id="path3"
           style="display:inline;fill:#00baf5;fill-opacity:1;stroke-width:1.643"
           inkscape:label="Pool_Wall"
           d="m -133.68531,376.1764 c -3.93177,0.13046 -8.16265,0.46756 -12.68037,1.01318 -36.1417,4.36489 -189.10401,27.1633 -216.54466,32.27102 -27.44066,5.10772 -42.10093,12.94512 -22.45162,25.98355 1.41279,0.93747 3.39722,2.14552 5.87354,3.58391 4.684,-1.48504 10.29624,-2.79776 16.57808,-3.96704 27.44065,-5.10772 180.40296,-27.90613 216.54466,-32.27102 22.57086,-2.72593 37.98115,-0.24148 44.71266,7.16492 0.95698,-2.65292 1.76732,-4.99927 2.399856,-6.96566 5.958804,-18.52439 -6.909766,-27.72608 -34.432146,-26.81286 z"
           sodipodi:nodetypes="sssscsscss" /><path
           id="path5"
           style="display:inline;fill:#252525;fill-opacity:1;stroke-width:1.643"
           inkscape:label="Pool_Water"
           d="m -123.42406,376.38914 c 2.4707,0.18894 4.77026,0.49031 6.89971,0.89959 -2.13016,-0.40944 -4.42807,-0.71064 -6.89971,-0.89959 z m 8.72535,1.27454 c 0.52591,0.12261 1.047,0.24822 1.54937,0.38553 -0.50245,-0.13733 -1.02337,-0.2629 -1.54937,-0.38553 z m 3.75911,1.0743 c 0.44273,0.15174 0.89578,0.29713 1.31689,0.46207 -0.42115,-0.16495 -0.87411,-0.31032 -1.31689,-0.46207 z m 3.42074,1.40834 c 0.32177,0.1582 0.66894,0.30133 0.97515,0.46881 -0.30631,-0.16753 -0.65327,-0.31056 -0.97515,-0.46881 z m 4.73907,3.092 c 0.11555,0.10436 0.2205,0.21489 0.33211,0.32152 -0.11162,-0.10664 -0.21654,-0.21715 -0.33211,-0.32152 z m 1.0228,1.01414 c 0.12134,0.13105 0.23457,0.26676 0.3504,0.40094 -0.11586,-0.1342 -0.22903,-0.26986 -0.3504,-0.40094 z m 0.90536,1.07719 c 0.11465,0.14972 0.22388,0.3025 0.33211,0.45581 -0.10824,-0.15332 -0.21745,-0.30608 -0.33211,-0.45581 z m 0.79274,1.14987 c 0.09947,0.1599 0.197334,0.32067 0.290232,0.48421 -0.09291,-0.16356 -0.190751,-0.32429 -0.290232,-0.48421 z m 0.683952,1.23651 c 0.07868,0.16027 0.160236,0.31875 0.232958,0.48229 -0.07271,-0.1635 -0.154296,-0.32206 -0.232958,-0.48229 z m 0.573251,1.33759 c 0.05529,0.14956 0.11739,0.29552 0.167981,0.44763 -0.05061,-0.15215 -0.112675,-0.29803 -0.167981,-0.44763 z m 0.532821,1.73131 c 0.0115,0.0486 0.02264,0.0974 0.03369,0.14632 -0.01105,-0.0489 -0.02219,-0.0977 -0.03369,-0.14632 z m 0.277721,1.49738 c 0.02281,0.16526 0.03387,0.33668 0.05198,0.50442 -0.01812,-0.16774 -0.02917,-0.33915 -0.05198,-0.50442 z m 0.129956,1.40979 c 0.04248,0.75147 0.02154,1.53632 -0.02647,2.33488 0.04803,-0.79866 0.06896,-1.58332 0.02647,-2.33488 z m -0.293604,4.57061 c -0.05844,0.37594 -0.08871,0.73714 -0.165574,1.12243 0.07686,-0.38531 0.107136,-0.74647 0.165574,-1.12243 z m -32.649347,3.45539 c -4.72389,0.0347 -9.91887,0.39042 -15.56154,1.0719 -36.1417,4.36489 -189.10401,27.1633 -216.54466,32.27102 -6.28171,1.16926 -11.89366,2.48203 -16.5776,3.96704 31.9648,18.56699 143.48991,71.51001 167.09974,81.03481 25.43892,10.26272 60.10991,1.13815 68.29779,-16.79757 7.42735,-16.26984 33.09119,-67.4012 42.43739,-93.31038 -5.0487,-5.55469 -14.97945,-8.34091 -29.15112,-8.23682 z"
           sodipodi:nodetypes="ccccccccccccccccccccccccccccccccccccccccccssscsscs" /><path
           id="path6"
           style="display:inline;fill:#cfcfcf;fill-opacity:1;stroke-width:1.85121"
           inkscape:label="Pool_Edge"
           d="m -126.76202,370.29612 c -4.43003,0.14699 -9.19725,0.52645 -14.28748,1.14121 -40.72188,4.91806 -213.06892,30.60578 -243.98709,36.3608 -30.91817,5.75502 -47.43664,14.58595 -25.29719,29.27673 22.13945,14.69078 168.90299,88.31916 197.56575,99.88245 28.66276,11.56329 67.72738,1.28273 76.95288,-18.92596 9.2255,-20.20869 40.175829,-93.67106 47.848927,-117.52473 6.713961,-20.87196 -7.785531,-31.23944 -38.795797,-30.2105 z m -6.92329,5.88028 c 3.70675,-0.12299 7.0963,-0.0293 10.26125,0.21274 2.4707,0.18894 4.77026,0.49031 6.89971,0.89959 1.07723,0.20704 2.12466,0.43195 3.11269,0.69502 0.0861,0.0226 0.17725,0.0422 0.26232,0.0655 2.0871,0.57047 3.95715,1.27442 5.63048,2.09711 0.32177,0.1582 0.66894,0.30133 0.97515,0.46881 1.42069,0.77703 2.68357,1.64747 3.76392,2.62319 0.11555,0.10436 0.2205,0.21489 0.33211,0.32152 0.64424,0.61549 1.2227,1.26879 1.73419,1.95945 0.0648,0.0887 0.13077,0.17664 0.19397,0.26617 0.18208,0.2579 0.35406,0.52132 0.5179,0.78936 0.07927,0.12875 0.158362,0.25758 0.232962,0.38891 0.139818,0.24613 0.268845,0.49794 0.39372,0.7523 0.06744,0.13737 0.135446,0.27438 0.199747,0.41346 0.0107,0.0232 0.02284,0.0455 0.03321,0.0688 0.124173,0.27922 0.233558,0.56657 0.340293,0.8553 0.05529,0.14956 0.11739,0.29552 0.167981,0.44763 0.139238,0.41864 0.261369,0.84626 0.36484,1.28416 0.01146,0.0485 0.02267,0.0971 0.03369,0.14584 0.0996,0.44051 0.180571,0.89131 0.244029,1.35106 0.01831,0.13263 0.02899,0.26932 0.04188,0.40479 0.0032,0.0333 0.0065,0.0665 0.01011,0.0996 0.03224,0.29853 0.06065,0.59899 0.07797,0.90537 0.04248,0.75147 0.02154,1.53632 -0.02647,2.33488 -0.05513,0.91695 -0.181694,1.87017 -0.35762,2.84893 -0.02267,0.16851 -0.04021,0.33443 -0.07509,0.50923 -0.231726,1.16159 -0.531925,2.35791 -0.932797,3.60412 -0.632536,1.96639 -1.442875,4.31274 -2.399855,6.96566 -9.3462,25.90918 -35.01004,77.04056 -42.43739,93.3104 -8.18788,17.93572 -42.85887,27.06029 -68.29779,16.79757 -23.60983,-9.5248 -135.13494,-62.46784 -167.09974,-81.03483 h -4.8e-4 c -2.47632,-1.43839 -4.46075,-2.64644 -5.87354,-3.58391 -19.64931,-13.03843 -4.98904,-20.87583 22.45162,-25.98355 27.44065,-5.10772 180.40296,-27.90613 216.54466,-32.27102 4.51772,-0.54562 8.7486,-0.88272 12.68037,-1.01318 z"
           sodipodi:nodetypes="sssssssssssccsssscscsssssssssscsscsssssccsssss" /></g><g
         id="g15"
         transform="matrix(-1,0,0,1,736.55454,-516.58664)"
         style="stroke:#ffffff;stroke-opacity:1"
         inkscape:label="Stairs"><path
           id="path9"
           style="display:inline;fill:#252525;fill-opacity:0.37;stroke:none"
           d="m 72.715758,379.85069 0.946235,1.02934 27.225187,3.28998 v 5.96152 l -6.219433,2.60813 v -6.24462 l -30.464689,-3.91904 1.079831,1.03493 27.189057,3.87852 v 20.72008 l 2.195801,1.49008 v -2.5175 l 6.219433,-2.62346 v 8.90641 l 1.87656,-0.67571 v -29.12531 z m 28.171422,12.10373 v 10.78079 l -6.219433,2.60867 v -10.76599 z"
           sodipodi:nodetypes="cccccccccccccccccccccc"
           inkscape:label="Stairs_Shadow"
           transform="matrix(-1,0,0,1,120.53576,47.348529)" /><path
           id="path12"
           style="fill:#e8e8e8;fill-opacity:1;stroke:none;stroke-linecap:round;stroke-linejoin:round"
           d="m 29.641396,403.77971 c 3.022558,0.0221 6.054281,0.9286 8.760754,2.7286 7.248008,0.17013 14.497844,5.42847 17.133821,15.88862 0.898763,3.56673 0.796731,7.5276 0.796731,7.5276 -0.01275,0.58395 -0.495864,1.04693 -1.079831,1.03493 -0.584721,-0.0117 -1.049159,-0.49512 -1.037119,-1.07983 0,0 0.06385,-3.80427 -0.732663,-6.96524 -2.058679,-8.16929 -6.874247,-12.59605 -12.08074,-13.88995 2.485706,2.58586 4.483031,6.13177 5.620922,10.64717 0.898763,3.56674 0.796731,7.52761 0.796731,7.52761 -0.01276,0.58395 -0.495866,1.04692 -1.07983,1.03492 -0.583948,-0.0128 -1.046969,-0.49587 -1.034929,-1.07983 0,0 0.06221,-3.80371 -0.734307,-6.96468 -1.380356,-5.47757 -4.000499,-9.27305 -7.146484,-11.5693 -0.268608,0.005 -0.536864,0.0179 -0.804397,0.0383 -6.69084,0.51193 -13.08448,5.89293 -14.153883,15.97678 l -0.127039,34.35519 -2.117218,1.25567 c 0,0 0.0068,-1.97466 0.01779,-4.99613 l -6.378775,-2.40279 -0.0345,11.03314 -2.116949,1.1656 0.128681,-43.21813 c 10e-5,-0.0359 0.0022,-0.0716 0.006,-0.10733 1.144583,-10.9233 8.365198,-17.30454 16.103272,-17.8966 0.430441,-0.0329 0.862141,-0.0475 1.293935,-0.0443 z m 0.418352,2.12188 c -0.51838,-0.0185 -1.036373,-0.008 -1.551845,0.0318 -6.690838,0.51193 -13.082836,5.89292 -14.15224,15.97678 l -0.04709,15.3717 6.388084,2.39622 c 0.02925,-7.96885 0.05633,-15.21601 0.05804,-15.23207 1.035932,-9.88639 7.049108,-16.05201 13.918423,-17.57244 -1.500287,-0.59751 -3.058232,-0.91653 -4.613373,-0.97195 z m -15.757201,33.30225 -0.03559,11.71989 6.379871,2.37157 c 0.01216,-3.3503 0.02758,-7.53184 0.04271,-11.66239 z"
           inkscape:label="Stairs"
           sodipodi:nodetypes="scscccccscccccccccccccccssssccccccssccccc" /></g><g
         id="g21"
         transform="matrix(0.79069994,0,0,0.79069994,1097.8748,-437.76319)"
         style="display:inline"
         inkscape:label="Diver"><path
           style="display:inline;fill:#00baf5;fill-opacity:1;stroke:none;stroke-width:2.11667;stroke-linecap:round;stroke-linejoin:bevel"
           d="m -316.93853,134.94425 c 0,0 0.54921,9.74741 5.253,20.38836 0.75804,5.72203 -2.56141,18.62389 -5.57869,25.19408 11.37415,-3.00062 18.16106,10.82703 12.95696,27.7135 0.53093,-0.0856 1.1865,-0.43387 1.61962,-0.71983 3.19632,-21.65348 32.07393,-13.54336 8.00811,2.78934 0.0359,0.84235 -0.09,1.52965 -0.09,1.52965 0,0 8.34245,-6.23847 10.43756,-9.89768 7.8556,-13.72014 0.60997,-27.07361 2.96932,-38.87087 4.51854,-22.59375 3.86909,-25.01414 3.86909,-25.01414 l -11.51731,-15.47637 z"
           id="path16"
           sodipodi:nodetypes="cccccccssccc"
           inkscape:label="Suit"
           transform="translate(7.4485447e-6)" /><path
           style="fill:#016ec2;fill-opacity:1;stroke:none;stroke-width:2.11667;stroke-linecap:round;stroke-linejoin:bevel"
           d="m -304.90038,137.55589 c 1.33682,5.60098 0.5457,9.56193 0.14269,14.12534 -0.69626,7.88393 -6.37657,15.88212 -3.94473,23.41388 1.50217,4.65245 5.56676,9.85181 10.43445,10.3072 2.49491,0.23341 3.85987,-3.40125 6.23522,-4.19923 1.44972,-0.48703 2.46156,-0.7599 4.58097,-0.2545 -0.75457,0.92184 -4.1125,1.96429 -3.43573,3.43574 0.69328,1.50734 3.32006,-0.61491 4.96273,-0.38175 1.79405,0.25465 3.11731,1.23701 4.1356,2.73586 1.28738,1.89493 1.13068,2.93013 0.82712,6.04434 -1.09899,7.13231 -6.27293,15.79249 -13.34706,17.93444 22.79156,-17.31081 -2.9293,-24.49889 -9.58098,-3.01539 3.54461,-24.35765 -4.21901,-28.40791 -13.21078,-27.77123 -1.05136,-8.44616 5.55746,-16.43183 5.35925,-24.94087 -0.47858,-0.59205 -5.05665,-11.06377 -5.1568,-20.17994 4.83568,1.76799 7.43456,2.4296 11.99805,2.74611 z"
           id="path20"
           sodipodi:nodetypes="cccccccccccccccc"
           inkscape:label="Suit_Shadow" /><path
           style="display:inline;fill:#e8e8e8;fill-opacity:1"
           d="m -315.77857,295.15457 c -0.21927,0.0298 -0.14513,0.10809 -0.6615,0.0897 -0.51637,-0.0184 -1.58745,-0.3317 -2.3812,-0.49755 -0.79375,-0.16585 -1.93047,-0.22549 -2.3813,-0.49756 -0.45083,-0.27207 -0.30867,-0.37337 -0.463,-0.56005 -0.15433,-0.18668 -0.40924,-0.41064 -0.463,-0.56005 -0.0538,-0.14941 0,-0.15071 0,-0.22607 0,-0.0753 -0.0862,0.003 0,-0.22606 0.0862,-0.22894 0.54618,-0.62211 0.8193,-0.93317 0.27312,-0.31106 0.73655,-0.51603 0.8194,-0.93317 0.0828,-0.41714 -0.28167,-0.82655 -0.4225,-1.23983 -0.14083,-0.41328 -0.33932,-0.73858 -0.4225,-1.23984 -0.0832,-0.50126 -5.3e-4,-1.15921 -8e-4,-1.73881 -2.7e-4,-0.5796 0.0576,-1.0489 -8e-4,-1.7388 -0.0584,-0.6899 -0.26988,-1.5875 -0.4048,-2.38125 -0.13492,-0.79375 -0.27495,-1.67584 -0.4047,-2.38125 -0.12975,-0.70541 -0.24447,-1.23473 -0.3667,-1.85209 -0.12223,-0.61736 -0.25888,-1.23455 -0.3667,-1.85208 -0.10782,-0.61753 -0.18695,-1.23472 -0.2804,-1.85208 -0.0934,-0.61736 -0.16393,-1.10235 -0.2803,-1.85209 -0.11637,-0.74974 -0.28058,-1.76389 -0.4209,-2.64583 -0.14032,-0.88194 -0.23625,-1.65274 -0.421,-2.64583 -0.18475,-0.99309 -0.47013,-2.20487 -0.7052,-3.3073 -0.23507,-1.10243 -0.57335,-2.02282 -0.7052,-3.30729 -0.13185,-1.28447 0.016,-2.91041 0.024,-4.36562 0.008,-1.45521 -0.0495,-2.86176 0.024,-4.36563 0.0735,-1.50387 0.28645,-3.09898 0.4297,-4.64847 0.14325,-1.54949 0.39881,-2.99048 0.4298,-4.64846 0.031,-1.65798 -0.19293,-3.51561 -0.2894,-5.27341 -0.0965,-1.7578 -0.26419,-3.29044 -0.2894,-5.27341 -0.0252,-1.98297 0.12968,-4.40972 0.1945,-6.61458 0.0648,-2.20486 0.15724,-4.5639 0.1944,-6.61458 0.0372,-2.05068 0.026,-3.79236 0.039,-5.68854 0.013,-1.89618 -0.17603,-4.38637 0.039,-5.68855 0.21503,-1.30218 0.46833,-1.41111 0.7025,-2.11666 0.23417,-0.70555 0.42996,-1.35974 0.7025,-2.11667 0.27254,-0.75693 0.62727,-1.61358 0.9409,-2.42037 0.31363,-0.80679 0.62768,-1.34212 0.9409,-2.42037 0.31322,-1.07825 0.53388,-2.70795 0.8008,-4.06192 0.26692,-1.35397 0.4668,-2.61174 0.8007,-4.06192 0.3339,-1.45018 0.81445,-3.08681 1.2217,-4.63021 0.40725,-1.5434 1.10514,-4.29598 1.2218,-4.63021 0.11666,-0.33423 0.27444,-0.64193 0.39102,-0.81836 14.20041,-2.3882 15.56124,13.66264 14.30895,21.72044 -1.25229,8.0578 -1.56697,5.26623 -1.00597,5.52098 0.26674,-0.1429 0.3499,0.70374 0.4579,-0.49389 7.39077,-23.6051 31.68644,-10.27178 8.77275,3.36999 0.27613,0.45304 0.003,0.81788 0.34205,0.73143 0.33862,-0.0865 1.4364,-1.08555 2.1546,-1.62833 0.7182,-0.54278 1.56405,-1.15692 2.1546,-1.62833 0.59055,-0.47141 0.93453,-0.86055 1.4018,-1.25426 0.46727,-0.39371 1.38778,-1.63454 1.73359,-1.61978 -0.007,0.23922 0.029,0.41219 0.0129,0.85643 -0.0161,0.44424 -0.21985,1.00843 -0.3298,1.51265 -0.10995,0.50422 -0.20163,0.88599 -0.3299,1.51266 -0.12827,0.62667 -0.28687,1.49931 -0.4303,2.24896 -0.14343,0.74965 -0.34028,1.29832 -0.4303,2.24896 -0.09,0.95064 5.2e-4,2.29305 8e-4,3.43958 2.8e-4,1.14653 -0.10757,2.41403 9e-4,3.43958 0.10847,1.02555 0.3828,1.7916 0.5742,2.6874 0.1914,0.8958 0.48983,1.88797 0.5742,2.68739 0.0844,0.79942 -2.8e-4,1.38341 -4e-4,2.07511 -1.2e-4,0.6917 0.0585,0.69048 -3e-4,2.0751 -0.0588,1.38462 -0.35213,4.14514 -0.5282,6.21771 -0.17607,2.07257 -0.37155,4.56437 -0.5282,6.21771 -0.15665,1.65334 -0.25818,2.46945 -0.3873,3.70417 -0.12912,1.23472 -0.2456,2.69036 -0.3874,3.70416 -0.1418,1.0138 -0.27862,1.5875 -0.4179,2.38125 -0.13928,0.79375 -0.2578,1.60929 -0.4178,2.38125 -0.16,0.77196 -0.35907,1.49931 -0.5386,2.24896 -0.17953,0.74965 -0.32126,1.43243 -0.5386,2.24896 -0.21734,0.81653 -0.5172,1.76389 -0.7758,2.64583 -0.2586,0.88194 -0.48674,1.76337 -0.7758,2.64584 -0.28906,0.88247 -0.63962,1.76389 -0.9594,2.64583 -0.31978,0.88194 -0.64435,1.91299 -0.9593,2.64583 -0.31495,0.73284 -0.58822,1.17543 -0.8823,1.76314 -0.29408,0.58771 -0.57942,1.09981 -0.8822,1.76314 -0.30278,0.66333 -0.61287,1.48049 -0.9193,2.22073 -0.30643,0.74024 -0.55574,1.28135 -0.9193,2.22074 -0.36356,0.93939 -0.82313,2.28297 -1.2347,3.42446 -0.41157,1.14149 -0.81618,2.45896 -1.2347,3.42446 -0.41852,0.9655 -0.8104,1.5875 -1.2156,2.38125 -0.4052,0.79375 -0.67747,1.63564 -1.2156,2.38125 -0.53813,0.74561 -1.33093,1.34992 -1.9964,2.02488 -0.66547,0.67496 -1.39548,1.71821 -1.9964,2.02489 -0.60092,0.30668 -0.79373,0.12103 -1.1906,0.18154 -0.39687,0.0605 -0.7483,0.0512 -1.1906,0.18154 -0.4423,0.13036 -0.9502,0.42653 -1.4253,0.63979 -0.4751,0.21326 -0.93322,0.50945 -1.4253,0.63979 -0.49208,0.13034 -0.99007,0.0953 -1.4851,0.14294 -0.49503,0.0476 -1.12881,0.10149 -1.4851,0.14293 -0.35629,0.0414 -0.43483,0.0594 -0.6541,0.0893 z m 6.2779,-9.95494 c 0.22782,-0.0272 0.45792,0.0478 0.6813,-0.0818 0.22338,-0.12956 0.34327,-0.46187 0.5149,-0.69281 0.17163,-0.23094 0.33809,-0.2994 0.5149,-0.69282 0.17681,-0.39342 0.23473,-1.12562 0.3521,-1.68843 0.11737,-0.56281 0.20233,-1.09745 0.3521,-1.68844 0.14977,-0.59099 0.36955,-1.23472 0.5543,-1.85208 0.18475,-0.61736 0.39231,-1.23431 0.5542,-1.85209 0.16189,-0.61778 0.27847,-1.23472 0.4177,-1.85208 0.13923,-0.61736 0.28656,-1.25673 0.4177,-1.85208 0.13114,-0.59535 0.24653,-1.14654 0.3698,-1.7198 0.12327,-0.57326 0.18471,-0.53264 0.3698,-1.71979 0.18509,-1.18715 0.3538,-3.61597 0.5307,-5.42396 0.1769,-1.80798 0.34604,-4.1864 0.5307,-5.42395 0.18466,-1.23755 0.2708,-1.34477 0.4062,-2.01716 0.1354,-0.67238 0.24071,-1.44398 0.4062,-2.01715 0.16549,-0.57317 0.36068,-0.94829 0.541,-1.42243 0.18032,-0.47414 0.36633,-0.95492 0.5409,-1.42243 0.17457,-0.46751 0.33788,-0.92163 0.5068,-1.38245 0.16892,-0.46082 0.32491,-0.35821 0.5067,-1.38245 0.18179,-1.02424 0,-3.17941 0,-4.76911 0,-1.5897 0.59389,-4.17522 0,-4.76911 -0.59389,-0.59389 -0.18012,0 -0.2702,0 -0.0901,0 -0.023,-0.0744 -0.2703,0 -0.24732,0.0744 -0.71127,0.47069 -1.0669,0.70603 -0.35563,0.23534 -0.53839,0.53018 -1.0669,0.70604 -0.52851,0.17586 -1.3728,0.0795 -2.0592,0.11921 -0.6864,0.0397 -1.49365,0.22172 -2.0592,0.1192 -0.56555,-0.10252 -0.845,-0.37377 -1.2675,-0.56066 -0.4225,-0.18689 -0.92865,-0.48753 -1.2675,-0.56066 -0.33885,-0.0731 -0.46258,-0.004 -0.6939,-0.006 -0.23132,-0.002 -0.38289,0.0627 -0.694,-0.006 -0.31111,-0.0687 -0.73913,-0.33557 -1.1087,-0.50335 -0.36957,-0.16778 -0.83836,-0.5655 -1.1087,-0.50335 -0.27034,0.0622 -0.1902,0.2292 -0.2853,0.3438 -0.0951,0.1146 0.0438,-0.39058 -0.2853,0.34379 -0.32909,0.73437 -0.43622,2.88836 -0.6543,4.33255 -0.21808,1.44419 -0.48273,2.61743 -0.6542,4.33256 -0.17147,1.71513 -0.19635,3.96874 -0.2945,5.95312 -0.0981,1.98438 -0.29309,3.90332 -0.2944,5.95313 -0.001,2.04981 0.20333,4.22076 0.305,6.33114 0.10167,2.11038 0.16991,4.76633 0.305,6.33114 0.13509,1.56481 0.25458,2.04105 0.3819,3.06157 0.12732,1.02052 0.33691,2.33594 0.382,3.06156 0.0451,0.72562 0,0.85119 0,1.27679 0,0.4256 -0.15359,0.94853 0,1.2768 0.15359,0.32827 0.45947,0.38353 0.6892,0.57529 0.22973,0.19176 0.33163,0.26898 0.6892,0.57529 0.35757,0.30631 0.96498,0.84827 1.4475,1.27241 0.48252,0.42414 1.03099,1.14287 1.4476,1.27241 0.41661,0.12954 0.45778,-0.0542 0.6856,-0.0814 z m 5.893,-147.62513 c -0.66145,-0.01 -1.36985,0.0151 -1.9843,-0.029 -0.61445,-0.0441 -1.13167,-0.14654 -1.6975,-0.2198 -0.56583,-0.0733 -1.1013,-0.11499 -1.6975,-0.21979 -0.5962,-0.1048 -1.2496,-0.27845 -1.8744,-0.41768 -0.6248,-0.13923 -1.27495,-0.25458 -1.8744,-0.41768 -0.59945,-0.1631 -1.14653,-0.36987 -1.7198,-0.55481 -0.57327,-0.18494 -1.38601,-0.37598 -1.7198,-0.55482 -0.33379,-0.17884 -0.24267,-0.19292 -0.364,-0.28938 -0.12133,-0.0965 -0.17942,0.12548 -0.364,-0.28938 -0.18458,-0.41486 0.0931,-1.50339 0.1397,-2.25509 0.0466,-0.7517 0.004,-1.19083 0.1397,-2.25509 0.13597,-1.06426 0.53227,-2.73403 0.7984,-4.10104 0.26613,-1.36701 0.62767,-2.92971 0.7984,-4.10104 0.17073,-1.17133 0.1892,-1.94028 0.2838,-2.91042 0.0946,-0.97014 0.16729,-1.5217 0.2838,-2.91042 0.11651,-1.38872 0.25427,-3.61597 0.3814,-5.42396 0.12713,-1.80798 0.2923,-3.94642 0.3814,-5.42395 0.0891,-1.47753 0.11532,-2.29306 0.173,-3.43959 0.0577,-1.14653 0.2462,-2.507987 0.1731,-3.439578 -0.0731,-0.931591 -0.2962,-1.411114 -0.4443,-2.11667 -0.1481,-0.705556 -0.21001,-1.296197 -0.4443,-2.116664 -0.23429,-0.820467 -0.67478,-1.852088 -1.0122,-2.77813 -0.33742,-0.926042 -0.71048,-1.829341 -1.0123,-2.77812 -0.30182,-0.948779 -0.5298,-1.94028 -0.7947,-2.91042 -0.2649,-0.97014 -0.59482,-2.09329 -0.7947,-2.91042 -0.19988,-0.81713 -0.28647,-1.322912 -0.4297,-1.98437 -0.14323,-0.661458 -0.29368,-0.893133 -0.4297,-1.98438 -0.13602,-1.091247 -0.10585,-3.043347 -0.1588,-4.56502 -0.0529,-1.521673 -0.208,-3.327709 -0.1589,-4.56502 0.0491,-1.237311 0.21727,-1.89554 0.3259,-2.84331 0.10863,-0.94777 0.15196,-1.706043 0.3259,-2.843311 0.17394,-1.137268 0.50728,-2.645833 0.7609,-3.96875 0.25362,-1.322917 0.51385,-2.623773 0.7608,-3.96875 0.24695,-1.344977 0.47993,-2.734025 0.7199,-4.10104 0.23997,-1.367015 0.62112,-2.992556 0.7199,-4.10105 0.0988,-1.108494 0.007,-1.675693 0.01,-2.51354 0.003,-0.837847 0.20662,-1.727896 0.01,-2.51354 -0.19662,-0.785644 -0.74207,-1.376507 -1.1131,-2.06476 -0.37103,-0.688253 -0.98834,-1.57042 -1.1131,-2.06476 -0.12476,-0.49434 0,-0.475572 0,-0.71336 0,-0.237788 -0.0547,-0.388989 0,-0.71337 0.0548,-0.324381 0.2758,-0.793745 0.4137,-1.19062 0.1379,-0.396875 0.14693,-0.606154 0.4137,-1.19063 0.26677,-0.584476 0.86232,-1.499307 1.2935,-2.24896 0.43118,-0.749653 1.02387,-1.665091 1.2936,-2.24896 0.26973,-0.583869 0.28392,-0.793745 0.4259,-1.19062 0.14198,-0.396875 0.26875,-0.556304 0.426,-1.19063 0.15725,-0.634326 0.25133,-1.753147 0.377,-2.62972 0.12567,-0.876573 0.0892,-1.688048 0.377,-2.62972 0.28782,-0.941672 0.94453,-1.95102 1.4168,-2.92653 0.47227,-0.97551 1.00692,-2.378291 1.4168,-2.92653 0.40988,-0.548239 0.42213,-0.383672 0.6332,-0.57551 0.21107,-0.191838 0.31214,-0.356751 0.6332,-0.57552 0.32106,-0.218769 0.88202,-0.43538 1.323,-0.65307 0.44098,-0.21769 0.89035,-0.44932 1.3229,-0.65307 0.43255,-0.20375 0.84755,-0.380388 1.2713,-0.57058 0.42375,-0.190192 0.94828,-0.552052 1.2712,-0.57057 0.32292,-0.01852 0.3478,0.110385 0.5217,0.16558 0.1739,0.05519 0.33848,0.02647 0.5217,0.16559 0.18322,0.139115 0.304,0.464692 0.456,0.69704 0.152,0.232348 0.0811,-0.557273 0.456,0.69705 0.37491,1.254323 0.007,4.6813 0.011,7.02195 0.004,2.34065 -0.24831,5.593204 0.011,7.02195 0.25931,1.428746 0.39438,1.05578 0.5916,1.58367 0.19722,0.52789 0.39833,0.791439 0.5917,1.58367 0.19337,0.792231 0.25818,2.11922 0.3873,3.17883 0.12912,1.05961 0.212,1.01926 0.3874,3.17883 0.1754,2.15957 0.26653,6.526387 0.3998,9.78958 0.13327,3.263193 0.19431,7.764918 0.3998,9.78958 0.20549,2.024662 0.25862,1.5875 0.3879,2.38125 0.12928,0.79375 0.1376,1.033664 0.3878,2.38125 0.2502,1.347586 0.79132,3.792369 1.187,5.688551 0.39568,1.896182 0.85357,4.163186 1.1871,5.68854 0.33353,1.525354 0.52867,2.311838 0.793,3.46776 0.26433,1.155922 0.57311,2.453111 0.793,3.46777 0.21989,1.014659 0.3574,1.7451 0.5361,2.61765 0.1787,0.87255 0.29706,1.738294 0.5361,2.61765 0.23904,0.879356 0.60185,1.763885 0.9028,2.64583 0.30095,0.881945 0.52526,1.651479 0.9029,2.64584 0.37764,0.994361 0.92453,2.204863 1.3868,3.307294 0.46227,1.102431 1.00249,2.470791 1.3868,3.30729 0.38431,0.836499 0.57828,1.154673 0.8674,1.732008 0.28912,0.57734 0.4694,0.85447 0.8673,1.73201 0.3979,0.87754 0.96758,2.37311 1.4514,3.55966 0.48382,1.18655 1.10772,2.60914 1.4515,3.55965 0.34378,0.95051 0.44718,1.41111 0.6708,2.11667 0.22362,0.70556 0.46904,1.45502 0.6709,2.11667 0.20186,0.66165 0.36212,1.23472 0.5432,1.85208 0.18108,0.61736 0.28542,0.88395 0.5433,1.85208 0.25788,0.96813 0.63433,2.64583 0.9515,3.96875 0.31717,1.32292 0.71773,2.84243 0.9515,3.96875 0.23377,1.12632 0.32553,1.85209 0.4883,2.77813 0.16277,0.92604 0.34934,1.77731 0.4883,2.77812 0.13896,1.00081 0.21992,2.14995 0.3299,3.22493 0.10998,1.07498 0.5133,2.62243 0.33,3.22492 -0.1833,0.60249 -0.22852,0.2754 -0.3428,0.4131 -0.11428,0.1377 -0.21648,0.35373 -0.3429,0.41309 -0.12642,0.0594 -0.20072,0 -0.3011,0 -0.10038,0 0.0898,0.11901 -0.3012,0 -0.39101,-0.11901 -1.19093,-0.79893 -1.7864,-1.1984 -0.59547,-0.39947 -1.1807,-0.715 -1.7864,-1.1984 -0.6057,-0.4834 -1.21167,-1.14302 -1.8175,-1.71453 -0.60583,-0.57151 -1.28844,-1.09863 -1.8175,-1.71453 -0.52906,-0.6159 -0.8996,-1.30134 -1.3494,-1.95201 -0.4498,-0.65067 -1.10798,-1.49284 -1.3494,-1.95201 -0.24142,-0.45917 -0.17518,-0.46087 -0.2628,-0.69131 -0.0876,-0.23044 -0.12844,-0.59859 -0.2629,-0.69131 -0.13446,-0.0927 -0.16027,0 -0.2404,0 -0.0801,0 0.0193,-0.17541 -0.2404,0 -0.25973,0.17541 -0.4084,1.01424 -0.6126,1.52136 -0.2042,0.50712 -0.36526,1.01587 -0.6126,1.52135 -0.24734,0.50548 -0.58253,1.00039 -0.8738,1.50058 -0.29127,0.50019 -0.51235,1.00886 -0.8738,1.50057 -0.36145,0.49171 -0.86587,0.94738 -1.2988,1.42107 -0.43293,0.47369 -0.84622,1.06664 -1.2988,1.42107 -0.45258,0.35443 -0.89233,0.48567 -1.3385,0.72851 -0.44617,0.24284 -0.8135,0.53472 -1.3385,0.72852 -0.525,0.1938 -1.196,0.25343 -1.794,0.38014 -0.598,0.12671 -1.16059,0.31844 -1.794,0.38015 -0.63341,0.0617 -1.32295,-0.0193 -1.9844,-0.0289 z"
           id="path18"
           sodipodi:nodetypes="zzzzzzzzzzzzzzzzzzzzzzzzzzzzzzzzzzzzzzzzzzczccczzzzczzzzzzzzzzzzzzzzzzzzzzzzzzzzzzzzzzzzzzzzzzzzzzzzzzzzzzzzzzzzzzzzzzzzzzzzzzzzzzzzzzzzzzzzzzzzzzzzzzzzzzzzzzzzzzzzzzzzzzzzzzzzzzzzzzzzzzzzzzzzzzzzzzzzzzzzzzzzzzzzzzzzzzzzzzzzzzzzzzzzzzzzzzzzzzzzzzzzzzzzzzzzzzzzzzzzzzz"
           transform="translate(7.4485447e-6)"
           inkscape:label="Body" /><path
           id="path19"
           style="display:inline;fill:#878787;fill-opacity:1"
           d="m -302.79702,13.970723 c -0.0442,-2.84e-4 -0.0717,0.0128 -0.11421,0.01395 -1.3159,0.03568 -1.87129,0.725181 -2.44998,0.729155 -4.91362,2.782045 -4.70899,3.590527 -6.66057,8.995833 0.34654,5.099163 -3.28968,8.953135 -4.71651,13.49375 0.1185,3.275688 3.25916,5.83811 2.24896,9.380306 -1.84335,12.461595 -6.07547,25.267444 -2.10272,37.779089 1.47814,6.097531 4.90379,11.882629 3.70986,18.364774 -0.11327,9.84379 -1.62144,21.82913 -3.35535,31.48025 5.62829,1.93511 7.22053,2.62247 10.73784,3.16828 12.56638,0.43197 13.24873,-6.24253 15.75304,-10.79366 0.96654,-1.57589 0.52923,-0.77364 0.99736,1.15342 0.79329,3.26566 7.14195,9.87623 11.14661,10.23607 0.42378,-0.1247 -0.10816,-3.03104 -0.36691,-5.92109 -0.71689,-4.4976 -1.73549,-8.18551 -2.87011,-11.99306 -0.20805,-1.50208 -0.99775,-4.10799 -1.5906,-6.0818 -0.43496,-2.0374 -1.31188,-4.50137 -2.10374,-6.36344 -0.47917,-1.32447 -1.39938,-3.54003 -1.90945,-4.66121 -0.83155,-1.95746 -1.65268,-3.429015 -2.51354,-5.687512 -0.91424,-1.752817 -1.62968,-3.368583 -2.11667,-5.159375 -0.91891,-1.836667 -1.18326,-3.112964 -1.92856,-5.127336 -0.44068,-2.279968 -1.22153,-4.792757 -1.45573,-7.010425 -0.65075,-1.629449 -0.49033,-2.409595 -1.07125,-4.398698 -0.3207,-1.429427 -1.08315,-5.044405 -1.59112,-7.044014 -0.67068,-3.734582 -1.73287,-8.244631 -1.9482,-12.022005 -0.0303,-0.229781 -0.63969,-11.029667 -0.48937,-13.928349 -0.32349,-4.231792 -0.40784,-8.272458 -1.39268,-11.499557 -1.6138,-1.997238 -0.80044,-6.391473 -0.91313,-9.720853 -0.19484,-2.479136 1.02877,-6.063874 -0.93327,-7.382496 z m -0.51573,0.40101 c 2.53101,2.23831 0.67057,6.652519 1.08004,9.801985 0.003,8.492615 -3.10529,16.646333 -3.18017,25.181409 0.15996,8.727758 1.86629,17.327688 2.77089,26.006681 0.4029,3.889552 0.99583,7.62145 3.00188,11.047388 1.91491,4.00123 3.49035,7.709651 5.39089,11.728483 3.44685,8.075361 4.68327,17.530591 4.58783,26.498641 -2.07633,5.55568 -6.8593,11.3159 -12.41009,12.00805 -7.46312,0.93061 3.19258,-5.45216 -4.02818,-36.20606 -10.99694,-32.532551 -1.25923,-54.78813 -7.36803,-63.274687 1.24671,-2.542111 3.40501,-5.078203 3.27009,-8.489921 0.87506,-4.518255 -1.40696,-11.316917 4.34392,-13.218315 0.84686,-0.361386 1.69402,-0.722376 2.54093,-1.083654 z m -7.19078,10.240201 c -0.008,1.798027 -0.8252,7.572273 -1.06091,6.810954 0.0671,-0.584246 0.73895,-2.817502 0.53691,-4.351672 0.0428,-0.865512 -0.006,-1.716786 0.524,-2.459282 z m 8.77156,6.637838 c 1.97439,2.760271 1.29817,7.511046 1.6676,11.072709 0.0163,11.716893 1.39504,23.378015 4.52789,34.67902 1.3871,10.159439 5.60069,19.501859 9.85056,28.728479 3.34316,7.92995 5.22971,16.49023 6.65282,24.94938 0.54923,3.31733 -1.44853,3.55342 -2.93057,3.38274 -4.77483,-0.54991 -7.51548,-7.48572 -6.71638,-12.75943 -0.41322,-9.32951 -2.08465,-18.79457 -6.54637,-27.09395 -1.8219,-5.953075 -6.25238,-11.129977 -6.30505,-17.691943 -0.65214,-2.824311 -0.50922,-5.82421 -1.17615,-8.790678 -1.11035,-9.16582 -2.72272,-18.422893 -0.76275,-27.599866 0.52518,-2.968491 0.91114,-5.971427 1.7384,-8.876461 z m -13.82551,149.436878 c -2.40304,1.10976 -2.14735,5.48271 -3.16725,7.98194 -1.26689,5.74981 -2.32803,11.54106 -4.73098,16.94005 -1.84876,8.93653 -0.43341,18.18326 -0.81855,27.2588 0.64898,9.60032 -1.21962,19.16506 -0.41083,28.73313 1.97824,9.46741 3.44506,19.0597 4.67413,28.5998 -2.38413,3.0495 0.38593,4.21536 3.7083,4.21318 3.50139,0.24071 7.36851,-1.28109 9.77822,-2.49028 2.40971,-1.20919 2.86276,-2.35668 3.41168,-3.36517 0.54892,-1.00849 0.73456,-1.69699 1.02474,-2.24948 0.29018,-0.55249 0.86702,-1.14814 1.48931,-2.64583 0.62229,-1.49769 1.06477,-3.49392 1.59267,-4.94492 0.5279,-1.451 1.09738,-3.00862 1.71876,-4.26796 0.62138,-1.25934 1.28748,-2.64822 1.87482,-4.01629 0.58734,-1.36807 1.35868,-3.11633 1.9575,-4.93923 0.59882,-1.8229 1.06567,-3.25848 1.7632,-5.46788 0.69753,-2.2094 1.08739,-3.92748 1.83555,-7.92097 0.74816,-3.99349 1.27932,-11.29991 1.76423,-17.02273 0.18889,-1.02228 0.35278,-3.88942 0.42633,-5.74022 0.37123,-1.60582 -0.38549,-5.85712 -0.4563,-5.67821 -0.12628,-1.22455 -0.61172,-4.03255 -0.71985,-4.57078 -0.008,-0.0407 -0.0512,-0.33595 -0.0543,-0.34571 0.0957,-1.09184 0.003,-5.66314 0.50901,-6.51278 -0.69266,-1.50145 1.90703,-5.28258 -1.12138,-3.82509 -1.55964,0.66178 -5.78939,5.7698 -5.71024,2.49235 -0.0389,-1.41563 3.16881,-3.03607 4.35115,-4.38629 3.48682,-2.36605 7.84635,-8.24923 3.2582,-11.19932 -6.55165,-2.55335 -14.02936,4.61151 -14.5805,10.83345 -1.07567,3.64069 -3.55764,1.79124 -2.03554,-1.23352 1.3635,-6.51962 1.85248,-13.90106 -2.0531,-19.67683 0.23784,-0.34178 -2.31884,-2.40183 -2.52233,-2.51561 -0.80792,-1.29587 -4.58736,-1.74186 -6.75669,-2.0376 z m 6.13502,2.19314 c 4.29094,1.16593 1.52085,4.80434 1.23094,7.71271 0.02,3.64275 3.01972,7.32607 0.0889,10.6531 -1.66481,3.54822 -5.64804,5.9192 -6.68951,9.65729 1.65813,1.34207 5.67532,1.55432 3.74964,4.91649 -0.55062,2.14486 -1.05187,4.3494 -1.52756,6.5779 0.10347,0.16926 0.22122,0.34531 0.36484,-0.36949 0.0568,-0.28266 0.0526,-0.45456 0.0496,-0.62063 0.05,0.14286 0.0911,0.28081 0.22272,0.49402 l -0.26355,0.0847 c 0.72924,1.18044 -0.0254,6.63694 0.52865,9.72189 -0.11802,4.64993 3.58843,10.67582 8.89455,8.2734 3.84528,-4.20708 3.23622,1.46185 3.08663,4.37492 0.75762,6.3443 -3.55375,11.83442 -3.24218,18.20251 -0.28639,7.53975 -2.36889,15.11695 -4.72994,22.10408 -1.13927,1.74189 -2.92165,1.10167 -3.5233,0.38809 -1.16791,-1.07128 -1.13323,-1.33331 -2.38125,-2.06241 -2.05422,-1.14314 -1.03645,-4.43369 -1.64951,-5.9402 -0.30825,-2.73249 -0.45574,-5.87589 -0.68575,-7.5365 -0.19936,-6.55713 -0.13692,-13.1304 0.0253,-19.69285 0.048,3.75821 0.0871,-1.00617 0.4067,-2.80035 0.31273,-1.75562 1.60416,-16.72397 1.73529,-18.6557 -1.91338,10.79088 -2.90773,22.10464 -2.61276,32.57423 -0.31038,7.20638 0.53316,14.40451 1.49345,21.53409 2.38844,1.24831 4.77587,5.80379 7.56853,2.74867 1.84619,-2.87118 2.25465,-6.85908 3.85041,-10.00042 2.2381,-5.91346 2.75811,-12.17209 3.00602,-18.44229 -0.27173,-3.94495 3.02826,-5.17629 4.24315,-1.13791 1.97965,-1.63629 0.0101,-6.07241 0.23461,-8.81962 0.48287,-6.08345 2.10874,-12.20024 2.80242,-18.341 1.35312,-2.3623 2.35957,-4.9815 2.4691,-7.64346 0.0568,-1.38165 -0.11341,-2.77438 -0.63304,-4.14962 -0.0549,-0.30074 -0.0419,-0.637 0.002,-0.9803 -0.35885,1.37073 -0.53325,2.84731 0.0465,3.96203 -0.0794,1.23778 -1.52795,-4.70765 -0.15813,-6.02547 2.03412,-2.5799 1.47146,-1.75417 0.74156,0.10439 0.89881,-1.81462 2.31399,-2.78951 1.68206,0.79685 -0.12647,1.5685 -0.084,3.12137 0.032,4.6669 0.36126,4.81042 1.46656,9.5476 0.66353,14.44718 -0.80149,14.71043 -5.72952,33.90218 -10.2371,42.73744 -4.50758,8.83526 -3.66192,11.6363 -6.60167,13.60692 -2.93975,1.97062 -6.07166,3.3742 -6.20582,-0.38086 1.02166,-2.41957 -4.24942,-3.34858 -5.34696,-5.75003 -1.87473,-5.55658 -1.4407,-11.98561 -2.43809,-17.87591 -1.01815,-5.54328 -0.0346,-11.39016 -0.8568,-16.82068 -3.45683,-4.6582 0.4853,-10.57878 0.0832,-15.84296 0.61041,-6.14894 0.97152,-12.38875 -0.71779,-18.36477 -0.0337,-5.37235 2.85123,-10.12729 6.91431,-13.45603 4.10404,-5.62527 1.03079,-12.7065 4.28449,-18.63039 z m 18.7446,30.86634 c -0.3022,0.61009 -0.54596,1.29537 -0.62994,1.95905 0.18647,-0.71227 0.40311,-1.38148 0.62994,-1.95905 z m -23.05338,14.61668 c 0.075,-0.42302 0.13814,-0.85201 0.21601,-1.27331 -0.0741,0.19925 -0.15194,0.35782 -0.1819,0.87075 -0.002,0.0293 -0.0312,0.36014 -0.0341,0.40256 z m 0.21601,-1.27331 c 0.12273,-0.33006 0.26451,-0.59236 0.3762,-1.44177 0.0596,-0.4528 0.0708,-0.69123 0.0935,-0.91416 -0.15648,0.78604 -0.32318,1.56295 -0.46974,2.35593 z m 0.46974,-2.35593 c 0.15555,-0.78136 0.31033,-1.56289 0.47542,-2.33629 -0.10829,-0.17716 -0.20075,-0.3473 -0.28784,0.50023 -0.11369,1.10639 -0.14197,1.38832 -0.18758,1.83606 z m 0.55087,-29.76718 c 0.33264,-0.10575 0.54739,0.12524 0.59583,0.77257 -0.72138,4.09223 -4.72524,7.55588 -7.27811,11.85405 2.04592,-6.21306 5.3312,-12.19706 6.68228,-12.62662 z m 18.5906,7.94164 c 3.2332,0.43443 -0.63278,4.431 -0.78394,5.6534 -1.85218,2.78802 -0.89197,6.82468 0.60152,9.8025 3.69175,2.86918 2.26234,4.49046 -1.96371,3.58635 -3.53773,0.62722 -3.89348,4.2373 -3.46232,7.2719 0.043,0.30284 0.0476,0.62639 0.10491,0.91364 -0.49967,0.52783 -1.10337,0.68281 -1.75752,0.65474 -1.75627,-0.0753 -3.90663,-1.57226 -5.61051,-1.49034 -3.33535,-1.97704 -3.68345,-5.62393 -3.39462,-9.13691 -0.51544,-4.24748 2.39581,-8.2298 5.28908,-11.08615 2.82696,-0.90538 4.66561,-3.87438 7.60005,-4.98212 1.00996,-0.79047 2.13923,-1.01346 3.37706,-1.18701 z m -11.40189,5.61464 c -1.95645,1.62401 -3.44072,4.27927 -4.6824,6.60683 1.23287,-2.494 2.47985,-4.82393 4.6824,-6.60683 z m -15.47503,9.54361 c 0.12845,0.45442 0.24416,0.90366 0.42633,1.37924 1.03995,8.40663 -0.52143,16.96902 -1.72754,25.27184 -0.12193,0.74338 -0.0221,1.43144 0.17157,2.09652 -0.38494,-1.18151 -0.59841,-2.3977 -0.14883,-3.79305 1.50119,-7.72033 2.4803,-15.77613 1.61024,-23.60218 -0.15633,-0.40555 -0.25482,-0.86887 -0.33177,-1.35237 z m 26.75393,4.21524 c 0.63949,0.0584 1.05056,0.22449 1.36942,0.43408 0.038,0.025 0.0606,0.057 0.0946,0.0837 -0.0439,-0.0166 -0.0769,-0.0426 -0.12247,-0.0574 -0.48755,-0.15777 -1.05256,-0.22264 -1.34152,-0.46044 z m 1.9513,2.0991 c -0.21332,1.19287 -1.02678,2.61537 -1.48932,3.79202 0.36927,-1.31821 0.83075,-2.59695 1.48932,-3.79202 z m -4.23334,1.60352 c 0.0841,-0.001 0.10809,0.0197 0.18552,0.0212 4.18994,0.0798 -1.15551,3.77735 -0.22221,0.21084 0.0239,-0.0914 0.004,-0.13077 0.0367,-0.23203 z m 2.30891,4.02611 c -0.37777,2.82355 -0.83224,5.63505 -1.34566,8.43256 0.46885,-2.79915 0.77229,-5.67253 1.34566,-8.43256 z m -10.56732,3.38222 c 4.51578,1.53432 -0.0756,3.50753 0,0 z m 9.06147,5.87148 c -0.30187,1.60521 -0.59879,3.21354 -0.93638,4.79505 0.1362,-1.61807 0.38571,-3.22412 0.93638,-4.79505 z m -1.0325,6.40839 c -0.009,3.00327 0.62997,6.83286 0.6165,8.75451 -0.35313,-2.90694 -0.67923,-5.84783 -0.6165,-8.75451 z m -25.32869,1.31827 c 0.67903,2.12153 2.35816,4.00371 1.63556,6.53862 -0.10035,9.64462 0.93562,19.22769 2.26136,28.75483 -0.84395,-2.74856 -0.43303,-6.08597 -1.40559,-8.80721 -0.1762,-7.41218 -1.36511,-14.78163 -0.9493,-22.225 -0.3339,-1.50809 -1.06075,-2.861 -1.54203,-4.26124 z m 5.76658,14.53348 c 0.0605,5.20374 -0.13124,5.99939 -0.005,0.29559 z m -1.01338,22.62963 c 0.0727,0.0966 0.1421,0.19538 0.22014,0.28835 -0.074,-0.0959 -0.15297,-0.18931 -0.22014,-0.28835 z m 0.65888,0.74879 c 1.50237,1.53068 3.57821,2.63882 4.53564,4.21318 2.0026,7.36627 -0.67569,-1.30291 -4.00234,-3.65404 -0.21333,-0.16997 -0.35452,-0.37316 -0.5333,-0.55914 z"
           transform="translate(7.4485447e-6)"
           inkscape:label="Body_Shadow" /><path
           style="fill:#016ec2;fill-opacity:1;stroke:none;stroke-width:2.11667;stroke-linecap:round;stroke-linejoin:bevel"
           d="m -312.1118,221.61567 c 0,0 -2.37999,10.82101 -2.06234,16.91325 1.99549,2.90398 11.57076,1.91127 11.57076,1.91127 0,0 -5.56391,0.90317 -7.90236,-3.72937 -1.59974,-1.97443 -1.60606,-15.09515 -1.60606,-15.09515 z"
           id="path21"
           sodipodi:nodetypes="ccccc"
           inkscape:label="Cap" /></g></g></g></svg>
